<?xml version="1.0" standalone="no"?>
<!DOCTYPE svg PUBLIC "-//W3C//DTD SVG 1.1//EN" "http://www.w3.org/Graphics/SVG/1.1/DTD/svg11.dtd" >
<svg xmlns="http://www.w3.org/2000/svg">
<metadata>
Created by FontForge 20120731 at Tue Oct 29 11:08:32 2013
 By Jonas Kaas
Created by Jonas Kaas with FontForge 2.0 (http://fontforge.sf.net)
</metadata>
<defs>
<font id="icons" horiz-adv-x="512" >
  <font-face
    font-family="icons"
    font-weight="500"
    font-stretch="normal"
    units-per-em="512"
    panose-1="2 0 6 3 0 0 0 0 0 0"
    ascent="605"
    descent="-64"
    bbox="-0.5 0 512.5 608.5"
    underline-thickness="25"
    underline-position="-52"
    unicode-range="U+F100-F113"
  />
<missing-glyph horiz-adv-x="187"
d="M17 0v341h136v-341h-136zM34 17h102v307h-102v-307z" />
    <glyph glyph-name=".notdef" horiz-adv-x="187"
d="M17 0v341h136v-341h-136zM34 17h102v307h-102v-307z" />
    <glyph glyph-name=".null" horiz-adv-x="0"
 />
    <glyph glyph-name="nonmarkingreturn" horiz-adv-x="170"
 />
    <glyph glyph-name="uniF100" unicode="&#xf100;"
d="M255 217l-255 238l27 30l228 -213l229 213l28 -30z" />
    <glyph glyph-name="uniF101" unicode="&#xf101;" horiz-adv-x="267"
d="M0 352l238 256l29 -27l-213 -229l213 -229l-29 -27z" />
    <glyph glyph-name="uniF102" unicode="&#xf102;" horiz-adv-x="267"
d="M267 352l-238 -256l-29 27l212 229l-212 229l29 27z" />
    <glyph glyph-name="uniF103" unicode="&#xf103;"
d="M256 485l256 -239l-28 -29l-228 213l-229 -213l-27 29z" />
    <glyph glyph-name="uniF104" unicode="&#xf104;" horiz-adv-x="500"
d="M336 198q-33 -10 -104 -6q-135 7 -192 79.5t-33 166.5q22 87 95 132t187 36q108 -9 164 -82.5t45 -167.5q-6 -49 -55.5 -113t-95.5 -104l-46 -40q20 40 35 99v0z" />
    <glyph glyph-name="uniF105" unicode="&#xf105;"
d="M226 234l-95 136q-12 17 6 28q19 11 29 -5l77 -111l119 187q4 7 13.5 9t16.5 -3q17 -10 6 -29l-136 -211q-4 -6 -17 -6h-1q-15 0 -18 5zM0 608h512v-512h-512v512zM469 138v427h-426v-427h426z" />
    <glyph glyph-name="uniF106" unicode="&#xf106;"
d="M286 261v61h61v-61h-61zM164 383v61h61v-61h-61zM256 608q106 0 181 -75t75 -181t-75 -181t-181 -75t-181 75t-75 181t75 181t181 75zM246 240v102h-102v-102h102zM246 362v102h-102v-102h102zM368 240v102h-102v-102h102zM368 362v102h-102v-102h102zM164 261v61h61v-61
h-61zM286 383v61h61v-61h-61z" />
    <glyph glyph-name="uniF107" unicode="&#xf107;"
d="M279 352l228 -227q11 -13 0 -24q-5 -5 -12 -5t-12 5l-227 227l-227 -227q-5 -5 -12 -5t-12 5q-11 13 0 24l227 227l-227 227q-11 13 0 24q13 11 24 0l227 -227l226 227q13 11 24 0q11 -13 0 -24z" />
    <glyph glyph-name="uniF108" unicode="&#xf108;"
d="M256 608q106 0 181 -75t75 -181t-75 -181t-181 -75t-181 75t-75 181t75 181t181 75zM317 399h-45v32q0 15 21 15l23 -3l7 43q-15 4 -51 4q-30 0 -45 -20q-9 -11 -9 -44v-27h-29v-41h29v-144h53v144h43z" />
    <glyph glyph-name="uniF109" unicode="&#xf109;"
d="M237 314q3 -3 9.5 -7t9.5 -6t6.5 -5.5t5.5 -7t3 -7.5q1 -3 1 -9q0 -45 -62 -45q-24 0 -40.5 13.5t-16.5 32.5t18.5 32t43.5 13q10 0 22 -4zM252 426q2 -23 -7.5 -38t-25.5 -14q-17 1 -30.5 16.5t-16.5 37.5t6.5 36.5t26.5 13.5t30.5 -16t16.5 -36zM256 608q106 0 181 -75
t75 -181t-75 -181t-181 -75t-181 75t-75 181t75 181t181 75zM210 214q39 0 62 18.5t21 43.5q0 34 -30 56q-22 19 -22 26q0 12 17 25q24 19 24 45q0 39 -28 50h27l19 13h-86q-29 0 -51.5 -19t-22.5 -44q0 -26 18.5 -44t47.5 -18h8q-4 -10 -4 -16q0 -12 12 -24h-16
q-34 0 -59 -19t-25 -43q0 -23 25.5 -36.5t62.5 -13.5zM389 345h1v26h-34v34h-27v-34h-34v-26h34v-34h26v34h34z" />
    <glyph glyph-name="uniF10A" unicode="&#xf10a;"
d="M0 375v233h233v-233h-233zM46 562v-140h140v140h-140zM279 608h233v-233h-233v233zM465 422v140h-140v-140h140zM0 96v233h233v-233h-233zM46 282v-140h140v140h-140zM279 96v233h233v-233h-233zM326 282h-1v-140h140v140h-139z" />
    <glyph glyph-name="uniF10B" unicode="&#xf10b;"
d="M349 446v-187h-187v187h187zM318 393q4 9 -3 14q-9 5 -13 -3l-52 -82l-33 48q-5 9 -13 3t-2 -13l41 -59q3 -3 8 -3t8 3zM256 608q106 0 181 -75t75 -181t-75 -181t-181 -75t-181 75t-75 181t75 181t181 75zM368 240v224h-224v-224h224z" />
    <glyph glyph-name="uniF10C" unicode="&#xf10c;"
d="M0 312v80h512v-80h-512zM0 472v80h512v-80h-512zM0 152v80h512v-80h-512z" />
    <glyph glyph-name="uniF10D" unicode="&#xf10d;"
d="M256 608q106 0 181 -75t75 -181t-75 -181t-181 -75t-181 75t-75 181t75 181t181 75zM372 352l1 2q1 2 2 3q0 3 -2 5l-31 29q-2 1 -5 1t-4 -1t-1 -4t1 -5l18 -18h-88v83l18 -18q3 -3 5 -3t4 2t2 5t-2 5l-29 30q-1 2 -5 2q-3 0 -5 -2l-29 -30q-2 -2 -2 -5t2 -5q4 -4 9 0
l18 18v-83h-88l18 18q1 1 1 4t-1 5q-5 4 -9 0l-31 -29q-2 -1 -2 -5q0 -3 2 -5l31 -29l4 -2q3 0 5 2q1 2 1 5t-1 5l-18 18h88v-92l-18 19q-1 1 -4 1t-5 -1t-2 -5t2 -5l29 -30q1 -3 5 -3q2 0 5 3l29 30q2 1 2 5t-2 5t-5 1t-4 -1l-18 -19v92h87l-18 -17q-2 -1 -2 -5t2 -5
q2 -2 5 -2q4 0 5 1z" />
    <glyph glyph-name="uniF10E" unicode="&#xf10e;"
d="M122 608h390v-328h-82v42h41v245h-309v-41h-40v82zM0 485h390v-163v-165h-390v328zM349 198v41v41v164h-308v-246h308z" />
    <glyph glyph-name="uniF10F" unicode="&#xf10f;"
d="M0 352q0 256 256 256t256 -256t-256 -256t-256 256z" />
    <glyph glyph-name="uniF110" unicode="&#xf110;" horiz-adv-x="510"
d="M502 162q18 -18 1 -37q-8 -8 -19 -8t-18 7l-135 128q-55 -47 -129 -47q-83 0 -142.5 59t-59.5 142t59.5 142.5t142.5 59.5t142 -59t59 -142q0 -63 -37 -116zM52 406q0 -61 44 -105t106 -44t105.5 43.5t43.5 105.5t-44 106t-105 44q-62 0 -106 -44t-44 -106z" />
    <glyph glyph-name="uniF111" unicode="&#xf111;"
d="M256 608q106 0 181 -75t75 -181t-75 -181t-181 -75t-181 75t-75 181t75 181t181 75zM357 255q7 7 -1 16l-55 52q15 21 15 47q0 35 -24 59t-58 24t-58.5 -24.5t-24.5 -58.5t24 -58t59 -24q30 0 52 19l56 -52q3 -3 7 -3q5 0 8 3zM234 431q25 0 43 -18t17 -43q0 -26 -17 -43
t-43 -17t-43.5 17.5t-17.5 42.5q0 26 17.5 43.5t43.5 17.5z" />
    <glyph glyph-name="uniF112" unicode="&#xf112;"
d="M282 490v64h230v-64h-230zM0 490v64h232v-64h-232zM0 320v64h232v-64h-232zM282 320v64h230v-64h-230zM282 151v64h230v-64h-230zM0 151v64h232v-64h-232z" />
    <glyph glyph-name="uniF113" unicode="&#xf113;"
d="M256 608q106 0 181 -75t75 -181t-75 -181t-181 -75t-181 75t-75 181t75 181t181 75zM366 409q17 12 28 29q-10 -4 -32 -8q18 10 24 31q-22 -12 -36 -14q-18 18 -41 18t-40 -17t-17 -40q0 -5 2 -13q-72 3 -118 59q-8 -14 -8 -28q0 -31 26 -48q-10 0 -26 8q0 -21 13 -36
t33 -20q-7 -3 -16 -3q-7 0 -10 1q12 -37 53 -39q-30 -24 -71 -24q-8 0 -13 1q41 -26 87 -26q73 0 117.5 50t44.5 112v7z" />
  </font>
</defs>
</svg>
