<?xml version="1.0" standalone="no"?>
<!DOCTYPE svg PUBLIC "-//W3C//DTD SVG 1.1//EN" "http://www.w3.org/Graphics/SVG/1.1/DTD/svg11.dtd" >
<svg xmlns="http://www.w3.org/2000/svg">
<metadata></metadata>
<defs>
<font id="plakatmedium" horiz-adv-x="559" >
<font-face units-per-em="2048" ascent="1536" descent="-512" />
<missing-glyph horiz-adv-x="479" />
<glyph horiz-adv-x="0" />
<glyph horiz-adv-x="0" />
<glyph unicode="&#xd;" horiz-adv-x="1024" />
<glyph unicode=" "  horiz-adv-x="479" />
<glyph unicode="&#x09;" horiz-adv-x="479" />
<glyph unicode="&#xa0;" horiz-adv-x="479" />
<glyph unicode="!" horiz-adv-x="538" d="M96 1473h60.5t52.5 -3q23 -2 52.5 -2h57.5h27h74l29 -10l2 -147q0 -72 -2.5 -161t-8.5 -161q-4 -29 -4 -65.5v-73.5v-25q0 -61 -5 -150t-11 -188l-8 -81q-16 -14 -31.5 -16.5t-26.5 -2.5h-17t-15 2q-6 0 -10.5 1t-8.5 1q-6 0 -11 -1t-9 -1h-21q-25 0 -50.5 2t-49.5 6 l-25 25q-6 51 -7 106.5t-3 112.5q0 35 -1 66.5t-3 64.5q-4 72 -6 147.5t-2 151.5v51.5t2 51.5q-4 29 -5 65.5t-1 71.5v28.5t-1 29.5t-4.5 41t-9.5 63zM109 133q0 16 7 45t22.5 56.5t42 47t65.5 19.5q33 0 64.5 -10t58 -29.5t43 -51.5t16.5 -75q0 -45 -18 -84 q-6 -16 -23.5 -29.5t-39 -23.5t-43 -16.5t-36.5 -6.5q-18 0 -45.5 9.5t-52.5 28t-43 48t-18 72.5z" />
<glyph unicode="&#x22;" horiz-adv-x="610" d="M86 1466q4 -6 24.5 -8t42 -3t39.5 -1h17q10 0 19.5 1t17.5 1q23 0 35 -10l-25 -260q0 -55 -4 -87t-4 -52l-21 -58l-18 -8l-84 4q-4 37 -7 65.5t-8.5 59.5t-9.5 67t-8 85q0 14 1 27.5t1 27.5q0 47 -3 85t-5 64zM340 1446q12 10 33 10q10 0 19 -1t20 -1h10q6 0 44 -1 t64 -11q-2 -23 -3 -46.5t-1 -52.5v-38t2 -43q-4 -49 -8 -85t-9 -67t-9 -59.5t-6 -65.5l-109 4l-6 64q0 20 -8 48.5t-8 84.5z" />
<glyph unicode="#" horiz-adv-x="1110" d="M55 416q8 31 14.5 63.5t18.5 67.5l184 6l56 348h-84q-23 -2 -37 -3t-29 -1h-19t-20 2h-22v23q0 23 10 50t16 62l23 4q41 4 83 6.5t93 2.5h10q18 117 32.5 197.5t18.5 96.5l17 91l4 14h14q23 0 36 -1t38 -1q4 0 10 1t10 1h17v-14q0 -33 -4 -76t-15 -84l-34 -225l219 2 l33 239q4 41 12 79t10 67l12 8q16 2 31.5 3t28.5 1q33 0 65 -8l-14 -162l-31 -225q57 0 116.5 -2t84.5 -7l2 -8q-8 -31 -14.5 -63.5t-18.5 -67.5l-190 -8q-10 -84 -23.5 -172t-25.5 -174h43q23 2 37 3t26 1q10 0 19.5 -1t21.5 -1h23v-23q0 -23 -10.5 -50t-16.5 -62l-23 -4 q-35 -4 -68.5 -6.5t-72.5 -2.5q-16 -117 -28.5 -198.5t-16.5 -98.5q-4 -25 -7 -47t-7 -43l-4 -14h-15q-18 -2 -30.5 -2h-30.5h-49v14q0 33 3 76t13 84l31 227l-232 -2l-37 -239q-6 -41 -14 -79t-10 -67l-12 -8q-16 -2 -29.5 -2h-26.5q-35 0 -69 8l16 162q2 14 10.5 74.5 t22.5 150.5q-47 0 -86 2t-72 2h-22zM422 555q51 -2 110.5 -3t116.5 -1l45 344q-47 0 -104.5 1t-116.5 3z" />
<glyph unicode="$" horiz-adv-x="978" d="M72 190l176 211l37 -41q35 -29 82 -49l43 289l-2 2v2q-55 37 -110.5 81t-99.5 98.5t-72 119t-28 141.5q0 76 31 152t85 137.5t129 99t163 37.5h12h16.5t16.5 -2l14 78l4 23h23q4 0 7 -1t7 -1q8 0 15.5 1t15.5 1h22v-23q0 -43 -6 -92q53 -16 99.5 -47t99.5 -84v2l45 -45 q-16 -41 -44 -82t-54 -76q-31 -39 -66 -78l-8 9q-4 4 -6 5t-4 3q-10 8 -39 31.5t-70 44.5l-45 -310l25 -16q150 -106 218 -210.5t68 -223.5q0 -96 -32.5 -171t-86 -127t-124 -80t-146.5 -28q-12 0 -25.5 1t-25.5 3v-2q-10 -47 -16 -87t-8 -70l-17 -15q-12 -2 -23.5 -2h-21.5 q-33 0 -53 11l26 188l3 12q-51 23 -96.5 51.5t-79 55t-54 47t-20.5 26.5zM393 1049q0 -35 18.5 -69t47.5 -65l41 252h-6q-35 0 -68 -29.5t-33 -88.5zM479 283h10q49 0 79 31.5t30 86.5q0 41 -18.5 69t-63.5 60z" />
<glyph unicode="%" horiz-adv-x="1374" d="M106.5 1095.5q-2.5 32.5 2.5 75.5q0 6 2 21.5t4 34t6 37t8 28.5q37 82 101.5 131.5t162.5 42.5q33 -6 63.5 -13t55.5 -17q35 -20 63.5 -53t49 -73t30 -81t7.5 -78q-4 -49 -16.5 -102.5t-40 -99.5t-72 -79.5t-109.5 -44.5q-23 2 -41 0t-41 0q-33 2 -81 19.5t-83 66.5 q-25 35 -40 64t-22 58.5t-9.5 62zM160 -4l135 231q10 18 43 69.5t78 124.5t100 161t112.5 179t114 179t102.5 161t78.5 125t45.5 70q25 37 46 68t40 59l14 23h23q23 0 40 -1t42 -1q8 0 14 1t14 1h23l-11 -23q-23 -45 -58.5 -106.5t-74.5 -118.5l-616 -993 q-39 -59 -75 -111.5t-58 -91.5l-23 -14q-20 -2 -36.5 -2h-32.5q-20 0 -39 2t-41 8zM245 1164q1 -24 1 -38q-2 -23 3 -51t19.5 -54t37 -45.5t54.5 -21.5q37 -2 78 17.5t51 54.5q8 10 13.5 30.5t9.5 43t6 42t2 29.5q0 14 -5 40t-18.5 51.5t-38 45t-61.5 25.5q-41 4 -65.5 -9 t-30.5 -17q-25 -18 -36 -43t-16 -50.5t-4 -49.5zM711 279q0 49 9 103t33.5 102t66.5 84t108 53q23 2 40 4t40 2q35 0 83 -14.5t87 -61.5q27 -33 43 -60.5t25 -55t13.5 -60.5t4.5 -76v-21.5t-1 -35t-4.5 -38t-7.5 -30.5q-31 -82 -90 -136t-162 -54q-68 6 -118 22 q-37 16 -68 48t-54.5 70t-35.5 78t-12 77zM854 270q0 -16 7 -40.5t22.5 -49t41 -43t62.5 -20.5q41 0 65.5 13t30.5 20q23 20 33 45.5t12 50t0 47.5t-2 39q0 23 -7 51.5t-22.5 53t-40 42t-57.5 17.5q-37 0 -77.5 -22.5t-47.5 -57.5q-6 -10 -10 -30.5t-6 -43.5t-3 -43t-1 -29z " />
<glyph unicode="&#x26;" horiz-adv-x="1294" d="M78 369q0 49 12 105t40 111.5t72 105.5t109 87q-12 14 -22 33l-37 68v-2q-33 53 -56.5 102t-23.5 125q0 100 34 167.5t79 108.5t91 59.5t73 24.5h8q23 4 51.5 6.5t52.5 2.5h8q59 0 127 -15.5t126.5 -54.5t97 -106.5t38.5 -170.5q0 -45 -12 -85t-45 -80.5t-91 -89 t-151 -109.5q16 -18 29.5 -35.5t30.5 -34.5v2q57 -72 112.5 -139.5t108.5 -132.5l6 8q16 16 40 57t32 72l192 21q0 -37 -6 -82t-20.5 -91.5t-38 -92.5t-58.5 -83q41 -51 92.5 -114.5t90.5 -110.5l-2 -4q-127 -6 -205 -6h-43h-33l-16 2q-16 23 -36 40t-32 30 q-49 -29 -96 -42.5t-76 -17.5h-4q-20 -4 -63 -13t-68 -9h-37q-74 0 -158 17t-155.5 61.5t-119.5 118t-48 186.5zM358 428q0 -59 10.5 -99t35 -64.5t65.5 -35t104 -10.5l27 4q29 4 65.5 8.5t59.5 18.5l-285 352q-47 -35 -64.5 -83t-17.5 -91zM438 1126q0 -78 49 -141l56 -70 q72 37 114.5 104t42.5 124q0 61 -24.5 92t-114.5 33q-57 -16 -90 -52t-33 -90z" />
<glyph unicode="'" horiz-adv-x="333" d="M74 1466q4 -6 24.5 -8t42 -3t39.5 -1h17q10 0 19 1t17 1q23 0 35 -10l-24 -260q0 -55 -4 -87t-4 -52l-21 -58l-18 -8l-84 4q-4 37 -7.5 65.5t-8.5 59.5t-9 67t-8 85q0 14 1 27.5t1 27.5q0 47 -3 85t-5 64z" />
<glyph unicode="(" horiz-adv-x="557" d="M90 518q0 45 11.5 149.5t39 235.5t73.5 273.5t118 263.5q16 29 34.5 68.5t59.5 107.5l47 -35l92 -72l-4 -2l-4 -4q-18 -27 -38.5 -58.5t-35.5 -84.5q-59 -184 -93 -316.5t-50 -231.5t-19.5 -175t-3.5 -148q0 -102 5.5 -163.5t11.5 -100.5t13 -62.5t13 -51.5 q23 -63 38.5 -120t33 -111t39 -109.5t55.5 -114.5l-16 -41q-29 -20 -45 -29.5t-27.5 -13.5t-21.5 -8t-27 -13q-39 47 -69.5 103.5t-57 113t-47 108.5t-39.5 93q-41 127 -63.5 271.5t-22.5 277.5z" />
<glyph unicode=")" horiz-adv-x="557" d="M2 -375q0 -4 10.5 8.5t12.5 14.5q10 16 26.5 44.5t30.5 84.5q49 162 78.5 279.5t45 206.5t20.5 160t5 138q0 133 -5 211t-12 124t-16.5 73.5t-15.5 58.5q-23 63 -40 119.5t-34.5 110t-41 107.5t-58.5 114l17 41q27 20 43 29.5t27 14.5t21.5 8t26.5 13q39 -47 72 -102.5 t59.5 -110.5t49 -108.5t41.5 -92.5q47 -133 70.5 -285.5t23.5 -289.5q0 -55 -11.5 -160.5t-38 -231.5t-69.5 -259t-107 -246q-16 -29 -32.5 -69t-57.5 -109l-49 35z" />
<glyph unicode="*" horiz-adv-x="917" d="M78 1282q0 10 5 21.5t13 27.5q33 51 41 61.5t25 10.5q18 0 31 -6l165 -60l19 -12l2 191q-2 2 -2 6q0 27 31.5 44t97.5 17q10 0 22.5 -8t20.5 -41l-6 -209l39 12l176 62q4 4 10 4q4 0 15.5 -2t23.5 -14.5t22.5 -37t10.5 -67.5q0 -10 -9.5 -27.5t-31.5 -21.5l-199 -62 l94 -151q4 -4 10.5 -12.5t6.5 -16.5q0 -4 -1 -8t-1 -6l-7 -16l-10 -11q-10 -12 -24.5 -24.5t-28.5 -22.5t-25 -10q-6 0 -20 4t-31 14l-98 160l-4 -10l-103 -146q-4 -10 -15 -17t-15 -7l-23 -4q-4 0 -12 3t-10 3q-53 18 -67.5 43t-14.5 39q0 8 2 12l4 8l123 174l-240 84 q-12 12 -12 29z" />
<glyph unicode="+" horiz-adv-x="989" d="M70 479v23q0 35 2 73.5t2 73.5v23l22 2q41 4 96.5 5t108.5 1h98l-2 108q-2 43 1 84t3 76q0 12 -1 22.5t-1 20.5l15 15q23 0 43 1t39 1q23 0 47 -2t55 -9l8 -231v-86h115q53 0 100 -3t84 -3h19l14 -15v-65q0 -29 -2 -56.5t-10 -62.5l-232 -4q-20 0 -41.5 1t-46.5 1 q0 -59 1 -113.5t2 -97.5t2 -69.5t1 -28.5l-2 -23h-22q-27 0 -51.5 1t-51.5 1q-12 0 -23 -1t-22 -1h-22l-4 23q-6 41 -6 96t-2 109l-3 106h-114.5t-98.5 1t-69.5 1h-28.5z" />
<glyph unicode="," horiz-adv-x="471" d="M55 135q0 49 18.5 86t49.5 53q2 2 13 9.5t26.5 14.5t32 12t26.5 5q51 0 95 -14t61 -41q12 -20 20.5 -52t14.5 -67t9 -68.5t3 -58.5q-4 -31 -8 -58.5t-16.5 -55t-34 -58t-58.5 -67.5l-15 -17q-16 -16 -36 -34.5t-38.5 -34t-27.5 -15.5l-20 17l-49 61l-4 15l67 81 q16 18 27.5 50t11.5 79h-30q-41 0 -59.5 13.5t-41.5 54.5l-12 14q-10 25 -17.5 43.5t-7.5 32.5z" />
<glyph unicode="-" horiz-adv-x="679" d="M92 453v77q0 35 2 69t10 79l232 4q14 0 26.5 -1t26.5 -1q37 0 74 2t74 2q8 0 16 -1t14 -1l23 -2v-23q0 -49 -2 -99t-2 -95v-23l-23 -2q-31 -4 -76 -5t-88 -1h-90h-106t-86 -2z" />
<glyph unicode="." horiz-adv-x="434" d="M39 150q0 16 10 42.5t27 45.5q4 6 22.5 19t42 27.5t49 24.5t46.5 10q23 0 50 -16t51.5 -44t41 -61.5t16.5 -70.5q0 -51 -32 -98t-89 -74q-12 -6 -36 -6q-90 0 -143.5 48t-55.5 153z" />
<glyph unicode="/" horiz-adv-x="507" d="M-10 -455l22 232q2 18 13.5 95t28 190.5t38 255t43 288t43 287.5t38.5 256t29.5 191.5t16.5 95.5q8 37 13.5 67.5t9.5 59.5l4 22h22q29 0 46.5 -1t52.5 -1q8 0 14 1t14 1h23v-22q0 -45 -6 -106.5t-19 -119.5l-227 -1583q-10 -59 -21.5 -111.5t-11.5 -91.5l-16 -14 q-23 -2 -42.5 -2h-35.5q-23 0 -44.5 2t-47.5 8z" />
<glyph unicode="0" horiz-adv-x="1093" d="M90 739q0 41 6 94.5t16.5 107.5t25 103t32.5 84q25 66 55.5 121.5t74.5 95t103.5 61t143.5 21.5q104 0 179 -45t127 -110.5t83 -140t47 -134.5q16 -43 18.5 -87t2.5 -91q0 -166 -7 -313q-10 -76 -35.5 -169t-76.5 -174t-134 -136.5t-212 -55.5q-70 0 -158 44t-158 130 q-78 111 -105.5 252.5t-27.5 341.5zM385 622.5q0 -16.5 2 -32.5q6 -74 22.5 -134.5t37 -104.5t44 -68.5t46.5 -24.5q49 0 78.5 13.5t47 37t26.5 55t18 68.5l6 41q12 162 12 297q0 49 -6 109.5t-23.5 116t-48.5 95t-80 46.5q-12 2 -22 2h-23q-29 0 -53.5 -40t-42.5 -106.5 t-29.5 -153.5t-11.5 -184v-32.5z" />
<glyph unicode="1" horiz-adv-x="735" d="M113 1241v33l34 26q8 0 40 8.5t75 18.5t89 22.5t86 22.5t65.5 17.5t25.5 9.5h11q2 0 3 1t3 1h41l12 2q2 -6 4 -14q2 -6 4 -15.5t2 -21.5q2 -41 3 -100.5t1 -112.5l4 -908v-44t-2 -42q0 -14 -1 -33.5t-1 -29.5v-37t2 -43l-22 -4h-62h-90h-52.5t-63.5 6l-13 242v75.5t1 127 t1 152.5v153l-22 282q-51 27 -71.5 32t-31.5 3l-45 10q-12 6 -16 17q-2 4 0 6q-2 8 -3 14t-3 19q-4 23 -6 44t-2 60z" />
<glyph unicode="2" horiz-adv-x="1175" d="M78 1188q57 63 121 117q53 45 120.5 81.5t139.5 40.5h24q6 0 13.5 1.5t13.5 1.5q96 0 186 -32t159 -92.5t111 -147.5t42 -197q0 -78 -25 -139.5t-61.5 -113t-79.5 -95.5t-80 -87q-35 -39 -57.5 -72.5t-44 -63.5t-45 -57.5t-58.5 -53.5l254 16h51.5t59.5 2q33 2 63.5 3 t52.5 1q8 0 13.5 -1t9.5 -1h41q4 -49 3 -101.5t-1 -93.5q0 -29 -1 -49t-5 -55l-250 -2l-313 -6q-29 2 -44.5 3t-34 1t-46 1t-82.5 1h-18q-17 0 -40.5 1t-46 1h-33.5l-26 2v82q2 10 1 24.5t-1 24.5l2 60q14 25 48 67.5t71 88.5t71 85t52 55q43 37 93 95.5t95 122t74.5 126 t29.5 107.5q0 84 -49 131t-135 47q-49 -2 -103.5 -25.5t-101.5 -70.5l-41 -41l-157 156z" />
<glyph unicode="3" horiz-adv-x="1091" d="M150 29q0 18 2 37q0 16 1 32.5t1 30.5v33q2 18 4 41.5t2 48.5q0 8 2 18.5t6 20.5t10 24q4 -4 23.5 -13t21.5 -13q23 -10 53.5 -26.5t61.5 -16.5q76 -8 141.5 0t112.5 33q43 10 60.5 45.5t23.5 78.5q2 55 -11.5 89t-38 54.5t-55 29t-61.5 12.5l-100 6l16 240q37 0 73 5 t63.5 20t46 43t22.5 75v25.5t-9.5 52t-33 53.5t-68.5 27t-91 -2.5t-88 -12.5t-78 -20.5t-60 -24.5q-2 14 -4 29q-2 12 -4 25.5t-5 25.5q-4 16 -3 49t-1 49q-2 10 -4 27.5t2 54.5q86 35 191.5 53.5t204.5 14.5h8q92 -12 173 -47t154 -129q14 -25 24.5 -64t17 -80t7.5 -78.5 t-1 -62.5q0 -70 -25 -130t-84 -103q172 -145 154 -424q-4 -31 -18.5 -64t-35 -64.5t-42 -59t-42.5 -44.5q-47 -25 -83.5 -40t-69.5 -23t-66 -11.5t-71 -5.5h-11q-27 -4 -58.5 -5t-64.5 1q-76 8 -152.5 22.5t-143.5 37.5z" />
<glyph unicode="4" horiz-adv-x="1339" d="M136 558.5q1 29.5 1 47.5q0 23 11.5 90.5t23.5 140t23.5 132t11.5 67.5q2 2 6 24.5t11 53.5t16.5 62.5t21.5 52.5l43 110q29 8 64 13q29 4 67.5 4t81.5 -4l-37 -314q-8 -29 -17 -80t-15.5 -100t-8.5 -86t4 -37l258 -10q2 23 0 47q2 23 1 44.5t2 43.5v30.5t4 31.5 q0 14 1 25t3 22l6 86l39 170q10 29 18 57q8 25 18.5 50.5t24.5 45.5l27 33l57 2l76 2h14q4 0 26.5 -2t29.5 -2q-4 -33 -6.5 -85t-4.5 -93l-4 -146v-86t-2 -92q-2 -39 -4 -73.5t-6 -69.5l-2 -51h82q10 -2 20.5 -1t16.5 1l53 -2l-4 -54l2 -84q0 -14 -1 -25t1 -22l-2 -53 l-174 -8v-59l-6 -172l-7 -240l-112 -4q-35 -4 -56.5 -4t-39.5 2h-43t-54 -2v47.5t-2 38.5q-2 12 -2 25.5v37.5q2 16 3 33.5t1 32.5l2 35q0 41 1 92t3 94q2 18 1 22.5t2 22.5l-330 4l-203 6l-35 13q-2 37 -1 66.5z" />
<glyph unicode="5" horiz-adv-x="1107" d="M55 156l111 233l24 -12q14 -8 49 -25.5t80.5 -36t96.5 -32t98 -15.5q49 0 75.5 7.5t55.5 31.5q35 25 53.5 75t22.5 110q8 109 -50.5 155.5t-164.5 52.5q-55 10 -118.5 12.5t-145.5 2.5l-11 10q4 33 7.5 65.5t6.5 75.5t8 100.5t15 139.5q8 45 12.5 81t5.5 69.5t4 68.5 t11 82l41 2h135l217 6q45 -4 85 -2t81 -2l74 -4l51 -4l-2 -51v-156l-10 -55h-51q-35 4 -79 1t-104 -7l-174 -7l-49 -2l-33 -163l-2 -48h140q162 -6 241 -67q55 -43 90 -85t54.5 -89t25.5 -100.5t4 -116.5q-10 -129 -60 -219.5t-127 -146.5t-175.5 -81.5t-202.5 -25.5 q-100 4 -179 33.5t-169 97.5h2z" />
<glyph unicode="6" horiz-adv-x="1177" d="M139 709q0 127 29 242.5t84 199.5q55 82 102 128t94.5 70.5t98.5 35t117 22.5t132 -1t119 -34q63 -23 121 -57l-18 -68q-4 -29 -12 -55q-6 -23 -15.5 -49.5t-25.5 -42.5l-70 12q-20 2 -51 7t-62.5 9.5t-63 8.5t-56.5 4q-35 0 -70 -20.5t-63.5 -58.5t-48 -92.5 t-23.5 -121.5q41 16 88 18t94 2q68 0 133.5 -10t122.5 -33.5t102 -59.5t70 -85v-2q8 -25 14 -76t7.5 -110.5t-2 -119t-11.5 -104.5q-10 -55 -36.5 -109.5t-78 -97.5t-133.5 -68.5t-204 -25.5q-59 0 -115 17q-76 27 -129 56.5t-88 61t-56.5 64.5t-33.5 67q-18 53 -29.5 116 t-19 126.5t-10.5 123.5t-3 110zM438 510q0 -74 7.5 -120t16.5 -72.5t17 -36t10 -11.5q18 -31 53.5 -47t65.5 -16q51 0 83 10t49.5 23.5t23.5 28t8 22.5v4l2 10q4 12 7 36t6.5 50.5t5.5 50t2 33.5q0 29 -3.5 60.5t-20.5 57t-53 43t-102 17.5q-43 0 -92 -4t-78 -14 q4 -29 -2 -66t-6 -59z" />
<glyph unicode="7" horiz-adv-x="1116" d="M125 1116v244l14 47h41q98 -4 210 -7t222 -7l238 -9l147 -6q10 -8 17.5 -19t7.5 -24q0 -37 -6 -54t-12 -48q-4 -20 -7.5 -42t-7.5 -42l-188 -459l-180 -491q-10 -23 -20.5 -47.5t-20.5 -47.5h2q-14 -29 -27.5 -56.5t-22.5 -49.5l-36 -25q-55 0 -138.5 8.5t-152.5 24.5 l114 244h-2l31 63q25 53 76 162t137 305l35 80l111 260h-13q-20 -2 -45.5 -2h-42.5h-18q-37 -4 -98.5 -5t-127.5 -1h-59.5t-54.5 2q-16 0 -35.5 1t-30.5 1h-57z" />
<glyph unicode="8" horiz-adv-x="1120" d="M106 365q2 145 67 243.5t177 169.5q-96 51 -135 122t-43 149q0 102 34 170.5t85 109.5t111.5 58.5t115.5 19.5l23 2q43 0 90 -6l59 -4q29 -6 76 -26.5t93 -61.5t80 -108.5t38 -172.5q6 -211 -201 -317q117 -68 172.5 -167.5t59.5 -203.5q0 -106 -38 -177t-94.5 -114 t-125 -62.5t-132.5 -21.5l-34 -2q-23 0 -51.5 2t-53.5 10h-8q-37 6 -97.5 26t-118.5 63t-101 115.5t-48 183.5zM401 336q0 -27 12.5 -52.5t36 -45t61.5 -29.5t91 -8q47 2 76 13t44 33.5t19 54.5t2 75q-2 63 -54 128.5t-138 100.5l-43 -28q-53 -33 -81 -87.5t-26 -146.5v-8z M420 1069q2 -53 34.5 -104.5t116.5 -79.5q70 35 112 78t40 96q-2 57 -39 98t-131 39q-86 -4 -110.5 -35t-22.5 -92z" />
<glyph unicode="9" horiz-adv-x="1116" d="M106 975q0 31 11.5 76t36 93t63.5 97t92 88t122 63.5t155 24.5q113 -12 171 -32.5t89 -49t44 -66.5t36 -83q8 -29 16 -71t15.5 -86t11.5 -84t4 -64q0 -4 1 -7.5t1 -7.5t2 -8q4 -53 6 -96t2 -84q0 -51 -3 -91t-7 -85q-4 -16 -4 -27q-6 -74 -17.5 -127t-25 -91t-29.5 -63.5 t-33 -46.5q-16 -29 -40.5 -52t-49.5 -40q-29 -20 -59 -37q-53 -20 -108.5 -33.5t-135.5 -13.5q-59 0 -106.5 12.5t-81.5 28.5q-39 18 -70 43l-12 21q0 49 8 90q4 35 14.5 70.5t26.5 52.5l6 8q27 -18 65.5 -32.5t80.5 -23t79 -12.5t62 -4q63 14 95 49t43 86.5t11 117t2 138.5 q-43 -27 -94 -43t-98 -16q-59 0 -115.5 10.5t-104.5 38t-87 73.5t-60 118q-18 35 -24.5 76.5t-6.5 101.5zM377 932q0 -25 6 -49.5t28.5 -44t66.5 -30.5t122 -11h29.5t30 8t25.5 27.5t20 58.5q-2 16 -3.5 40.5t-1.5 43.5q0 6 1 11t1 9v27q0 41 -8 65.5t-12 30.5 q-12 23 -34.5 40.5t-41.5 17.5q-57 0 -91 -7.5t-53.5 -16.5t-26.5 -19.5t-9 -16.5l-8 -14q-10 -12 -17.5 -37t-12.5 -50.5t-8 -49t-3 -33.5z" />
<glyph unicode=":" d="M88 182q0 -20 10.5 -46.5t23.5 -50.5t26.5 -42t19.5 -23q18 -16 45 -27t43 -11q104 0 152.5 53t50.5 143v20.5t-4 16.5q-27 57 -74 90t-100 33q-35 0 -69 -16.5t-61.5 -40t-45 -50t-17.5 -49.5zM111 809q0 33 15 59.5t39.5 46t55.5 29.5t62 10q34 0 61 -8 q61 -18 98 -66.5t37 -101.5q0 -35 -14 -66.5t-40 -56t-58.5 -39t-69.5 -14.5q-23 0 -54.5 14.5t-60 42t-50 65.5t-21.5 85z" />
<glyph unicode=";" horiz-adv-x="555" d="M57 143q4 70 23.5 95.5t48.5 42.5q0 2 11.5 7t25.5 11t29.5 11t25.5 5q51 0 95 -14t61 -41q12 -20 20.5 -52t14.5 -67t9 -68.5t3 -58.5q-4 -31 -8 -58.5t-16.5 -55t-34 -58t-58.5 -67.5l-15 -17q-16 -16 -36 -34.5t-38.5 -34t-27.5 -15.5l-20 17l-49 61l-4 15l67 81 q16 18 27.5 50t11.5 79h-30q-41 0 -60.5 11.5t-42.5 52.5l-10 18q-23 61 -23 84zM88 754q0 20 10.5 46.5t23.5 50t26.5 42t19.5 22.5q18 16 45 27.5t43 11.5q104 0 152.5 -53t50.5 -143v-20.5t-4 -16.5q-27 -55 -73 -89t-97 -34q-35 0 -71 15.5t-63.5 39t-45 51t-17.5 50.5z " />
<glyph unicode="&#x3c;" horiz-adv-x="1011" d="M57 475v180l291 179q12 6 53 29.5t95.5 54t116 66.5t115.5 66.5t93 52t49 27.5l23 13l20 -13q0 -20 1 -38.5t1 -63.5q0 -2 -1 -34.5t-1 -69.5l-18 -15q-12 -10 -44 -29.5t-74 -43t-89 -49t-91 -49t-80 -44t-54 -30.5l-182 -93l2 -10q35 -20 95 -51t120.5 -61.5t109.5 -55 t64 -33.5l241 -139q0 -29 3.5 -73t3.5 -87t-7 -73l-22 4q-12 8 -57.5 33.5t-107.5 60.5t-133 75t-135.5 76.5t-113.5 64.5t-68 40z" />
<glyph unicode="=" horiz-adv-x="1030" d="M72 305v23q0 25 1 50t1 52q0 10 -1 22.5t-1 22.5v23l22 4q41 4 96.5 5t108.5 3l420 8q43 0 84 -2t76 -2h22t21 2l14 -14q0 -25 1 -44.5t1 -37.5q0 -23 -2 -47.5t-8 -55.5l-232 -8q-74 0 -175 -1t-194.5 -2t-160 -2t-72.5 -1zM74 758v65l14 15h18q37 0 84.5 3t100.5 3h420 q53 0 108 -1t96 -5l23 -2v-23q0 -35 2 -74t2 -73v-23l-22 -2h-73t-160 -1t-194.5 -2t-175.5 -3l-231 4q-8 35 -10 62.5t-2 56.5z" />
<glyph unicode="&#x3e;" horiz-adv-x="1011" d="M63 1067q0 45 7 76l22 -4q12 -8 57.5 -34t107.5 -60.5t133 -74.5t135.5 -77t113.5 -64.5t68 -40.5l219 -133v-180l-291 -178q-12 -6 -53 -29.5t-96.5 -54.5t-117 -66.5t-115.5 -66.5t-93 -53.5t-47 -26.5l-23 -12l-20 12q0 20 -1 38.5t-1 63.5q0 2 1 35t1 70l18 14 q18 14 77.5 49t129.5 73t133.5 73t91.5 51l180 92l-2 10q-35 18 -95 49t-119.5 62t-108.5 56.5t-64 33.5l-241 139q0 29 -3.5 73t-3.5 85z" />
<glyph unicode="?" horiz-adv-x="878" d="M18 1405l25 25q72 23 135.5 36t140.5 13q86 0 164 -6.5t156 -40.5q53 -25 90 -67t58.5 -93t30.5 -106.5t9 -106.5q0 -53 -15 -122t-52 -110q-43 -45 -86 -85t-84 -74l-55 -50q-25 -25 -45.5 -53t-20.5 -51q0 -14 -3 -27.5t-3 -25.5v-41l2 -33q-16 -2 -53 -2h-56h-32 l-115 2q-6 16 -7 56t-1 75q0 39 12 78t30.5 74t41 62.5t45.5 43.5l-6 -2q16 16 29.5 31.5t27.5 30.5q23 23 42 43t32.5 45.5t21.5 58.5t8 78q0 47 -17 76.5t-46 47t-64.5 25t-72.5 7.5q-53 0 -87 -10.5t-63 -20.5q-18 -4 -34.5 -9.5t-67.5 -15.5q-8 35 -9 53.5t-1 38.5v74 v28.5t-5 49.5zM170 139q0 43 18.5 73t43 48.5t52 27.5t46.5 9q14 0 35.5 -6t43 -16.5t39 -25t23.5 -28.5q18 -41 18 -84t-16 -74.5t-43 -51t-58.5 -30t-64.5 -10.5q-39 0 -65.5 19.5t-42 47.5t-22.5 56.5t-7 44.5z" />
<glyph unicode="@" horiz-adv-x="1593" d="M115 641q0 100 14 205.5t45 204.5q27 88 85 163.5t141 131t189.5 87t229.5 31.5h21.5t21.5 -2h15q106 0 191 -34.5t151.5 -92t114.5 -128t79 -143.5t46.5 -138.5t15.5 -110.5q0 -111 -33 -211t-105 -164q-78 -70 -139.5 -93t-120.5 -23q-78 2 -114.5 33.5t-51.5 64.5 q-23 -16 -46 -27.5t-44 -17.5q-10 -4 -19 -9.5t-23.5 -9.5t-36 -8t-58.5 -4q-51 0 -92 26.5t-69.5 63.5t-44 78t-15.5 70q0 27 5 65.5t11 65.5q45 193 148.5 304t294.5 111q14 0 44.5 -10t61.5 -24.5t54.5 -29.5t23.5 -26v-4v-18q0 -23 -4 -53.5t-9.5 -64.5t-11.5 -68.5 t-10 -63.5q-8 -51 -16 -92q-6 -35 -10.5 -66.5t-4.5 -38.5l-2 -12q-4 -12 -4 -33v-22q0 -23 13.5 -46.5t52.5 -23.5v-2l2 2q76 18 122 48t70.5 73t31.5 101.5t7 136.5q0 63 -8 122.5t-27 112.5q-16 43 -57 93t-96 95.5t-121 78t-129 42.5h-29q-31 8 -71 9q-84 0 -173.5 -31 t-142.5 -72q-80 -66 -124 -142.5t-64.5 -155.5t-23.5 -151.5t-3 -129.5q0 -47 5 -94.5t22 -94.5q23 -68 71 -132t117.5 -113.5t157.5 -79t190 -29.5h25l10 -113h-12q-45 -10 -84 -10q-92 0 -189.5 32.5t-170.5 71.5q-86 43 -141.5 112t-89.5 144.5t-47 150.5t-13 132z M643 637q0 -100 33 -133t82 -33q16 0 51 6t72 15q16 113 28.5 187.5t19.5 121.5t12 73.5t9 44t6 31t7 35.5q-18 12 -36 23.5t-34 11.5q-66 0 -113 -40t-77.5 -99.5t-45 -126t-14.5 -117.5z" />
<glyph unicode="A" horiz-adv-x="1007" d="M51 41l4 57q4 35 9.5 63.5t13.5 53.5v-2q2 8 5 21.5t6 24.5t5 19.5t2 6.5q0 4 2 10t2 10q2 14 3.5 25.5t5.5 17.5q8 43 24.5 112.5t36.5 154.5t43 179.5t45 186.5q53 215 115 459q10 0 55 -1t94 -1h129q12 -37 28.5 -106.5t37 -163t45 -203t49.5 -226.5q37 -178 75 -353 t70 -308l-8 -49q-72 -14 -110.5 -16.5t-71.5 -2.5q-23 0 -44.5 1t-37.5 3q-6 0 -15.5 1t-13.5 1l-12 31q-10 31 -19.5 70t-18.5 80t-15 79.5t-10 67.5q-10 0 -19.5 -1t-19.5 -1h-49h-54.5t-46.5 2q-16 -59 -24.5 -128t-16.5 -157v-43l-47 -2q-70 0 -130 3t-122 24zM426 582 q10 -2 22.5 -2h34.5q21 0 31 2q8 2 16.5 3t20.5 1q-4 27 -9 66.5t-12.5 85.5t-14.5 95.5t-15 94.5l-17 -64q-16 -70 -34.5 -145.5t-22.5 -136.5z" />
<glyph unicode="B" horiz-adv-x="1005" d="M90 754q0 51 2 93t6 79q6 68 6 137q0 31 -1 56.5t-3 54.5q-2 27 -2 53v55q0 18 1 36.5t1 35.5v78q84 0 149.5 -2.5t120 -5.5t99.5 -7l90 -8q39 -4 95.5 -23.5t107.5 -66.5t87 -127t36 -207q0 -141 -90 -250q78 -53 113.5 -126.5t35.5 -182.5q0 -115 -31.5 -187.5 t-78 -116.5t-95.5 -63.5t-86 -25.5q-20 -4 -68 -6t-100.5 -5.5t-95.5 -4.5t-53 -1q-14 2 -37 2h-37h-69h-32t-57 2q-2 27 -2 64v70q0 10 2 18t2 16.5t3 14.5q2 10 3 20t1 19q0 6 -1 12t-1 12v25q0 16 1 29.5t1 27.5v53q0 47 -4.5 96.5t-8.5 94.5q-4 41 -7 82t-3 80zM397 580 q0 -47 1 -106.5t1 -102.5v-31q76 2 126 7t80 17.5t42 35t12 59.5q0 45 -19 69.5t-48 35.5t-66 13.5t-69 2.5h-60zM406 905q33 0 67.5 2t62 11.5t45 28.5t17.5 52q0 4 -1 7.5t-1 7.5v12q-4 27 -13.5 49.5t-30 37.5t-54 24.5t-86.5 13.5z" />
<glyph unicode="C" horiz-adv-x="1179" d="M86 733q0 66 7 130.5t26 123.5q27 80 86 155t139 131t174 88q77 26 158 26q18 0 35 -1q47 0 103 -12t112.5 -37.5t107.5 -64.5t88 -92l-157 -168q-39 54 -111 78q-51 17 -98 17q-19 0 -37 -3q-53 -8 -89 -29.5t-57 -38.5q-33 -25 -63.5 -73t-54 -102t-38 -109.5 t-14.5 -94.5q0 -57 9.5 -122.5t37 -122t78 -95t129.5 -43.5h19q98 2 179 31t120 66l145 -201q-33 -41 -77 -70.5t-93 -48t-102 -30t-103 -15.5q-55 -6 -110 -6q-68 0 -133.5 11.5t-114.5 35.5q-63 37 -115.5 93.5t-90.5 120t-60.5 129t-24.5 120.5q0 12 -1 22.5t-1 20.5 q-4 41 -6 89t-2 91z" />
<glyph unicode="D" horiz-adv-x="1126" d="M94 1292v28q0 40 4 71h176q45 0 112 -2.5t136.5 -9.5t133 -21.5t104.5 -40.5q59 -41 109.5 -97.5t87 -118t57 -123t24.5 -116.5q0 -14 1 -26.5t1 -24.5q2 -25 3 -55.5t1 -57.5q0 -74 -11 -149.5t-42 -147.5q-20 -43 -60 -105.5t-95.5 -121.5t-124 -106.5t-142.5 -59.5 q-47 -8 -83.5 -11t-67.5 -3q-49 0 -92 6l-52 6h-32q-10 0 -20.5 -1t-20.5 -1h-23q-6 0 -20.5 1t-20.5 1q-4 37 -6 77t-3 78t-1 70.5v53.5q0 12 1 23t1 22v41q0 53 -5 104t-9 103q-4 45 -8.5 87t-4.5 85q0 39 2 69.5t5 61.5q2 25 3 50t1 48q0 43 -4.5 94t-8.5 98 q-4 63 -6 121zM424 479q0 -39 2 -78t6 -73q47 2 88 6t60 14q31 18 64.5 59.5t63 92.5t49 104t21.5 94q0 63 -17.5 131t-57 122.5t-106.5 89t-163 34.5v-55q0 -49 -1 -98.5t-3 -98.5q-2 -47 -3 -95t-1 -95v-74q0 -20 -1 -39.5t-1 -40.5z" />
<glyph unicode="E" horiz-adv-x="888" d="M92 991q0 121 1 214t5 141v38h115q23 0 43 1t43 1h82q20 0 40.5 -1t43.5 -1h192q29 0 53.5 1t47.5 1h45l-2 -47q-2 -16 -2 -35.5v-37.5q0 -14 -1 -27.5t-1 -28.5l-2 -100h-50q-55 0 -113.5 -1t-113.5 -3q-39 -2 -79 -2h-72v-162q0 -23 -1 -39t1 -45q16 -4 33.5 -4h33.5 q23 0 44.5 1t45.5 3q29 2 56.5 4t58.5 2h33l41 -2l2 -39q2 -10 2 -24.5v-24.5q0 -12 -1 -23.5t-1 -21.5v-45q0 -23 2 -33l2 -49l-41 -4q-23 -4 -48.5 -4h-54.5h-57.5t-52.5 2q-16 0 -41 1t-41 1h-12q0 -35 1 -79t2 -89t2 -84t1 -63h31h56.5t53.5 2q29 0 55.5 1t53.5 1 q12 0 25.5 -1t25.5 -1h43l43 -2v-41v-50.5t-2 -52.5q0 -16 -1 -43.5t-1 -44.5v-41l-41 -2q-59 -4 -141 -5t-160 -1h-88h-103.5t-83.5 -2l-45 -2v43v175t-2 218q-2 139 -3 283.5t-1 273.5z" />
<glyph unicode="F" horiz-adv-x="845" d="M82 729q0 47 1 91t5 79q2 31 4 63.5t2 63.5q0 25 -1 49.5t-3 48.5q-2 27 -3 53.5t-1 49.5v69q0 18 1 47t1 52q35 0 50.5 -1t25.5 -3t20.5 -2h26.5q12 0 22 2q4 0 12.5 -1t14.5 -1h27l16 4q10 2 22.5 3t28.5 1q4 0 7.5 -1t7.5 -1h14q33 2 85 3t103.5 1h90h45.5 q41 0 48 -7.5t7 -45.5v-80q0 -16 1 -31.5t1 -32.5v-78h-88q-10 0 -23.5 -1t-25.5 -3q-8 0 -16.5 -1t-18.5 -1h-29q-8 0 -15 1t-16 1q-8 0 -17 -1t-19 -1h-35h-16.5t-14.5 2v-120t-4 -119q4 0 8 1t8 1q10 2 20.5 3t22.5 1q6 0 14.5 -1t16.5 -1h43q4 0 10 1t11 1q12 0 24 -1 t27 -3h14q4 0 17.5 1t19.5 1v-158q0 -12 -1 -32.5t-1 -39.5v-47q-57 -2 -109 -2h-143h-14v-66.5t2 -95.5q2 -86 4 -182t2 -164q0 -51 -3 -80.5t-22 -29.5q-6 0 -10 -1t-8 -1h-55q-66 0 -105 1t-90 5h-35q-2 29 -2 64.5v70.5q0 14 1 28.5t1 28.5v72q0 14 1 29.5t1 31.5v54 q0 51 -2 98t-6 94q-6 82 -6 166z" />
<glyph unicode="G" horiz-adv-x="1097" d="M82 580q0 51 6 119.5t15.5 137t22.5 132t28 106.5q23 63 62.5 121.5t98 104t134 73t167.5 27.5q266 0 365 -316l-213 -90q-23 41 -49 74q-23 29 -55.5 52.5t-71.5 23.5q-12 0 -34.5 -3t-48.5 -17.5t-52.5 -42t-49 -76t-36 -121t-13.5 -174.5q0 -82 13.5 -158t40 -134.5 t65.5 -94t88 -35.5q63 0 103.5 25.5t63 61.5t30.5 71.5t10 56.5q-12 0 -42 -1t-58 -1h-74v119v90q0 27 2 55q41 6 73 9t65.5 4t73.5 2t97 1q16 0 34 -1t34 -1q18 -2 35 -2v-41q0 -16 1 -36.5t1 -38.5q0 -31 1 -66t1 -64q0 -47 -9.5 -128.5t-37.5 -188.5q-18 -66 -75.5 -111 t-120 -72.5t-116 -38.5t-65.5 -11q-37 0 -85 10t-96.5 25.5t-89 36t-63.5 42.5q-37 43 -68.5 101.5t-56 123t-38 131t-13.5 128.5z" />
<glyph unicode="H" horiz-adv-x="1089" d="M106 1223v88v82h64h33q6 0 13 -1t13 -1l39 2l99 10l34 -2q7 -104 9 -222q1 -66 1 -127q0 -49 -1 -96v-43q23 0 51 -1t57 -3q16 0 39 -1t33 -1q33 -2 58.5 -2t60.5 2l-2 152v49q-2 27 -5.5 60.5t-4.5 67.5t-2 64.5t-1 51.5q0 47 29 45h14q4 0 8.5 1t14.5 1h26q8 0 16.5 1 t14.5 1l57 -2q8 0 31 1t47 1q2 -69 3 -135v-42q0 -40 -1 -71v-97t4 -87q0 -78 1.5 -134.5t3.5 -105.5q4 -37 4 -75v-79l-2 -92q0 -14 -1 -26.5t-1 -22.5q-2 -12 -2 -26.5t-3 -32.5q-1 -21 -1 -45q-1 -30 1 -66q2 -64 5 -125q2 -70 4 -143h-21q-20 4 -43.5 2t-50.5 -6 q-27 -2 -62.5 -4t-80.5 -2q-3 116 -5 242q0 42 -1 83q0 82 2 158l2 111q-39 -4 -76 -8q-24 -2 -48 -2q-14 0 -28 1h-51h-78q-20 0 -27 2q0 -59 2 -121.5t5 -129.5l6 -330q-14 0 -27 -2q-12 -2 -25.5 -3t-25.5 1h-19.5t-25.5 -2q-23 -2 -49.5 -2h-51.5h-36q-8 100 -10 192 q-1 39 0 72q0 43 1 74q1 18 1 34q0 51 -5 96q-6 60 -10 117q-4 53 -9 101q-4 34 -4 68q0 14 1 28v20q0 12 -1 22.5t-1 20.5v43q2 16 3 29.5t3 30.5q2 14 3 28.5t1 28.5q1 15 1 30q0 22 -2 45q-3 38 -7 75q-4 23 -6 44t-5 40z" />
<glyph unicode="I" d="M92 1278v143h94q6 0 13.5 -1t15.5 -1q23 0 42 1t38 3q16 2 33.5 3t38.5 1q10 0 18 -1t18 -1h43q2 -47 3.5 -105t2.5 -115.5t1 -109v-87.5q0 -53 -2 -103.5t-2 -101.5q-2 -51 -3.5 -102.5t-1.5 -102.5q0 -68 1.5 -135.5t3.5 -128.5q0 4 1 -11.5t3 -33.5q2 -25 5 -56.5 t5 -64.5t3 -63.5t1 -51.5q-1 -49 -27 -55q-16 -4 -32 -4q-11 0 -23 2q-4 0 -9 1t-9 1h-146h-33.5t-56.5 2q-4 86 -5 166t-1 129v35q0 59 -4 120.5t-8 114.5q-4 47 -8.5 96.5t-4.5 96.5q0 39 2 71.5t4 61.5t3.5 53.5t1.5 48.5q0 35 -3.5 70t-7.5 70q-4 37 -6 72.5t-2 72.5z " />
<glyph unicode="J" horiz-adv-x="1050" d="M41 545q66 2 84 4t29 4q12 2 23 2h38q16 0 37.5 -2t38.5 -4q20 -4 41 -6q4 -16 4 -29.5v-28.5q2 -29 5 -64.5t14.5 -66t33 -52t57.5 -21.5q18 0 44 5t49.5 18t43 34.5t25.5 54.5q0 6 2 15.5t2 15.5q8 53 14.5 125t8.5 119q-4 59 -7 137t-6.5 161t-6.5 164.5t-6 147 t-4 110t-1 52.5h74h21.5t21.5 -2q12 0 37.5 1t50.5 3q37 2 82 4t57 2q2 -41 2 -91v-91q0 -29 1 -55.5t1 -53.5q2 -27 2 -43v-27q0 -35 -2 -43t-5 -27.5t-3 -60.5q0 -18 2 -47.5t6 -64.5q4 -41 8.5 -92.5t4.5 -98.5q-6 -63 -11 -116q-4 -47 -6 -94.5t-2 -71.5 q0 -47 -15.5 -93.5t-40 -87t-54 -73.5t-60.5 -54q-29 -20 -68.5 -36.5t-81.5 -27.5t-84 -17.5t-75 -6.5q-86 0 -164 33t-136 101.5t-92 176t-34 259.5z" />
<glyph unicode="K" horiz-adv-x="1155" d="M90 76.5v29.5v54q0 57 1 112.5t3 110.5t3 111.5t1 113.5q0 31 -1 57.5t-3 55.5t-2 58.5v58.5q0 66 4 142.5t8 154.5q4 51 6.5 101t4.5 99v49h309l2 -47q2 -18 2 -44.5v-49.5v-63.5t-2 -67.5q0 -18 -1 -28.5t-2 -18.5t-1 -17.5v-25.5q25 31 50.5 61.5t47 56t35.5 44 t18 22.5q10 16 24.5 36t31.5 36q12 14 23.5 26.5t21.5 28.5q4 4 11 13.5t17 17.5q10 10 17.5 19.5t9.5 15.5l21 18h391l-76 -86q-35 -41 -67.5 -83t-65.5 -83q-70 -92 -135.5 -164.5t-124.5 -136.5l-107 -116q27 -31 69 -79t91 -106.5t100.5 -122t98.5 -123t83.5 -111.5 t57.5 -87l43 -92h-340l-14 24q-10 14 -29.5 37t-36.5 43l-33 43q-94 119 -157 215q-14 20 -23.5 32.5t-17.5 25t-18.5 26.5t-28.5 39q2 -125 5 -256t5 -256h-326l-2 49q-2 12 -2 27.5z" />
<glyph unicode="L" horiz-adv-x="856" d="M84 1321v96q25 0 41 1t32.5 1t38 1t52.5 3q8 0 17 -1t20 -1h26q10 2 21.5 2h17.5h49q2 -98 3 -211.5t1 -197.5q0 -35 -1 -71t-3 -71q-2 -37 -3 -74.5t-1 -76.5q0 -59 3 -141t8 -162q2 -47 4 -78t4 -66q70 6 130 8t109 7q43 2 80 4t74 6v-35q0 -12 -1 -23.5t-1 -21.5 q-2 -12 -2 -23.5v-25.5v-54.5t2 -33.5q0 -10 1 -29.5t1 -34.5q-10 0 -36 -1t-42 -1h-48.5t-41.5 -2q-8 0 -23.5 -2t-32 -4t-31.5 -3t-22 -1h-110q-6 0 -12.5 -1t-10.5 -1h-18q-59 0 -90 1t-53 1h-115q-4 86 -5 170t-1 137v37q0 66 -4.5 125t-8.5 119q-4 51 -7 103.5t-3 99.5 q0 23 1 49t3 51q2 27 3 59.5t1 63.5q0 39 -2 78t-6 80q-4 37 -6 73.5t-2 71.5z" />
<glyph unicode="M" horiz-adv-x="1304" d="M92 -4v37q2 92 3 192.5t1 204.5q2 242 6 489.5t21 464.5q0 10 1 23.5t1 19.5l307 -8l189 -903q23 86 44 175t40 175q33 152 66.5 285t78.5 215l4 8l18 2q33 4 53.5 4t39.5 4q39 6 75 7q20 0 46 -2.5t73 -6.5q4 0 12.5 -2t12.5 -2l2 -24q4 -35 7 -112t4 -178t3 -218 t2 -232q0 -92 1 -180t2 -161.5t3 -129t4 -82.5v-36h-34q-39 0 -88 -7q-23 -4 -47.5 -6t-51.5 -2h-20t-19 2q-6 0 -15 1t-13 1l-2 31q-10 123 -13.5 274.5t-3.5 301.5v25v7v7.5v23.5q-23 -98 -44 -198.5t-42 -188.5l-53 -236q0 -6 -2 -16t-2 -14l-31 4h-20h-31.5t-36.5 -2 h-37h-49.5t-38.5 4q-4 0 -8 1t-6 1l-12 27q-14 47 -32 125.5t-38 179.5l-39 172v-37q0 -35 -1 -70t-1 -67v-107q0 -74 -1 -136.5t-5 -92.5q0 -6 -1 -14.5t-1 -12.5l-29 -2q-20 -2 -48 -3t-57.5 -2t-58 -1h-51.5z" />
<glyph unicode="N" horiz-adv-x="1019" d="M92 -8v1413h309l250 -856v139q0 96 2 212t3 222.5t3.5 190.5t2.5 121h268q0 -27 -1 -103t-1 -181.5t-1 -231t-1 -252.5q-2 -299 -2 -662h-355q-57 180 -104 330q-20 63 -39.5 126.5t-36 116t-28 89t-13.5 49.5q0 -39 2 -90.5t3 -109.5t3 -120.5t4 -120.5q4 -137 7 -284z " />
<glyph unicode="O" horiz-adv-x="1261" d="M82 770q0 82 7 149.5t24 127.5q14 57 55 126.5t106.5 131t154.5 103.5t202 42q109 0 185.5 -34t130.5 -87t91 -120t66 -130q29 -66 52.5 -158t23.5 -186q0 -90 -30 -179t-58 -167l-7 -16q-27 -66 -57.5 -130.5t-87.5 -117.5q-76 -72 -170 -112t-188 -40q-61 0 -107 15 q-106 33 -177 100.5t-115 147t-64.5 161.5t-26.5 148q-4 53 -7 109.5t-3 115.5zM342 774q0 -72 10 -134t24.5 -110.5t30 -80t23.5 -39.5q27 -35 73 -53.5t89 -18.5q66 0 114 38t80.5 92t52 113.5t25.5 102.5q4 20 6 40.5t2 41.5q0 41 -16 110.5t-52 136t-91.5 116 t-132.5 49.5q-63 0 -108.5 -43t-74 -105.5t-42 -132.5t-13.5 -123z" />
<glyph unicode="P" horiz-adv-x="1110" d="M92 16q0 98 3 246t7 309.5t9.5 323.5t9.5 291t7 210t5 81l72 2q39 2 89 2h99q113 0 230.5 -22.5t215 -77t159 -145.5t61.5 -230q0 -154 -91 -268.5t-239 -174.5q-35 -14 -80 -23.5t-91 -15.5t-89 -10t-74 -4q0 -12 -1 -25.5t-1 -25.5q0 -29 1 -56.5t1 -54.5l-2 -379 l-49 -4q-12 -2 -30.5 -2h-34.5h-70h-30.5t-31.5 -2h-55v55zM418 848q113 4 194.5 35t106.5 90q4 12 7 32.5t3 41.5q0 49 -29.5 76.5t-72.5 43t-90.5 19.5t-81.5 4h-25l-6 -160q-2 -49 -5 -89q-2 -24 -1 -53q-1 -19 0 -40z" />
<glyph unicode="Q" horiz-adv-x="1343" d="M82 696q0 92 28.5 181.5t57.5 164.5l8 17q27 72 59.5 134t90.5 116q78 72 174 110.5t192 38.5q43 0 88 -3t82 -9q113 -31 185.5 -97.5t116.5 -146.5t62.5 -164t24.5 -149q4 -55 7.5 -111.5t3.5 -115.5q0 -88 -8.5 -168t-35 -153t-76.5 -138.5t-136 -122.5l6 -8v2 q14 -18 36.5 -45t42 -56.5t34 -59.5t14.5 -52q0 -35 -38 -70t-147 -78l-22 6q-49 68 -93 132.5t-89 136.5q-29 -4 -53.5 -4h-55.5q-111 0 -188.5 33.5t-133 87t-92.5 119t-67 130.5q-31 66 -54.5 158t-23.5 184zM354 717q0 -86 12.5 -159t29 -129t32.5 -92t27 -46 q29 -37 78 -60.5t98 -27.5l-27 61q-23 41 -47.5 90t-40.5 78q41 18 71.5 25.5t67.5 13.5q23 4 52.5 9t58.5 12q33 -49 50.5 -78t29.5 -52l28 -57q140 125 158 301q2 16 2 30.5v31.5q0 16 -1 33.5t-1 33.5v64q-12 57 -44 123.5t-83 123t-119.5 94.5t-152.5 38h-19 q-68 -10 -116.5 -60.5t-80.5 -119t-47.5 -144.5t-15.5 -137z" />
<glyph unicode="R" horiz-adv-x="1099" d="M92 289q0 57 2 152.5t5 206t6.5 228t7.5 224.5q2 63 4 121.5t3 105.5t2 81t1 46q39 6 88 12.5t101.5 11.5t104.5 7t99 2q92 -2 178 -14.5t176 -51.5q43 -18 74 -58t52.5 -89t31.5 -102.5t10 -102.5q0 -115 -41 -194.5t-101 -133t-125.5 -82t-115.5 -43.5q16 -23 31.5 -42 t30.5 -35q8 -10 16 -21.5t2 -5.5l8 -10q39 -51 80 -109.5t79 -117t73 -115t63 -103.5l29 -43l-2 -4l-354 -12l-25 20q-29 23 -50.5 57t-35.5 62l-14 27v-2q-20 37 -38 64.5t-35 53t-36.5 54t-46.5 67.5l-10 19l-39 55l-6 8v-121.5t-1 -125t-2 -109.5t-3 -76q0 -10 -1 -25.5 t-1 -19.5h-273v144q0 31 -1 64.5t-1 74.5zM387 889h62q59 0 103 16.5t72.5 42t43 57t14.5 60.5q0 55 -30.5 88t-100.5 33h-14q-20 0 -32.5 1t-23.5 3q-10 2 -19 2h-20h-16q-4 0 -11 1t-22 1h-2v-55.5t-1 -57.5q0 -45 -0.5 -95t-2.5 -97z" />
<glyph unicode="S" horiz-adv-x="983" d="M41 186l174 246q4 -2 10 -2q4 -2 9.5 -2t9.5 -4v2q10 -10 36.5 -31.5t63.5 -43t79 -39t83 -17.5q39 0 74.5 24.5t35.5 71.5q0 37 -19 70t-50 63.5t-70 57t-76 51.5q-166 104 -242.5 208.5t-76.5 221.5q0 96 36 172t96 128t139 79.5t165 27.5q6 0 13.5 -1t13.5 -1h24 q70 -4 139.5 -39.5t127.5 -76.5q68 -49 127 -111l-205 -219l-41 41q-47 47 -101.5 70.5t-103.5 25.5q-57 0 -90 -30.5t-33 -86.5q0 -53 35 -86t117 -82q68 -41 139.5 -87t129.5 -103t96 -128t38 -159q0 -76 -33.5 -151.5t-94 -137t-143.5 -99.5t-181 -38h-15 q-63 0 -113.5 11.5t-95.5 33t-88 53t-90 72.5l2 -2z" />
<glyph unicode="T" horiz-adv-x="1118" d="M41 1120l2 307h92q37 0 89 1.5t108.5 2.5t115 1h107.5q33 0 58.5 -1t48.5 -1h69q26 -1 52 -1h26q39 1 74 1q29 2 62.5 4t74.5 2h55l2 -52v-106q0 -8 -1 -17.5t-1 -19.5v-59l2 -58h-55q-10 0 -22.5 -1t-22.5 -1h-45q-10 0 -20.5 1t-20.5 1h-39h-101t-89 -2 q0 -29 -1.5 -72.5t-1.5 -103.5q0 -115 -2 -257t-3 -273t-3 -230.5t-4 -126.5v-45l-45 -4q-20 -4 -42.5 -4h-45.5q-33 0 -63.5 1t-57.5 3q-10 0 -27.5 1t-23.5 1v51q0 66 1 154t3 185.5t5 198.5t5 196q4 111 6.5 190.5t2.5 130.5q-37 0 -92.5 1t-106.5 1h-125z" />
<glyph unicode="U" horiz-adv-x="1148" d="M92 754v67v61.5t1 111t1 135t1 135t3 110.5t4 62h35q16 0 32.5 1t33.5 1q18 0 59 -3t76 -5q6 0 9 -1.5t8 -2.5t14.5 -1h25.5v-231q0 -90 1 -193.5t3 -194.5t4.5 -157.5t4.5 -83.5v2q12 -92 28.5 -141t32.5 -71.5t33.5 -25.5t32.5 -3q37 0 68.5 17t58 46t46 66t33.5 75 q8 20 10.5 44t4.5 53l6 57q0 6 1 35t2 73t2 99t1 115q0 66 2 132t3 125.5t3 105.5t4 69l269 12q2 -23 4 -85t2 -130q0 -197 -4 -334t-13.5 -236.5t-25 -170t-35.5 -134.5q-59 -184 -167 -276t-237 -92q-10 0 -35.5 1t-53 4t-52 7t-37.5 8q-90 31 -145 93.5t-87 137 t-45.5 154.5t-17.5 146q-4 49 -6 103t-2 108z" />
<glyph unicode="V" horiz-adv-x="1015" d="M41 1440l276 -4q6 -74 21.5 -188.5t37 -247t46 -270.5t47.5 -255q20 76 46 178.5t49.5 200.5t42 179t24.5 114q2 16 6 29.5t8 27.5q16 51 22.5 96.5t16.5 90.5l10 49h281l-4 -39q-16 -102 -43 -234.5t-59.5 -275.5t-67.5 -284.5t-65.5 -260.5t-54.5 -205t-34 -114l-6 -21 l-23 -2q-27 -2 -52 -3t-50 -1q-53 0 -103.5 3t-111.5 7l-29 2l-4 29q0 4 -4 25.5t-10 54.5t-13.5 71.5t-15.5 79.5q-29 152 -48 254.5t-32.5 176t-21.5 130t-17 115.5q-2 10 -10 65.5t-18 129.5t-20.5 154.5t-16.5 142.5z" />
<glyph unicode="W" horiz-adv-x="1630" d="M41 1440l278 -10q4 -18 9.5 -61.5t11.5 -95.5t12 -105.5t13 -88.5l32 -192q18 -109 35 -213.5t37 -198.5q43 164 77 305.5t59.5 252t42 185t22.5 105.5l24 117l244 -10l18 -179q4 -47 10.5 -92t12.5 -80l33 -192q18 -109 34.5 -213.5t36.5 -198.5q20 76 46 178.5 t49.5 200.5t42 179t24.5 114q2 16 6 29.5t9 27.5q16 51 22 96.5t16 90.5l11 49h280l-4 -39q-16 -102 -42.5 -234.5t-59.5 -275.5t-68 -284.5t-65.5 -260.5t-54 -205t-33.5 -114l-7 -21l-22 -2q-27 -2 -52.5 -3t-50.5 -1q-35 0 -67.5 2t-67.5 4l-108 6l-4 29q0 4 -4.5 25.5 t-10.5 54.5l-13 71.5t-15 79.5l-54 275q-23 -94 -45 -179t-40.5 -155t-33 -118t-20.5 -68l-6 -21l-23 -2q-27 -2 -52 -3t-50 -1q-35 0 -67.5 2t-67.5 4l-109 6l-4 29q0 4 -4 25.5t-10 54.5t-13.5 71.5t-15.5 79.5q-29 141 -48 242.5t-32.5 174.5t-21.5 123t-12 91l-5 45 q0 10 -8 65.5t-19 129.5t-21.5 154.5t-16.5 142.5z" />
<glyph unicode="X" horiz-adv-x="1576" d="M35 1397l16 14q18 -1 46 -1h30q49 1 115 1q53 0 98 -2q15 -1 29 -1q28 0 51 3q100 -104 200.5 -218t196.5 -237q37 47 73 96.5t73 98.5l16 23l61 100q29 47 50.5 79.5t44.5 61.5q23 -4 39 -2t26 2h96q17 -3 44 -3q14 0 30 1t32 1q30 0 56 -3q-12 -16 -43 -61t-67.5 -99.5 t-72.5 -106.5t-56 -81q-39 -57 -80 -116.5t-66 -90.5q-25 -35 -45 -60.5t-47 -56.5q53 -63 108.5 -125.5t108.5 -121.5l348 -463l-2 -21q0 -2 -24.5 -2t-53 1t-54.5 2l-26 1l-75 2q-16 0 -53 -2q-12 -1 -24 -1q-24 0 -48 3l-23 25l-82 88q-41 47 -74.5 91t-66.5 83 q-43 53 -82 99t-78 91l-14 13l-160 -199l-35 -43l-6 -6l2 2q-10 -16 -40.5 -57t-65.5 -84t-64.5 -77t-40.5 -34h-100q-18 0 -47 -1t-56.5 -1h-48t-22.5 2l-14 12l247 320l60 74q35 39 65 77q14 20 28.5 39t29.5 41q27 39 47 71t49 69q-23 25 -41 52t-29 44q-29 43 -91 120.5 t-135 166t-144.5 171t-118.5 136.5z" />
<glyph unicode="Y" horiz-adv-x="1193" d="M10 1405q41 18 71 24.5t69 12.5q20 4 49.5 9t58.5 11q23 -35 47.5 -86t44.5 -100l39 -82q6 -14 16.5 -33.5t16.5 -34.5v2q29 -55 58.5 -111t62.5 -104q41 80 78.5 150t75.5 134.5t77 126.5t84 128q41 0 78 -2t47 -2q45 0 66.5 1t27.5 1l107 2q-49 -76 -102.5 -164 t-102.5 -175t-93 -170t-77 -148q-12 -27 -26.5 -53.5t-26.5 -55.5l-45 -78q2 -135 2 -258v-205v-139l-47 -4q-41 -6 -88 -6h-82q-10 2 -18.5 2h-16.5l-53 2v166q0 37 -1 78t-1 82v157.5t2 163.5q-43 59 -83 121.5t-75 124.5q-10 16 -23.5 45t-30 63.5t-35 74.5t-34.5 79 q-16 35 -32.5 72t-33 71.5t-30 62.5t-21.5 44z" />
<glyph unicode="Z" horiz-adv-x="1196" d="M51 39l76 131q23 37 42 73t36 58q18 27 36.5 59.5t37 67.5t35 67.5t26.5 59.5q35 78 84 162t96 160h-2l19 28q10 16 17 30.5t17 31.5q10 23 24.5 46t31.5 52q12 18 24.5 40.5t22.5 45.5q-8 0 -14.5 1t-10.5 1q-61 6 -112 6q-33 0 -70 -3t-72 -7q-37 -4 -72.5 -6t-70.5 -2 h-143v94q0 6 1 12t1 15q0 12 -1 25t-1 28q-2 14 -3.5 28.5t-1.5 30.5v41.5t5 38.5q37 2 88 3l102 2t97 1h77q59 0 128 -2t134 -6l123 -6q6 2 14.5 2h12.5t7 -1t7 -1h14q2 0 4.5 1t8.5 1q8 0 19 1t24 3l67 6q16 0 32.5 -6t16.5 -22q0 -12 -14 -53.5t-35.5 -95.5t-46 -112.5 t-43.5 -103.5q-8 -16 -17 -37.5t-16 -40.5q-47 -74 -98 -162t-92 -168v2l-16 -30q-43 -86 -93.5 -181.5t-97.5 -173.5l45 9q70 12 135.5 22t108.5 12q4 0 17.5 1t29.5 4q25 2 57.5 5t65.5 5t62.5 3t49.5 1q45 0 51 -28q5 -21 5 -42v-14q0 -6 -1 -11t-1 -12v-6l-2 -10 q0 -4 1 -6t1 -4l-2 -164l-228 -4q-10 0 -21 -1t-22 -1h-59q-59 0 -119.5 -4t-116.5 -9q-47 -4 -96 -8t-96 -4h-33q-6 0 -9 -1t-9 -1q-8 -2 -17.5 -2h-17.5h-14.5t-12.5 2q-4 0 -9 2t-7 2h-37q-10 0 -19.5 -1t-19.5 -1q-27 0 -56.5 5t-68.5 26z" />
<glyph unicode="[" horiz-adv-x="585" d="M152 -29v186.5v245v273.5t1 272t1 239.5v175.5v81q0 27 -1 53.5t-1 48.5v19v22h182l215 -4q6 -23 8 -41t2 -37q0 -20 -1 -38.5t-1 -41.5l-10 -2q-29 0 -71 -2t-87 -4l4 -1564q0 -29 -2 -71t-4 -85q82 0 141 -6l23 -2v-23q0 -31 2 -54.5t2 -51.5v-23l-23 -2q-18 0 -66 1 t-95 1q-23 0 -41.5 -1t-34.5 -1q-35 0 -66.5 1t-72.5 1l-4 338v96z" />
<glyph unicode="\" horiz-adv-x="487" d="M31 1563v22h22h127h23l4 -22q4 -29 9 -59.5t13 -67.5q4 -18 16.5 -95t30 -192t39 -256t43 -287.5t43 -288t38 -255t27.5 -190.5t13 -95l31 -236q-35 -4 -63.5 -5t-63.5 -1q-12 0 -24.5 1t-26.5 1l-17 14q-4 39 -14 91.5t-18 111.5l-228 1583q-6 74 -15 127.5t-9 98.5z " />
<glyph unicode="]" horiz-adv-x="593" d="M31 -383q0 18 1 37.5t1 42.5l10 2q29 0 71 2t87 4l-4 1565q0 29 2 70.5t4 84.5q-39 0 -76 1t-66 6l-22 2v22q0 31 -2 54.5t-2 52.5v22l22 2q18 0 66.5 -1t95.5 -1q23 0 40 1t36 -1h139l4 -338v-96v-186.5v-245.5v-274.5t-1 -271.5t-1 -238.5v-175v-81.5q0 -27 1 -54 t1 -50v-16v-23h-182l-215 4q-6 20 -8 39t-2 39z" />
<glyph unicode="_" horiz-adv-x="946" d="M-18 -143l14 14h18q37 0 84 3t101 3h419h74t92 -1t89 -2t65 -3l23 -2v-23q0 -39 2 -83t2 -85v-22l-23 -2h-35t-94 -1t-136 -1t-157 -1t-156.5 -2t-138.5 -1l-231 4q-8 41 -10 70.5t-2 62.5v72z" />
<glyph unicode="`" horiz-adv-x="579" d="M82 1491v4q0 2 10 8q4 -2 7 2t7 4t11 7q2 2 19.5 13t41 23.5t47 22.5t37.5 10h6l144 -258q23 -29 35 -49.5t18 -35.5t9 -26.5t9 -23.5l13 -45l-15 -19l-55 -28q-10 0 -28.5 9t-59.5 32q-57 47 -97 85t-70 76.5t-50.5 83t-38.5 105.5z" />
<glyph unicode="a" horiz-adv-x="1036" d="M51 53l12 41q12 31 20.5 67t14.5 72q4 23 9.5 50.5t15.5 62.5q8 43 24.5 111.5t38 153.5t45 178.5t45.5 185.5q53 215 119 459q10 0 54.5 -1t93.5 -1h127q12 -37 29.5 -108t38 -164t43 -202.5t46.5 -224.5q18 -88 38 -176t38.5 -172t35.5 -162t34 -141l12 -51l-51 -8 q-41 -8 -80 -10.5t-70 -2.5q-20 0 -42.5 1t-36.5 3q-6 0 -16.5 1t-14.5 1l-10 31q-10 31 -21.5 79t-22 100.5t-18.5 101.5t-14 82h-26.5t-24.5 -2h-64q-12 0 -16 -1t-15 1q-20 -76 -26 -162l-6 -78l-15 -150l-80 -2q-10 0 -18 -1t-14 -1h-33q-35 0 -74 3t-80 20 q-8 2 -23.5 8t-21.5 8zM461 682h8q8 0 16.5 1t18.5 3t23.5 3t27.5 1q-4 47 -11 103.5t-22 160.5q-16 -80 -32.5 -151.5t-28.5 -120.5z" />
<glyph unicode="b" horiz-adv-x="1028" d="M90 1384q35 4 47.5 5.5t22.5 1.5q27 2 54.5 4t80.5 2h24q20 0 50 1l60 2t57.5 2t43.5 1q43 -4 101.5 -24.5t112 -71t90 -134t36.5 -212.5q0 -68 -15 -128.5t-56 -115.5q88 -49 128 -124t40 -183q0 -115 -30 -189t-73 -117t-91 -61.5t-83 -24.5q-14 -4 -51 -7t-83 -6 t-96 -5t-89 -4q-25 -2 -51.5 -3t-49 -1h-38h-17.5h-26.5t-32.5 2q-18 0 -37 2v63q0 29 1 64t1 70q0 66 -1 131t-7 96q-8 43 -9.5 99t-3.5 116v49.5t-2 46.5v19v28.5t-2 38.5v22.5t2 22.5q-2 8 -2 18.5v18.5v68v84q-2 18 -2 40.5v38.5v25v48.5t-2 53.5q0 29 -1 68t-1 59z M340 1053q0 -16 2 -43t4 -45q4 -18 4 -41v-43q2 -8 2 -20.5v-22.5q47 0 100.5 4t88.5 16q18 18 25 47t7 60q0 84 -48 121.5t-171 41.5q-2 -33 -14 -75zM367 561l6 -69q6 -66 10 -107t4 -76h57q45 0 87 3t73 15.5t49.5 37t18.5 69.5q0 43 -16.5 68.5t-42 39t-56 17.5t-59.5 4 h-62.5t-68.5 -2z" />
<glyph unicode="c" horiz-adv-x="1175" d="M86 612v84v13q0 59 16 121q18 68 37 128q25 80 78 157t126 137q73 58 162 92q80 30 166 31q10 0 21 -1q45 0 98.5 -10t107.5 -31.5t104.5 -56.5t89.5 -82q-4 -4 -7.5 -10t-7.5 -13q-14 -16 -25.5 -31.5t-21.5 -31.5q-8 -14 -11 -20.5t-15 -22.5l-13.5 -13.5t-11.5 -13.5 l-29 -32q-20 31 -52 54t-68.5 36.5t-73.5 17.5q-15 2 -29 2q-21 0 -41 -4q-53 -10 -89 -31.5t-56 -38.5q-29 -29 -55.5 -79t-46 -108t-31 -115.5t-11.5 -100.5q2 -57 12.5 -121.5t39 -121t80 -95.5t130.5 -41q98 4 171 27.5t118 54.5l31 -39q6 -10 14 -20t18.5 -22.5 t24.5 -27.5q10 -10 23.5 -24t23.5 -29q12 -16 25 -33q-66 -74 -164 -108.5t-192 -44.5q-29 -4 -55.5 -5t-55.5 -3q-68 0 -133.5 10t-114.5 33q-66 35 -119 91t-92 119.5t-61.5 128t-26.5 119.5v2q0 10 -2 20.5t-2 20.5q-4 41 -4 82z" />
<glyph unicode="d" horiz-adv-x="1134" d="M93 83q3 56 9 118q4 47 7.5 98t3.5 92q0 23 -1 44.5t-1 43.5q-2 29 -4.5 57.5t-2.5 59.5q0 45 3.5 90t7.5 88q4 47 9 100.5t5 106.5v41q0 10 -1 21.5t-1 23.5v16q0 41 1 114t9 144q59 0 99 1t73 6q29 2 56.5 4t60.5 2q31 0 68.5 -3t89.5 -12q76 -12 143.5 -59 t121.5 -106.5t94 -121t58 -100.5q33 -70 43.5 -143.5t10.5 -144.5q0 -29 -1 -57.5t-3 -55.5q0 -10 -1 -22.5t-1 -18.5q-4 -55 -26 -117.5t-57.5 -124t-85 -117t-108.5 -94.5q-41 -27 -106.5 -42t-138 -22t-141.5 -9t-114 -2h-110q-31 0 -62 2q-8 33 -8 74q0 12 1 25z M383 719q0 -49 1 -98.5t3 -96.5t3 -95t1 -97v-58h19q59 2 111 10.5t85 18.5q45 20 80 62.5t58.5 93.5t35 102t11.5 88q0 70 -19.5 129.5t-48.5 107.5t-62.5 81.5t-64.5 52.5h2q-29 10 -87 16t-124 8q-4 -39 -4 -87v-91v-147z" />
<glyph unicode="e" horiz-adv-x="894" d="M92 575q0 123 4 248t8 236q4 82 6.5 158.5t2.5 130.5l12 32q37 -2 98.5 -2h118.5h86q92 0 181 -1t157 -5q10 0 22.5 -1t16.5 -1v-41q0 -23 1 -43t1 -45q2 -23 2 -50.5v-49.5v-41l-39 -2q-23 -2 -55.5 -2h-59.5h-114q-29 0 -59.5 1t-63.5 1h-33q0 -29 -1 -71t-2 -87 t-1 -88v-74q4 -2 12 -2h38t42 2q27 2 54.5 3t56.5 1h54.5t47.5 -4q6 0 19.5 -2t17.5 -2l10 -41q2 -6 2 -24q0 -6 -1 -12.5t-1 -12.5v-33q0 -18 -2 -32.5t-6 -30.5q0 -6 -2 -15.5t-2 -15.5l-2 -41h-39h-33h-58.5t-56.5 2q-23 2 -44 3t-44 1q-16 0 -32.5 -1t-33.5 -3 q-2 -23 -1.5 -42t1.5 -40v-157h71t77 -3q55 -2 113.5 -3t112.5 -1h47l10 -100v-174h-45q-23 0 -47.5 1t-50.5 1h-193q-20 0 -40.5 -1t-41.5 -1h-82h-81t-74 2h-41v14q0 6 -1 12.5t-1 12.5q-4 45 -11.5 177t-7.5 359z" />
<glyph unicode="f" horiz-adv-x="954" d="M98 786q0 223 7.5 360.5t11.5 182.5q0 4 1 13.5t1 17.5v18h123q23 0 47 1t51 1t51.5 -1t46.5 -1h271q27 0 51 1t47 1h51l-6 -61v-227h-57q-68 0 -137.5 5t-131.5 11q-16 0 -41.5 -1t-44.5 -1h-43v-182q0 -23 -1 -35t1 -41h19q25 0 48 1t48 3q29 0 59.5 2t63.5 2h49l49 -2 l2 -47l2 -27q4 -14 6 -30.5t2 -36.5v-25q0 -4 1.5 -9t1.5 -9v-9.5t-5 -15.5l2 2l-10 -45l-43 -4q-20 -2 -47 -2h-53h-56.5t-52.5 2h-80h-2q-2 -53 -2 -96t2 -85t4.5 -87t4.5 -105q0 -10 -1 -19t-1 -20v-36q0 -29 1 -45.5t1 -26.5v-78h-115h-91t-77 -2l-8 35q0 53 -2 130 t-6 159q-4 104 -8.5 226t-4.5 238z" />
<glyph unicode="g" horiz-adv-x="1138" d="M82 682q0 41 6 94t15.5 107.5t22.5 105.5t28 86q20 63 57 121.5t90 104t122 73t152 27.5q309 0 426 -316l-43 -22q-25 -8 -51 -19q-23 -10 -53.5 -21t-65.5 -28q-29 41 -65 74q-31 29 -75 52.5t-97 23.5q-16 0 -48 -10.5t-64.5 -53.5t-56.5 -130t-24 -240 q0 -82 13.5 -158t40 -134.5t65.5 -94t88 -35.5q76 0 124 23.5t75 55t37 64.5t12 51q-12 0 -42 -1t-58 -1h-74v119v90q0 27 2 55q41 6 72.5 9.5t65.5 5.5t74 2h97q16 0 33.5 -1t34.5 -1q18 -2 35 -2v-41q0 -16 1 -37t1 -39q0 -31 1 -65.5t1 -63.5q0 -45 -10.5 -113.5 t-47.5 -160.5q-41 -61 -96 -109.5t-115.5 -80.5t-123 -49t-113.5 -17q-63 0 -111.5 16t-85.5 40.5t-63.5 52.5t-44.5 50q-39 49 -70 112.5t-51.5 134.5t-31.5 145.5t-11 148.5z" />
<glyph unicode="h" horiz-adv-x="1173" d="M92 606l8 561q0 16 -1 33t-1 39q-2 20 -2 44v40v34.5t4 49.5q33 4 54.5 4h42.5h51q18 0 24 2q8 0 21.5 -1t28.5 -1q16 -2 34 -2q4 -90 4 -187.5v-174.5v-106.5t2 -96.5h142q18 0 28.5 1t18.5 1h57q10 0 18.5 -1t18.5 -1h25q27 0 55.5 -1t56.5 -3h13v80q2 57 3 111t1 114 q0 29 -1 56.5t-3 55.5v144h31.5t45 -1t44 -2t30.5 -1h55q20 0 46 2l28 -31q-2 -35 -2 -72q-2 -33 -2 -72.5v-80.5q0 -49 1 -93t5 -67q0 -10 -2 -36.5t-4 -49.5q0 -14 -1 -30.5t-3 -26.5v-82q0 -16 -1 -31.5t-1 -32.5q0 -25 2 -50.5t6 -55.5v-160q0 -41 1 -87t3 -95 q2 -53 3 -122t1 -122q-25 -2 -58.5 -3t-70.5 -2t-73.5 -2t-69.5 -1q0 166 1 322v60q0 119 -3 218q-31 0 -55.5 -1t-57.5 -1q-35 -2 -67.5 -2h-61.5t-67.5 1t-73.5 1q-16 2 -29.5 3t-23.5 1q8 -119 9 -241t1 -234v-66v-23.5t-4 -23.5q-5 -10 -15 -14q-4 -1 -8 -1q-9 0 -22 5 h-6q-10 0 -14.5 1t-8.5 5h-24q-8 0 -15.5 -1t-13.5 -1h-33l-115 -4q0 6 -1 25.5t-1 25.5q-2 23 -2 49.5v46.5v29z" />
<glyph unicode="i" horiz-adv-x="516" d="M92 39l2 1352h50t46 -2q23 -2 52.5 -3.5t58.5 -1.5q8 0 15.5 1t13.5 1h65l29 -38v-113q0 -31 -1 -61.5t-3 -63.5t-4 -66.5t-2 -66.5v-96q0 -29 1 -67t1 -75q0 -70 -4 -143.5t-11 -151.5q0 -8 -1 -19t-1 -17q-4 -33 -4 -75t-2 -93t-3 -119t-3 -131l-145 -2h-49 q-4 0 -9.5 -1t-11.5 -1q-11 -1 -21 -1q-17 0 -33 4q-26 7 -26 50z" />
<glyph unicode="j" horiz-adv-x="851" d="M29 139l170 238q23 -53 48 -72.5t44 -19.5q18 0 40.5 5t43 19.5t36 38t19.5 58.5q2 27 7 61.5t9.5 70t7.5 69.5t3 61l-29 600q-2 16 -2 36.5v36.5v109h82h21.5t21.5 -2q8 0 25.5 1t41.5 1q29 2 70 4t51 2q2 -33 3 -79t1 -81v-67.5t2 -67.5q2 -53 4.5 -78.5t6.5 -35.5 q2 -8 3 -16.5t1 -33.5v-69q0 -27 -1 -56.5t-1 -58.5v-158q-6 -59 -10 -112q-4 -45 -6.5 -91t-2.5 -71q0 -47 -12 -92t-30.5 -85t-42 -74t-48.5 -54q-25 -18 -59.5 -33.5t-73.5 -28t-76 -18.5t-67 -6q-70 0 -151 31.5t-150 117.5z" />
<glyph unicode="k" horiz-adv-x="1224" d="M90 1403v35h35q80 -4 132 -4h31q29 1 49.5 1t31.5 -1l53 -7l2 -165v-67v-48.5t1 -46t1 -58.5l31 39q14 20 21 29.5t12.5 16t11.5 15.5t20 29l80 95q10 14 28.5 35.5t38 45t39 46t29.5 39.5l11 6h372l-28 -49q-29 -49 -95.5 -134.5t-143.5 -179.5t-151.5 -182t-123.5 -143 q23 -29 52 -62t57 -63.5t52.5 -56t36.5 -38.5q104 -104 198.5 -230t196.5 -243l43 -57l-2 -4h-393l-10 16q-2 6 -15.5 22.5t-29.5 35t-32.5 37t-24.5 30.5q-6 6 -12.5 14.5t-28 36t-67.5 85t-132 161.5l-55 78q-2 -25 2 -38t4 -36q0 -49 5 -100q4 -36 4 -71q0 -14 -1 -27 l-6 -258h-126t-108 2l-73 2l-2 78q-2 79 -5.5 205t-5.5 284t-5 315.5t-4 299t-1 235.5z" />
<glyph unicode="l" horiz-adv-x="864" d="M90 39v40.5v77t1 144.5t2 242.5t3 372t6 532.5q29 0 66 1t49 1h8q29 0 70 -2t63 -4q12 2 20.5 2h12.5q8 0 15.5 -1t19.5 -1q0 -104 -5 -201.5t-10 -191t-10.5 -187.5t-5.5 -192q0 -68 2 -147t2 -146v-74q43 2 95.5 3t103.5 1q27 0 49.5 -1t38.5 -1h32.5t45.5 2q26 0 59 2 q0 -49 -5 -92t-5 -123q0 -16 1 -30.5t1 -40.5q-23 0 -60.5 1t-66.5 1q-14 0 -40.5 -3.5t-63.5 -3.5q-8 0 -46 1.5t-81 3.5t-79 3t-42 1q-10 0 -20.5 -1t-20.5 -1q-45 6 -70.5 8t-45 2h-38t-51.5 2z" />
<glyph unicode="m" horiz-adv-x="1509" d="M94 1234q0 77 2 112l2 24q4 0 12.5 2t12.5 2q47 8 72.5 10t46.5 2q20 4 37.5 3.5t37.5 -5.5q18 -4 39 -2t54 -2l18 -2l4 -8q23 -39 43.5 -87t38.5 -107l191 -525l49 -125l49 127l274 768v-2l174 4h45q24 2 46 3h9q17 0 35 -3q4 -35 8.5 -77.5t4.5 -77.5q2 -41 2 -81v-81 q0 -86 6 -174t6 -162q0 -35 -2 -69.5t-2 -69.5q-1 -42 -1 -84q0 -64 2 -132q3 -112 5 -218l2 -199h-78q-45 0 -89 1t-85 5l-28 2q0 4 -1 12.5t-1 14.5q-4 31 -5.5 93t-1.5 136v107q0 33 -1 67.5t-1 69.5v37l-10 139l-2 39l-250 -666l-4 -20h-4q-8 -2 -18 -2q-10 -2 -23.5 -2 h-32.5l-37 -2q-23 -2 -38 -1t-25 3t-18 2l-2 2h-3l-4 16l-254 639v-2q2 -18 2 -23.5v-7.5v-7t3 -25q4 -155 6 -311q1 -52 1 -101q0 -98 -3 -184l-2 -31q-4 0 -13.5 -2t-15.5 -4q-8 -2 -18.5 -2h-20.5q-48 0 -104 -2h-18q-48 0 -99 8l-4 37q2 27 2 84t-1 134t-3 168t-4 187 q-4 115 -7.5 231.5t-5.5 218t-2 178.5z" />
<glyph unicode="n" horiz-adv-x="1087" d="M94 758q-1 21 -1 43q0 56 4 119t4 125q0 25 -1 49q-2 41 -2 80.5v80.5q0 35 3 79t8 79q21 3 43 3q10 0 22 -1q17 -1 34.5 -1t35.5 1v-2h174v2l282 -751v8t2 22v117q0 6 1.5 18.5t1.5 21.5v13t0 -4v299q-2 43 -2 81q0 28 1 52q1 22 1 42q0 33 -3 63l5 8l18 2q33 4 53.5 5 t38.5 1q4 0 13.5 -1t13.5 -1q20 0 45.5 -1t73.5 -5q4 0 12 -1t12 -1l4 -25q2 -37 3 -115.5t1 -183t-1 -224.5t-3 -237q0 -96 -1 -193t-1 -180v-146.5t4 -90.5l-2 -6q-66 -2 -120 -3t-101 -1q-12 0 -18 2q-18 -2 -30.5 -1t-21.5 1h-14l-301 733l-2 -196l2 -37v-138l2 -106 q1 -49 1 -94v-42q-1 -62 -3 -93q0 -6 -1 -14.5t-1 -12.5l-29 -2q-41 -6 -85 -7t-89 -3h-55l-23 -2l-2 198q0 106 2 218q1 37 1 74q0 73 -3 142l-4 70t-2 70z" />
<glyph unicode="o" horiz-adv-x="1282" d="M82 688q0 90 29.5 179t58.5 167l6 17q27 66 57.5 130t88.5 117q76 72 170 112t188 40q61 0 106 -14q113 -33 188 -100.5t121 -147.5t67.5 -163t27.5 -146q4 -53 7 -109.5t3 -116.5q0 -82 -11 -149.5t-40 -126.5q-16 -57 -56 -127t-105.5 -131.5t-155 -103.5t-201.5 -42 q-109 0 -185.5 34t-131 87t-91 118.5t-65.5 131.5t-52.5 158t-23.5 186zM389 649q0 -53 13.5 -122.5t42 -132t73.5 -105.5t109 -43q78 0 133 49t91 115.5t52.5 136t16.5 110.5q0 25 -2.5 51.5t-6.5 51.5q-6 43 -25.5 102.5t-52 113.5t-80.5 92t-114 38q-43 0 -89 -18.5 t-73 -53.5q-8 -10 -23.5 -43t-29.5 -84t-24.5 -116.5t-10.5 -141.5z" />
<glyph unicode="p" horiz-adv-x="1128" d="M92 1319v94q53 2 89 2t73 4q43 0 89 -1t112 -1q12 0 27.5 -1t27.5 -5q6 0 15.5 -1t16.5 -2t11 -2t0 -1q16 -2 35.5 -2h38.5q53 0 108.5 -4t102.5 -27q45 -23 89 -61.5t76.5 -87.5t53 -106.5t20.5 -115.5q0 -152 -41 -241.5t-110.5 -139t-158.5 -64.5t-185 -15h-66 q-16 0 -35.5 1t-40.5 1l-39 4q0 -41 3.5 -88t7.5 -92l6 -117l2 -248q-10 0 -28.5 -1t-24.5 -1h-15h-69.5t-44.5 2q-18 0 -49 1t-60 1q-4 86 -5 168t-1 135v37q0 121 -6 236q-2 53 -4 104t-2 98v51.5t2 40.5q0 10 1 28t1 30q0 41 -4.5 97t-8.5 104q-4 47 -7 96t-3 90z M406 807q35 0 69.5 -2t69.5 -2q57 8 94 27.5t58.5 42t30.5 47.5t9 45q0 18 -2 41.5t-7 46t-12 41t-18 28.5q-55 16 -133 20.5t-143 8.5h-16q0 -23 1 -39t1 -39v-98v-85t-2 -83z" />
<glyph unicode="q" horiz-adv-x="1452" d="M82 772q0 63 6 129t29 131q23 72 76 142.5t125.5 126t160.5 90t180 34.5q23 0 49.5 -1t51.5 -3q10 0 23.5 -1t23.5 -1q139 -8 235.5 -50t159 -103.5t96 -137t50 -153.5t19.5 -149.5t3 -125.5q0 -66 -6 -133t-29 -133q-14 -43 -48 -90t-82 -90t-104.5 -80t-117.5 -61 q8 -16 18.5 -28.5t20.5 -25.5q23 -25 54.5 -70.5t47.5 -82.5q4 -10 11.5 -21.5t7.5 -17.5t-3 -12.5t-7 -12.5q-16 -23 -56.5 -54.5t-128.5 -66.5l-35 9q-57 80 -110 161.5t-105 167.5q-20 -2 -37.5 -2h-35.5q-135 0 -228.5 39t-153 102.5t-93 142.5t-48 159t-17.5 151.5 t-3 120.5zM373 705q0 -45 6 -101.5t24.5 -110t49 -98t79.5 -67.5q8 -4 16.5 -7.5t16.5 -7.5l-61 121q49 23 80.5 30t68.5 13q20 4 51 9.5t60 11.5q33 -47 49 -75t31 -56l20 -37q8 4 15 4q39 14 74.5 62t63 109.5t44 126t16.5 111.5q0 63 -11 137t-42 137.5t-87 105.5 t-149 42q-84 0 -146 -20.5t-89 -40.5q-35 -27 -67.5 -77t-57.5 -107.5t-40 -114.5t-15 -100z" />
<glyph unicode="r" horiz-adv-x="1081" d="M92 961v95t2 97q2 47 3 95t1 98v92q18 10 32.5 14t29.5 4q10 0 18 -1t19 -3q10 -2 17 -3t13 -1h28.5t29.5 2q16 2 31.5 3t33.5 1q80 0 180.5 -11t191.5 -46t153.5 -101.5t66.5 -179.5q0 -90 -31.5 -162.5t-84 -132t-121 -107.5t-140.5 -89q41 -47 81 -89t81 -85 q86 -90 169 -183.5t153 -204.5v-22q-20 -23 -50 -26t-59 -1h-20q-59 0 -124 1t-124 3q-102 94 -178 203l-48 70q-10 16 -14 26.5t-7 17.5t-9 13l-19 19l6 -45q4 -33 8.5 -64t4.5 -65v-52q0 -12 -1 -25.5t-1 -27.5v-27q0 -8 1 -16t1 -14q-16 -23 -33.5 -28t-34.5 -5h-26 q-12 0 -29 -8l-141 12q-29 4 -38.5 25.5t-9.5 38.5v19t2 17q0 6 1.5 13.5t1.5 13.5l-7 344q-4 123 -7 244t-3 244zM383 1167l8 -282l4 -4q16 4 37 5t37 3q29 2 56.5 7t52.5 28q23 23 37 46t14 54q0 41 -23.5 68.5t-57.5 45t-75 25.5t-76 8z" />
<glyph unicode="s" horiz-adv-x="974" d="M41 178l172 187q4 0 10 -3q8 -2 17 -8v2q10 -8 35.5 -28.5t61.5 -41t77 -37t82 -16.5q47 0 79.5 37t32.5 113q0 31 -18.5 57.5t-47 50t-64.5 44t-70 38.5q-168 111 -244 213.5t-76 219.5q0 109 38 186.5t100.5 126.5t145.5 72.5t173 23.5q68 -4 136.5 -38t125.5 -74 q66 -47 127 -107l-172 -172l-66 49q-49 49 -102 71.5t-100 22.5q-31 0 -53.5 -14t-38 -38.5t-22.5 -55.5t-7 -64q0 -49 35.5 -81.5t99.5 -75.5q6 -4 17 -11.5t-1 -1.5q94 -59 170 -110t129.5 -107.5t82 -124t28.5 -159.5q0 -55 -30 -116t-87 -113t-139 -87t-186 -35h-15 q-61 0 -111.5 10.5t-95.5 31t-88 50t-88 68.5q-10 8 -27.5 22.5t-25.5 22.5z" />
<glyph unicode="t" horiz-adv-x="1060" d="M41 1311q0 16 3 39.5t7 52.5l43 16q72 -2 147.5 -4t147.5 -4q141 -6 281.5 -10t283.5 -4q31 0 48.5 -22.5t17.5 -49.5v-45q0 -35 -3 -69.5t-20 -69.5q-35 -16 -89 -17.5t-113 -5.5q-31 -2 -58.5 -2t-46.5 -4q-2 -41 -2 -88v-90q0 -104 1 -207.5t3 -208.5q2 -104 3 -208.5 t1 -209.5v-71l-45 -29q-23 0 -40 -1t-36 -3q-16 -2 -35.5 -2h-35.5q-43 0 -82 8l-27 27q-2 47 -2 99v99q0 84 -2 165t-4 165q-2 74 -3 163t-1 165q0 61 -1 130.5t-7 133.5l-2 -4h-285l-31 33q-8 35 -12 66.5t-4 66.5z" />
<glyph unicode="u" horiz-adv-x="1277" d="M92 670q0 41 1 82t3 82q2 37 2 68.5v64.5q0 78 2 160.5t19 154.5v-2l6 47q4 29 8 61.5t17 51.5v-2q6 12 25.5 17t47.5 5q20 0 45 -2t51.5 -6t50 -9t42.5 -11q0 -82 -5.5 -174.5t-9.5 -176.5q-6 -82 -11 -162.5t-5 -158.5q0 -102 7 -194.5t37 -164t87 -113.5t158 -42 q80 0 127 34.5t70.5 91t30.5 129t7 148.5q0 145 -5 253t-11 206q-4 53 -7 106.5t-5 108.5l-3 76q72 2 141.5 5t135.5 17q4 -37 7 -83t5 -92t3 -89t1 -72q0 -57 3.5 -111t7.5 -112q4 -53 6 -112.5t2 -112.5q0 -164 -44 -312.5t-159 -267.5q-25 -27 -72 -42t-97 -24t-95 -12.5 t-66 -3.5h-71h-24q-56 -1 -112 7q-68 10 -127 43q-68 45 -111.5 115.5t-69 156.5t-36 181t-10.5 192z" />
<glyph unicode="v" horiz-adv-x="1073" d="M41 1417h47q31 2 69 4t64 2q16 0 34.5 -3t45.5 -9q23 -61 38 -114.5t26 -104.5l14 -74q16 -66 32.5 -135.5t32.5 -124.5l19 -59q10 -39 21.5 -74t23.5 -72l31 -102q23 76 44 159t40 158l10 47q4 14 5 26.5t17 55.5q18 59 31.5 126t30.5 126q10 41 22.5 93.5t34.5 101.5 q4 0 17.5 -1t17.5 -1h18q8 0 16.5 1t18.5 1h29q20 0 56 -2t61 -6l24 -35q-35 -172 -79 -352.5t-91 -352.5h2q-18 -70 -37.5 -137t-35.5 -137q-10 -35 -18.5 -69t-14.5 -68q-16 -72 -34.5 -143.5t-51.5 -157.5q-23 -2 -50.5 -2h-46.5h-45h-55q-10 12 -22.5 30.5t-22.5 38 t-18.5 36.5t-12.5 28q-31 74 -54 139t-42.5 128.5t-38 127t-37.5 131.5l-26 104v-2q-12 47 -23.5 89t-27.5 90q-35 111 -67 233.5t-42 261.5z" />
<glyph unicode="w" horiz-adv-x="1693" d="M41 1395l160 2q37 0 76.5 -2t70.5 -6q12 -78 25.5 -142.5t28 -126t32 -123t35.5 -133.5l16 -61l21 -80l24 -94l15 -54l14 74q18 82 35.5 174t33 187.5t29 190.5t25.5 188q47 6 69.5 7t39.5 1q33 0 74.5 -1t76.5 -1q39 -227 91 -443.5t122 -421.5l4 13q16 57 31.5 121.5 t32.5 132.5q27 117 48 207t35.5 160.5t24.5 124.5t17 97q20 8 38.5 8.5t34.5 0.5h50.5h49h56.5h74v-17q-1 -43 -9 -75q-10 -39 -18 -72l-4 -25v2q-29 -135 -61.5 -265t-71.5 -263l-72 -254q-29 -98 -58.5 -210t-51.5 -214q-20 -2 -52 -1t-55 -1h-41h-30.5t-28.5 2 q-10 0 -27.5 1t-21.5 1l-15 55l2 -2l-41 138q-10 29 -19 59.5t-20 58.5l-14 56l2 -2q-4 16 -8 32.5t-10 32.5l-41 111q-12 27 -18.5 41t-10.5 26.5t-10 28.5t-15 47q-6 -31 -12 -56.5t-14 -54.5v3q-12 -57 -25.5 -114.5t-25.5 -117.5l-19 -92v-2q-27 -106 -37 -164 q-2 -4 -2 -18q0 -6 -2 -11l2 7l-12 -62l-57 -2h-60h-27.5t-23.5 2h-2q-16 -2 -36.5 -2t-49.5 4q-37 139 -70.5 264t-69.5 247t-73 246t-78 261l-51 178q-20 59 -30.5 107.5t-14.5 85.5z" />
<glyph unicode="x" horiz-adv-x="1220" d="M31 1309q0 23 16 34t31 17q16 2 47 2t57 -2q10 0 26.5 -1t22.5 -1h19.5t19.5 2q10 0 20.5 1t20.5 1q35 0 62 -8q37 -59 76.5 -121t78.5 -119h2l86 -133l17 39q39 76 80 153.5t100 163.5h25q25 2 52.5 3t49.5 1q78 0 135 -14l25 -27q-23 -74 -62 -145.5t-77 -132.5v2 l-11 -16q-27 -45 -51.5 -89.5t-50.5 -89.5q-16 -31 -30.5 -63.5t-33.5 -65.5q41 -70 81 -134t83 -132q47 -72 91 -140.5t87 -137.5q4 -23 10.5 -27t14.5 -14q12 -18 25.5 -41t13.5 -35q0 -16 -12.5 -27.5t-30.5 -11.5l-201 -4q-35 2 -62.5 4t-54.5 6q-12 20 -28.5 47 t-32.5 49q-25 37 -50.5 76t-35.5 66l-84 131q-49 -92 -103.5 -185.5t-107.5 -177.5l-258 2l-35 13l103 188q66 113 123 211t112 209l-104 174l-283 465q-4 8 -9 17t-5 18z" />
<glyph unicode="y" horiz-adv-x="1105" d="M10 1425l84 -4q72 4 121 5t84 1q33 -49 54.5 -101t37.5 -93q27 -59 50.5 -117.5t52.5 -118.5q23 -43 27.5 -55t8.5 -27l9 -24q29 49 56.5 101t57.5 110l35 74q27 51 59.5 110.5t71.5 120.5q29 6 45.5 3t32.5 -3q29 0 78 -2t121 -4q-49 -139 -112.5 -254t-129.5 -225 q-31 -47 -54.5 -89t-49.5 -90v2l-54 -104q-2 -2 -2 -4q-2 -94 -4 -187.5t-2 -140.5q0 -41 -2 -82t-2 -77l-4 -166l-258 6l-47 4l4 139q0 25 1 69t2 99t2 118.5t1 125.5l-68 151h2q-76 172 -159.5 364.5t-149.5 364.5z" />
<glyph unicode="z" horiz-adv-x="1087" d="M51 6q0 49 18.5 97.5t32.5 82.5l19 41l186 365q72 141 142.5 286.5t142.5 280.5q-31 0 -87 -1t-116.5 -1t-117 -1t-89.5 -1l-4 35v235l230 5q37 4 76.5 4h74.5h146q49 0 110.5 -1t97.5 -3q18 0 44 -2.5t42 -2.5l37 -39l-82 -143l2 2q-10 -18 -20 -37.5t-21 -40.5 q-16 -29 -31.5 -57.5t-31.5 -56.5q-18 -29 -33.5 -54.5t-32.5 -54.5q-59 -123 -110 -238.5t-105 -230.5l-98 -211l-8 -12h98q10 0 22.5 1t24.5 1h54q16 0 32.5 -1t32.5 -1h59q16 0 31 1t31 1q51 0 115 -14l-27 -236l-154 -8q-68 -4 -139.5 -5t-136.5 -1h-35.5t-32.5 2 q-10 0 -27.5 -1t-31.5 -1q-78 2 -148.5 2t-162.5 8z" />
<glyph unicode="{" horiz-adv-x="593" d="M57 520v82q53 27 73 76t20 153q0 16 4 27v563q0 51 22.5 83t56 49.5t72.5 23.5t74 6h170q6 -23 8 -41t2 -37q0 -20 -1 -38.5t-1 -41.5l-10 -2q-29 0 -71 -3t-87 -3l4 -69l-4 -68h-2v-485q0 -102 -30.5 -155.5t-84.5 -78.5q31 -14 53.5 -32.5t38 -44t22.5 -62.5t7 -90 v-150q-2 -31 -2 -68.5v-78.5q0 -78 1 -149.5t-1 -110.5q-2 -37 11.5 -53.5t36 -22.5t51 -6t59.5 -2l22 -2v-23q0 -31 2 -54.5t2 -51.5v-23l-22 -2h-30.5t-47 1t-54.5 1h-50q-80 0 -123 25.5t-63.5 58.5t-23.5 64.5t-3 44.5l-6 75v424q0 45 5 92.5t5 81.5q0 55 -30 78t-75 39 z" />
<glyph unicode="|" horiz-adv-x="489" d="M143 1499v25.5t2 23.5v23h23q29 0 55.5 -1t55.5 -1q8 0 14 1t14 1h23l4 -23q6 -45 7 -106.5t1 -118.5l4 -1470q0 -51 -2 -97.5t-2 -83.5v-22l-12 -15q-23 -2 -42.5 -2h-35.5q-23 0 -46.5 2.5t-51.5 8.5l-9 231v90v178.5v237.5t1 266t1 266v237.5v179.5v91q-2 23 -3 42.5 t-1 35.5z" />
<glyph unicode="}" horiz-adv-x="593" d="M18 1559v22l23 2h29.5t47 -1t54.5 -1h51q80 0 123 -25.5t63.5 -58.5t23.5 -64.5t3 -43.5l6 -76v-424q0 -45 -5 -92t-5 -82q0 -55 30 -78t75 -39v-82q-53 -27 -73 -76t-20 -153q0 -16 -4 -27v-563q0 -51 -22.5 -83t-56 -49.5t-73.5 -23.5t-73 -6h-170q-6 23 -8 41t-2 37 q0 20 1 38.5t1 41.5l10 2q29 0 71 3t87 3l-4 70l4 67h2v486q0 102 30.5 155t84.5 78q-31 14 -53.5 31.5t-38 44t-22.5 63.5t-7 90v150q2 31 2 68.5v78.5q0 78 -1 150t1 110q2 37 -11.5 53.5t-36 22.5t-51 6t-59.5 2l-22 3v22q0 31 -2.5 54.5t-2.5 52.5z" />
<glyph unicode="&#xa1;" horiz-adv-x="520" d="M88 -274q0 72 2 160.5t8 160.5q4 29 4 66v73v25q0 61 5.5 150.5t11.5 187.5l8 82q16 14 31.5 16t25.5 2h17.5t15.5 -2q6 0 10 -1t9 -1q6 0 11 1t9 1h20q25 0 50.5 -2t50.5 -6l24 -25q6 -51 7.5 -106t3.5 -113q0 -35 1 -66.5t3 -64.5q4 -72 6 -147.5t2 -151.5v-51.5 t-2 -50.5q4 -29 5 -66t1 -71v-28.5t1 -30t4 -41t9 -62.5h-60.5t-51.5 2q-23 2 -52.5 2h-58.5h-26h-74l-29 10zM111 901q0 43 18 84q6 14 22.5 28.5t38 25t44 16.5t36.5 6q18 0 46 -9.5t52.5 -27.5t43 -48t18.5 -73q0 -16 -7 -45t-22.5 -56.5t-42 -47t-65.5 -19.5 q-33 0 -65.5 10.5t-58.5 30t-42 51t-16 74.5z" />
<glyph unicode="&#xa2;" horiz-adv-x="933" d="M80 698v20.5t2 18.5q0 66 20 129l-2 -2l17 49q12 39 24.5 75t34 72t58 70.5t96.5 75.5l-2 -2q35 27 74.5 43.5t82.5 24.5l37 4q2 27 3 51.5t5 44.5l5 23h22q8 0 15.5 -1t15.5 -1q6 0 12 1t14 1h23v-23q0 -12 1 -23.5t1 -25.5v-18.5t-2 -18.5q45 0 95 -5t99 -34 q4 -23 5.5 -35t1.5 -30v-37q0 -14 -1 -26.5t-1 -22.5v-21q-12 -33 -23.5 -38t-34.5 -9h4q-31 -6 -64.5 -7t-68.5 -1h-14q0 -141 1 -297t1 -283h31q41 -2 85 -5t101 -19v-48.5t4 -41.5q0 -29 -1 -54.5t-7 -60.5q-53 -29 -106.5 -34t-98.5 -5h-12l-4 -141q-27 -10 -54 -11h-19 t-21 3l-13 14v22q0 27 -2 59t-2 68l-37 7q-61 16 -121.5 39.5t-97.5 56.5q-102 88 -142 190.5t-40 218.5zM358 686q4 -31 10.5 -60.5t18.5 -50.5q20 -43 50 -69.5t63 -40.5l18 -4l4 538q-8 -2 -22 -2q-27 -14 -50.5 -39.5t-41.5 -72.5q-18 -35 -33 -78t-17 -82v-39z" />
<glyph unicode="&#xa3;" horiz-adv-x="1017" d="M59 707v32q0 18 2 42t7 65l98 4v53q-2 23 -3 48.5t-1 41.5v13v18q0 6 2 10l-2 -10v37q0 121 35.5 200.5t94 127t131.5 67t148 19.5q102 0 173 -11.5t151 -36.5l25 -24q-4 -25 -5.5 -47.5t-1.5 -30.5v-14q0 -4 1 -5t1 -6v-47q0 -20 -1 -40.5t-9 -49.5q-31 4 -47 7.5 t-25.5 6.5t-15.5 6l-14 7q-29 10 -61.5 18.5t-84.5 8.5q-35 0 -69.5 -7.5t-62 -25t-46 -48t-18.5 -77.5v-19q0 -23 -1 -51t-1 -57q-2 -29 -2 -42v-42q33 -2 65.5 -1t48.5 1q4 0 8.5 1t8.5 1q10 2 22.5 2h22.5h16q4 0 9.5 -1t11.5 -1h49v-117q0 -12 -1 -26.5t-7 -34.5l-43 -4 q-18 -2 -42 -3t-46 -1h-64q-16 0 -31.5 1t-27.5 1v-27q0 -41 -1 -75t-3 -56q-2 -14 -2 -27.5v-25.5v-15q0 -117 -35 -176l229 15q25 0 59.5 1t73.5 5l70 4t57 2h51l2 -41q-2 -10 -3 -29.5t-1 -40.5q-2 -41 -4 -86t-18 -80l-240 -8q-35 0 -97.5 -1t-133.5 -1q-31 0 -67 -1 t-69.5 -1h-61h-42.5q-6 0 -9 -1t-7 -1q-10 -2 -22.5 -2h-22.5h-20.5t-20.5 2h-45q-2 18 -4 41q-2 18 -3 43t-1 49q0 23 3 50.5t7 56.5q31 0 46 14t23.5 38.5t10.5 59.5t2 78q0 55 1 114.5t1 114.5v5q-16 2 -26.5 2h-22.5h-48z" />
<glyph unicode="&#xa4;" horiz-adv-x="1073" d="M156 616q0 66 20.5 124.5t54.5 107.5l-75 76l75 77l76 -75q47 35 106.5 55t125.5 20q135 0 233 -79l78 77l72 -73l-76 -76q37 -49 57.5 -108.5t20.5 -125.5t-20.5 -125t-57.5 -106l76 -76l-76 -76l-76 76q-100 -76 -231 -76q-66 0 -125.5 20.5t-106.5 55.5l-76 -76 l-71 72l73 76q-37 47 -57 107.5t-20 127.5zM242 616q0 -63 22.5 -117.5t62.5 -94t94.5 -62.5t117.5 -23t117.5 23t94.5 62.5t63.5 94t23.5 117.5t-23.5 117.5t-63.5 94.5t-94.5 63.5t-117.5 23.5t-117.5 -23.5t-94.5 -63.5t-62.5 -94t-22.5 -118z" />
<glyph unicode="&#xa5;" horiz-adv-x="1165" d="M-2 1446q45 4 66.5 5t44.5 1h114q10 0 29.5 1t36.5 5l33 -61q16 -29 33.5 -65t41.5 -89l66 -145l123 -269l170 381q10 18 21 44t22 53q16 35 31.5 69.5t50.5 87.5q18 0 53 -2t72.5 -4t74.5 -4t62 -2l14 -12l-74 -176q-61 -117 -118.5 -236t-110.5 -235l-45 -115 q14 0 27.5 1t23.5 1h47q6 0 10.5 1t8.5 1q10 2 21 2h22h16q4 0 10 -1t11 -1h51v-49v-16.5t2 -18.5t3 -23.5t1 -27.5t-1 -27.5t-7 -36.5l-41 -4q-27 -4 -70 -4h-84h-133q0 -14 1 -24.5t1 -24.5q0 -41 1 -85t3 -99q0 -4 1 -8.5t1 -12.5q0 -14 1 -30.5t1 -34.5q0 -41 -7 -85 t-30 -77l-180 -2q-6 0 -12 -1t-10 -1h-23q-27 0 -63 14v186v80t4 68q0 41 2 67.5t2 67.5h-182q-12 0 -28.5 1t-27.5 1h-49l-10 12q-2 16 -2 35v25l4 117l225 6q-20 53 -34.5 83.5t-30.5 67.5q-16 31 -37 71t-49 99l-15 27q-45 92 -94 195.5t-92 232.5z" />
<glyph unicode="&#xa8;" horiz-adv-x="925" d="M63 1333q0 27 12.5 60.5t34 63.5t51 49.5t64.5 19.5h8q10 0 18.5 -3t22.5 -10q66 -31 94.5 -72.5t28.5 -113.5q0 -33 -14 -57.5t-34.5 -41t-41 -26.5t-35.5 -12q-68 0 -108.5 5t-65.5 46q-4 23 -9 32t-11 16t-10.5 15.5t-4.5 28.5zM530 1305q0 43 8.5 70.5t30.5 66.5 q23 37 44.5 43t76.5 6q31 -4 53.5 -5t32.5 -11q23 -16 37 -28.5t23.5 -28t13.5 -38t4 -55.5q0 -57 -24.5 -88t-30.5 -35q-14 -16 -37 -33.5t-43 -17.5q-78 0 -133.5 44t-55.5 110z" />
<glyph unicode="&#xa9;" horiz-adv-x="1579" d="M115 641q0 100 14 205.5t45 204.5q27 82 79 154.5t128 125.5t172 85t211 32h34.5t35.5 -4h14q123 0 223 -52.5t175 -131t123.5 -174t66.5 -181.5q8 -35 11 -71.5t3 -73.5q0 -96 -19.5 -190.5t-48.5 -178.5q-18 -53 -68 -114.5t-120 -118t-150.5 -97.5t-158.5 -53h-35 q-45 -10 -84 -10q-92 0 -189.5 32.5t-170.5 71.5q-86 43 -141.5 112t-89.5 144.5t-47 150.5t-13 132zM244 799q0 -113 23.5 -227.5t83 -208t160.5 -151.5t255 -58h30.5t28.5 4h15q98 0 179 42t141.5 106.5t99.5 141t53 144.5q12 57 12 121q0 78 -16.5 154.5t-38.5 142.5 q-16 43 -57.5 93t-96.5 95t-120.5 78t-129.5 43h-28q-31 8 -70 8q-74 0 -151.5 -26.5t-137.5 -57.5q-72 -37 -117 -93t-71.5 -118.5t-36.5 -124t-10 -108.5zM436 785.5q-2 41.5 23 111.5q41 121 115.5 191.5t222.5 70.5h50t66.5 -3t57 -10t24.5 -22q0 -8 -2 -15t-2 -17 q0 -6 2 -11l-4 -51l-80 -2q-51 -2 -104 -7t-97 -29.5t-72 -77t-28 -148.5q0 -51 7.5 -106.5t35.5 -102.5q20 -35 45 -55.5t51.5 -30.5t53 -12t53.5 -2q35 0 78 7t65 7h7q2 -8 2 -37q0 -20 -1 -41.5t-6 -34.5q-29 -12 -63.5 -17t-67.5 -5q-45 0 -89 1t-87 10t-83 30.5 t-79 62.5q-55 59 -73.5 127t-18.5 148q0 29 -2 70.5z" />
<glyph unicode="&#xaa;" horiz-adv-x="817" d="M88 673v46q0 6 2 6t8 8l232 8h41.5t67.5 -1t68 -1h42q23 2 42 3t36 1q20 0 34.5 -1t34.5 -1h23v-22q0 -6 -1 -7t-1 -7q0 -16 1 -32t1 -30v-22l-23 -5q-49 -4 -116.5 -6t-128.5 -2l-144 -4q-51 0 -97 2t-83 2h-23l-14 13q-2 29 -2 52zM98 821q4 27 12.5 64t15.5 69.5 t13 57t6 28.5l2 23q4 18 11.5 34.5t9.5 35.5q2 16 17.5 64t33 101.5t30.5 98.5t13 55l2 12h19q41 0 73.5 1t67.5 1q16 0 32.5 -1t32.5 -1h17l4 -10q8 -20 35.5 -94t58.5 -168t59.5 -192.5t41.5 -168.5l2 -18l-183 2l-8 25q-4 14 -7 27.5t-7 29.5q-2 12 -7.5 24.5t-9.5 26.5 l-6 25h-170l-30 -152h-181zM338 1075q16 0 48 1t67 1q-16 57 -33 116.5t-29 100.5l-8 -2q-14 -39 -23.5 -102.5t-21.5 -114.5z" />
<glyph unicode="&#xab;" horiz-adv-x="868" d="M98 539l164 301l84 149h23q29 0 47 -2t47 -2h20l-10 -22q-16 -45 -49 -106.5t-62 -119.5l-104 -198q35 -59 61.5 -112.5t42.5 -82.5l121 -231q-20 -8 -39.5 -10.5t-42.5 -2.5h-49l-18 15q-18 39 -52 91t-63 111zM406 547l120 221q31 57 63 110.5t52 92.5l18 14h50 q23 0 42 -2t40 -10l-121 -232q-16 -31 -43 -84t-62 -112l105 -197q31 -57 62.5 -118.5t47.5 -106.5l11 -23h-21q-29 0 -47 -2t-47 -2h-23l-14 23z" />
<glyph unicode="&#xad;" horiz-adv-x="679" d="M88 657v23l23 2q6 0 13 1t17 1q35 0 73 -2t73 -2q14 0 27.5 1t27.5 1l231 -4q8 -45 10.5 -79t2.5 -69v-77l-25 -23q-39 2 -86 2h-106h-90q-43 0 -88.5 1t-75.5 5l-23 2v23q0 45 -2 95t-2 99z" />
<glyph unicode="&#xae;" horiz-adv-x="1173" d="M227 1112q1 43 9 78q12 51 37.5 101t68.5 89t102.5 63.5t139.5 24.5q106 0 171.5 -42t101.5 -104t47 -135t11 -136q0 -55 -21.5 -114.5t-63.5 -107t-105 -78t-145 -30.5q-23 0 -43 6h-17q-41 6 -83 27.5t-77.5 50.5t-62.5 60.5t-35 58.5q-16 41 -25.5 90t-9.5 98z M293 1090q0 -31 6 -62q8 -41 29.5 -82t56.5 -73.5t82 -52t108 -19.5q88 0 142.5 32.5t83 82t39 106.5t10.5 106q0 45 -15.5 94.5t-48 90.5t-85 67.5t-123.5 26.5q-14 0 -35 -4h-15q-33 -4 -66.5 -21.5t-62 -41t-49 -50t-28.5 -47.5q-12 -35 -20.5 -74t-8.5 -79zM455 911v78 q0 31 1 81t3 99.5t3 88t1 47.5q16 4 42.5 6t45.5 2q18 0 44 -3t48.5 -16.5t37.5 -38t15 -67.5q0 -14 -7 -31.5t-19.5 -34t-29.5 -30t-40 -19.5q8 -10 15.5 -21.5t11.5 -17.5l2 -2q23 -29 39 -59.5t32 -59.5l7 -8l-70 -6q-8 12 -21.5 34.5t-27 47.5t-27.5 48.5t-26 41.5h-11 v-29v-75.5t-2 -59.5l-2 -8h-18h-31q-8 0 -12 2zM526 1122h4q53 0 76 16.5t23 53.5q0 47 -21.5 56t-72.5 9h-7v-53v-40.5t-2 -41.5z" />
<glyph unicode="&#xaf;" horiz-adv-x="925" d="M125 1266q0 16 1 33t1 44q0 10 16.5 18.5t39 13.5t48 9.5t43.5 8.5h56q14 0 54 -3.5t92 -6.5t111.5 -7t113 -7t93.5 -6t54 -5q-6 -4 -9 -29.5t-4 -57.5t-3.5 -58.5t-6.5 -30.5q-4 0 -13 -4t-13 -4t-44 1t-91.5 3t-98.5 3t-65 1t-40 -1t-40 -1h-55h-48t-61 -1t-58.5 -1 h-45.5q-16 31 -21.5 48t-5.5 40z" />
<glyph unicode="&#xb1;" horiz-adv-x="1050" d="M70 520v23q0 35 2 73.5t2 73.5v23l22 2q41 4 96.5 5t108.5 1h100v110q0 41 3.5 79t3.5 69v14l14 15h63q29 0 57.5 -2t63.5 -11l4 -190q-2 -20 -2 -41v-43h113q53 0 100 -3t84 -3h19l14 -15v-65q0 -29 -2 -56.5t-10 -62.5l-232 -4q-20 0 -42.5 1t-47.5 1v-168l-2 -22h-22 q-35 0 -74 2t-74 2h-22l-4 22q-4 33 -4.5 77t-0.5 89h-113.5t-97.5 1t-69.5 1h-28.5zM72 16v23q0 10 1 21.5t1 23.5q0 27 -1 51.5t-1 50.5v23l22 2q6 0 72.5 -1t160 -2t195 -2t174.5 -1l232 -8q6 -31 8 -55.5t2 -47.5q0 -18 -1 -38.5t-1 -43.5l-14 -14q-10 0 -20.5 1 t-22.5 1q-35 0 -76 -3t-84 -1l-420 8q-53 2 -108.5 2t-96.5 6z" />
<glyph unicode="&#xb2;" horiz-adv-x="708" d="M55 1325q43 39 88 70q39 27 84 48t88 25h23q2 0 4 1t6 1q55 0 105.5 -20t89.5 -60t62.5 -96.5t23.5 -128.5q0 -94 -47 -161.5t-117 -122.5l-37 -37q-23 -20 -62.5 -54t-64.5 -57l127 8h178v-77v-39q0 -6 -1 -11.5t-1 -9.5t-1 -13t-3 -20h-319q-4 0 -8.5 1t-8.5 1l-112 5 h-13q-16 2 -41.5 3t-36.5 1h-4v67q43 82 100.5 141.5t135.5 131.5l18 18h-2q68 63 106 108.5t38 104.5q0 66 -34 102.5t-93 36.5q-41 -2 -77 -9t-81 -30l-25 -20l-67 65q-4 4 -10.5 13.5t-10.5 13.5z" />
<glyph unicode="&#xb3;" horiz-adv-x="716" d="M98 606v19q0 8 1 18t1 21v20q2 10 3 25.5t1 31.5q0 12 7 25q-2 2 1 0t7 -2l4 -4l22 -10q12 -6 30 -13.5t32 -9.5q47 -4 92 1t78 22l-2 -2q29 8 42 32.5t17 55.5q2 39 -8 63.5t-26.5 38.5t-38 19.5t-42.5 7.5q-12 0 -26 1t-29 3q2 35 5 67.5t5 67.5q25 0 47.5 4t41 15.5 t29.5 31t14 51.5v18q0 17 -6.5 36.5t-24 37t-51.5 19.5q-53 4 -106.5 -8.5t-88.5 -26.5q0 6 -2 14t-6 29v102q53 18 117.5 30.5t123.5 8.5h-2q61 -8 112.5 -27.5t94.5 -78.5q10 -16 17.5 -40t10.5 -48.5t4 -48t-1 -37.5q0 -43 -17.5 -83t-58.5 -69q57 -49 82 -118.5 t21 -151.5q-6 -39 -33 -81t-51 -62h2q-57 -29 -93 -37.5t-88 -10.5h-8q-16 -4 -37.5 -4t-37.5 2q-43 4 -91.5 13.5t-89.5 21.5z" />
<glyph unicode="&#xb4;" horiz-adv-x="567" d="M78 1167q2 8 4 19q2 8 4 19.5t6 21.5q12 39 33.5 80t50.5 94l129 205q4 0 6 1t6 1q25 0 51.5 -16.5t30.5 -20.5q16 -14 29.5 -24.5t28.5 -14.5q12 -4 24.5 -9t12.5 -7q-33 -53 -59.5 -98.5t-54.5 -87.5t-61.5 -83t-82.5 -86q-41 -23 -59.5 -35t-29.5 -12 q-12 10 -33.5 23.5t-35.5 29.5z" />
<glyph unicode="&#xb5;" horiz-adv-x="1058" d="M113 975q0 18 4 35.5t24 21.5q10 -2 19.5 -2h19.5h49q18 0 35 -1t27 -7q18 -147 24.5 -291.5t18.5 -294.5q0 -53 9 -103t9 -104q29 -25 78 -33t109 -8q66 0 100.5 9.5t50 24t17.5 32.5t2 37v361.5t-23 365.5q10 10 24.5 12t28.5 2h27h18.5t16.5 4q20 -2 41.5 -4t36.5 -18 q0 -10 -1 -17.5t-1 -17.5q0 -74 11 -146.5t11 -148.5q0 -129 3 -241.5t3 -241.5q0 -29 5 -57.5t5 -57.5q0 -23 -6 -43l-20 -16q-35 -6 -77 -14.5t-84 -17.5t-84 -15.5t-77 -6.5q-53 0 -119.5 9.5t-119.5 19.5l2 -186q0 -51 -3 -97.5t-1 -83.5v-22l-13 -14q-23 -2 -42 -2h-35 q-23 0 -46.5 2t-52.5 8l19 231v479l-19 263q-8 98 -17 197.5t-7 197.5z" />
<glyph unicode="&#xb7;" horiz-adv-x="507" d="M80 545q0 82 51 134t137 52q10 0 21.5 -1t21.5 -3q6 0 14.5 -5t16.5 -11q43 -33 67.5 -71t24.5 -83q0 -20 -8 -51t-26.5 -58.5t-50.5 -48t-79 -20.5q-37 0 -71.5 4t-60 21.5t-42 50t-16.5 90.5z" />
<glyph unicode="&#xb8;" horiz-adv-x="552" d="M88 -479q16 2 47 13t60.5 28.5t51 41t21.5 52.5v16q0 33 -11 58.5t-27.5 44t-35 30t-34.5 15.5q16 55 25.5 93t14.5 61.5t8 37t7 23.5q31 -6 46 -8t27.5 -4.5t29 -4.5t49.5 -10q0 -8 -6.5 -25.5t-13.5 -39t-13 -43t-6 -33.5q33 -27 58.5 -45.5t44 -40t28.5 -48t10 -67.5 q0 -14 -10 -40.5t-23.5 -54.5t-30 -51.5t-28.5 -29.5q-6 0 -20.5 -8t-30 -17.5t-29.5 -16.5t-21 -9q-31 -10 -49 -17.5t-33.5 -13.5t-31 -9t-41.5 -3q0 6 -5 22.5t-11.5 35t-11.5 36.5t-5 31z" />
<glyph unicode="&#xb9;" horiz-adv-x="452" d="M41 1356v26l31 25q6 2 38.5 11t67.5 20.5t64 20.5l30 9l17 2h24l13 -2q2 -4 6 -10q2 -4 4 -12t2 -16q2 -23 3 -57t1 -60l2 -561v-28.5t-2 -25.5v-102l-25 -2h-73h-31.5t-36.5 2l-8 166v133q0 41 1 86t1 86l-14 207q-18 4 -32.5 5t-23.5 3l-45 8q-14 37 -14 66z" />
<glyph unicode="&#xba;" horiz-adv-x="878" d="M86 1165q0 72 20 125q10 25 37 55.5t69 58.5t99.5 47t128.5 19q70 0 119 -15t84 -38.5t59.5 -53t42.5 -58.5q10 -31 19.5 -72t9.5 -84t-13 -86t-28 -78q-18 -33 -38.5 -60.5t-55.5 -50.5q-49 -33 -110.5 -51t-120.5 -18q-35 0 -68 6q-72 14 -118 44t-72.5 66.5t-39 73.5 t-16.5 68q-4 25 -6 49.5t-2 52.5zM102 629v46t2 52l15 12h22q37 0 83 2t98 2l143 -4q61 0 129 -2t117 -6l22 -4v-22q0 -14 -1 -30t-1 -32q0 -6 1 -7t1 -7v-23h-22q-20 0 -34.5 -1t-35.5 -1q-16 0 -35.5 1t-42.5 3h-42t-67.5 -1t-67.5 -1h-42l-231 8q-6 8 -8.5 8.5t-2.5 6.5z M233 1167q0 -70 25 -118t37 -58q20 -16 53 -26.5t66 -10.5q47 0 81.5 18.5t58.5 45t37 55.5t19 49q2 10 4 20.5t2 20.5q0 20 -12 54t-37.5 67t-65.5 56.5t-95 23.5q-47 0 -79 -20.5t-53.5 -51t-31 -64.5t-9.5 -61z" />
<glyph unicode="&#xbb;" horiz-adv-x="868" d="M78 100l10 23q16 45 48 106.5t63 118.5l104 197q-35 59 -61.5 112.5t-42.5 83.5l-121 232q20 8 39.5 10t42.5 2h49l18 -14q20 -39 52 -92.5t63 -110.5l119 -221l-162 -301l-84 -150h-22q-29 0 -47.5 2t-47.5 2h-20zM385 113l121 231q16 29 42.5 82t61.5 113l-104 198 q-31 57 -62.5 119t-48.5 107l-10 22h21q29 0 47 2t47 2h22l15 -22l233 -428l-121 -222q-29 -59 -62.5 -111t-51.5 -91l-19 -15h-49q-23 0 -42 2t-40 11z" />
<glyph unicode="&#xbc;" horiz-adv-x="1441" d="M41 1335v27l31 24q6 2 38.5 11.5t67.5 21t64 20.5l30 9l17 2h24l13 -2q2 -4 6 -10q2 -4 4 -12.5t2 -16.5q2 -23 3 -56.5t1 -60.5l2 -540v-28.5t-2 -25.5v-102l-25 -2h-73h-31.5t-36.5 2l-8 166v112q0 41 1 86.5t1 86.5l-14 206q-18 4 -32.5 5.5t-23.5 3.5l-45 8 q-14 37 -14 65zM119 -4q23 -6 41 -8t39 -2h32.5t36.5 2l23 14q23 39 58.5 91t74.5 112l616 993q39 57 75 118.5t59 106.5l10 23h-23q-8 0 -14 -1t-14 -1q-25 0 -42.5 1t-39.5 1h-23l-14 -23q-18 -29 -40 -59.5t-46 -67.5q-12 -18 -45 -70t-79 -125t-102.5 -161t-114 -179 t-112.5 -179t-100 -161t-78 -124t-43 -70zM729 342q0 -10 1 -28.5t5 -41.5l19 -4q25 0 59.5 -2t56.5 -2l224 -2q-2 -12 -2 -22v-31q0 -6 1 -13.5t1 -15.5q0 -6 1 -11t1 -9q2 -18 2 -38v-28v-43q2 -6 2 -18.5v-22.5q6 0 11 -1t13 -1h19h23.5t35.5 2l62 2q0 35 2 72t2 72l2 69 v35l112 6v107l2 24q-6 0 -11 1t-11 1h-88l2 56q0 10 1 20t1 21q2 23 3 45t1 45q2 29 2 59.5v54.5l2 95q0 6 1 12t1 14l6 76q-4 0 -6 1t-6 1h-72l-53 -2l-14 -16q-16 -23 -23 -58q-4 -18 -6 -37l-12 -108q0 -12 -2 -27.5t-2 -27.5q-4 -20 -4 -29q-2 -23 -2 -42.5v-37.5 q-2 -10 -2 -15v-12v-24q2 -10 1 -24.5t-4 -30.5l-182 6l27 94q10 35 15 66.5t16 58.5l38 184q-6 0 -6 2q-45 4 -73 0q-16 -2 -31 -6l-23 -55q-10 -23 -19 -52.5t-13 -52.5q-6 -25 -11 -32l-39 -91q-8 -29 -17 -58.5t-17.5 -56t-14.5 -47t-8 -26.5z" />
<glyph unicode="&#xbd;" horiz-adv-x="1529" d="M41 1335v27l31 24q6 2 38.5 11.5t67.5 21t64 20.5l30 9l17 2h24l13 -2q2 -4 6 -10q2 -4 4 -12.5t2 -16.5q2 -23 3 -56.5t1 -60.5l2 -540v-28.5t-2 -25.5v-102l-25 -2h-73h-31.5t-36.5 2l-8 166v112q0 41 1 86.5t1 86.5l-14 206q-18 4 -32.5 5.5t-23.5 3.5l-45 8 q-14 37 -14 65zM119 -4q23 -6 41 -8t39 -2h32.5t36.5 2l23 14q23 39 58.5 91t74.5 112l616 993q39 57 75 118.5t59 106.5l10 23h-23q-8 0 -14 -1t-14 -1q-25 0 -42.5 1t-39.5 1h-23l-14 -23q-18 -29 -40 -59.5t-46 -67.5q-12 -18 -45 -70t-79 -125t-102.5 -161t-114 -179 t-112.5 -179t-100 -161t-78 -124t-43 -70zM815 8h4q10 0 36 -1t42 -3h12l113 -4q4 0 8 -1t8 -1h353q2 10 3 19.5t1 13.5t1 9t1 11v39q0 20 1 37.5t-1 40.5h-178l-160 -8q25 23 64.5 56.5t62.5 53.5l37 37q70 55 116.5 123t46.5 162q0 72 -23.5 128t-62 96t-89 60.5 t-105.5 20.5q-72 0 -137.5 -35t-112.5 -88q4 -4 10 -13t11 -13l67 -66q31 23 64.5 29t74.5 8q59 0 93 -37t34 -102q0 -59 -37.5 -104.5t-105.5 -108.5h2l-18 -19q-78 -72 -135.5 -131t-100.5 -141v-68z" />
<glyph unicode="&#xbe;" horiz-adv-x="1681" d="M104 606v19q0 8 1 18t1 21v20q2 10 3.5 25.5t1.5 31.5q0 12 6 25q-2 2 1 0t7 -2l4 -4l23 -10q12 -6 29.5 -13.5t31.5 -9.5q47 -4 92 1t78 22l-2 -2q29 8 42 32.5t17 55.5q2 39 -8 63.5t-26.5 38.5t-38 19.5t-41.5 7.5q-12 0 -26.5 1t-29.5 3q2 35 5.5 67.5t5.5 67.5 q25 0 47 4t40.5 15.5t30 31t13.5 51.5v18q0 17 -6.5 36.5t-23.5 37t-52 19.5q-53 4 -106.5 -8.5t-88.5 -26.5q0 6 -2 14t-6 29v102q53 18 117.5 30.5t124.5 8.5h-2q61 -8 112 -27.5t94 -78.5q10 -16 17.5 -40t10.5 -48.5t4 -48t-1 -37.5q0 -43 -17.5 -83t-58.5 -69 q57 -49 82 -118.5t21 -151.5q-6 -39 -33 -81t-51 -62h2q-57 -29 -93 -37.5t-87 -10.5h-9q-16 -4 -37.5 -4t-37.5 2q-43 4 -91.5 13.5t-89.5 21.5zM344 -4l135 231q10 18 43 69.5t78 124.5t100.5 161t112.5 179t113.5 179t102.5 161t79 125t45 70q25 37 46.5 68t39.5 59 l14 23h23q23 0 40 -1t42 -1q8 0 14 1t14 1h23l-10 -23q-23 -45 -58.5 -106.5t-74.5 -118.5l-617 -993q-39 -59 -74.5 -111.5t-58.5 -91.5l-22 -14q-20 -2 -37 -2h-33q-20 0 -38.5 2t-41.5 8zM954 342q2 6 8.5 26.5t14.5 47t17.5 56.5t17.5 58l39 91q4 8 10 32q4 23 13 52.5 t20 52.5l22 55q14 4 31 6q29 4 74 0q0 -2 6 -2l-39 -184q-10 -27 -15.5 -58.5t-15.5 -66.5l-27 -94l183 -6q2 16 3 30.5t-1 24.5v24v11.5t2 15.5v37.5t2 42.5q0 8 4 29q0 12 2 27.5t2 27.5l12 108q2 18 7 37q6 35 22 58l14 16l54 2h71q4 0 6.5 -1t6.5 -1l-7 -76q0 -8 -1 -14 t-1 -12l-2 -95v-55.5t-2 -58.5q0 -23 -1 -45.5t-3 -44.5q0 -10 -1 -20.5t-1 -20.5l-2 -56h88q6 0 11.5 -1t11.5 -1l-2 -24v-107l-113 -6v-35l-2 -69q0 -35 -2 -72t-2 -72l-62 -2q-23 -2 -36 -2h-23h-18q-8 0 -13.5 1t-11.5 1v22.5t-2 18.5v43v27.5t-2 38.5q0 4 -1 9t-1 11 q0 8 -1 15.5t-1 13.5v31q0 10 2 22l-223 2q-23 0 -57.5 2t-59.5 2l-18 4q-4 23 -5.5 41.5t-1.5 28.5z" />
<glyph unicode="&#xbf;" horiz-adv-x="876" d="M51 -23q0 53 15.5 122t52.5 110q43 45 86 85t84 75l55 49q25 25 45.5 53.5t20.5 50.5q0 14 3 27.5t3 25.5v41l-2 33q16 2 53 2h55h33l115 -2q6 -16 7 -56t1 -75q0 -39 -12.5 -78t-31 -73.5t-42 -62.5t-43.5 -44l6 2q-16 -16 -29.5 -31.5t-27.5 -29.5q-23 -23 -42.5 -43.5 t-32.5 -46t-21.5 -58.5t-8.5 -78q0 -47 17.5 -76.5t46 -47t64.5 -24.5t73 -7q53 0 87 10t62 20q18 4 35 9.5t68 15.5q8 -35 9 -53.5t1 -38.5v-74v-28.5t4 -49.5l-24 -24q-72 -23 -135.5 -36t-141.5 -13q-86 0 -164 6t-155 41q-53 25 -90 66.5t-58.5 93t-31 106.5t-9.5 106z M389 899q0 43 16.5 75t42 51t58.5 29.5t65 10.5q39 0 66 -19.5t42 -47t22.5 -56.5t7.5 -45q0 -43 -18.5 -72.5t-43 -48t-52.5 -28t-46 -9.5q-14 0 -37 6.5t-44.5 16.5t-37.5 23.5t-22 29.5q-18 39 -19 84z" />
<glyph unicode="&#xc0;" horiz-adv-x="1007" d="M51 41l4 57q4 35 9.5 63.5t13.5 53.5v-2q2 8 5 21.5t6 24.5t5 19.5t2 6.5q0 4 2 10t2 10q2 14 3.5 25.5t5.5 17.5q8 43 24.5 112.5t36.5 154.5t43 179.5t45 186.5q53 215 115 459q10 0 55 -1t94 -1h129q12 -37 28.5 -106.5t37 -163t45 -203t49.5 -226.5q37 -178 75 -353 t70 -308l-8 -49q-72 -14 -110.5 -16.5t-71.5 -2.5q-23 0 -44.5 1t-37.5 3q-6 0 -15.5 1t-13.5 1l-12 31q-10 31 -19.5 70t-18.5 80t-15 79.5t-10 67.5q-10 0 -19.5 -1t-19.5 -1h-49h-54.5t-46.5 2q-16 -59 -24.5 -128t-16.5 -157v-43l-47 -2q-70 0 -130 3t-122 24zM289 1950 v4q0 2 10 8q4 -2 7 2t7 4t11 7q2 2 19.5 13t41 23.5t47 22.5t37.5 10h6l144 -258q23 -29 35 -49.5t18 -35.5t9 -26.5t9 -23.5l13 -45l-15 -19l-55 -28q-10 0 -28.5 9t-59.5 32q-57 47 -97 85t-70 76.5t-50.5 83t-38.5 105.5zM426 582q10 -2 22.5 -2h34.5q21 0 31 2 q8 2 16.5 3t20.5 1q-4 27 -9 66.5t-12.5 85.5t-14.5 95.5t-15 94.5l-17 -64q-16 -70 -34.5 -145.5t-22.5 -136.5z" />
<glyph unicode="&#xc1;" horiz-adv-x="1007" d="M51 41l4 57q4 35 9.5 63.5t13.5 53.5v-2q2 8 5 21.5t6 24.5t5 19.5t2 6.5q0 4 2 10t2 10q2 14 3.5 25.5t5.5 17.5q8 43 24.5 112.5t36.5 154.5t43 179.5t45 186.5q53 215 115 459q10 0 55 -1t94 -1h129q12 -37 28.5 -106.5t37 -163t45 -203t49.5 -226.5q37 -178 75 -353 t70 -308l-8 -49q-72 -14 -110.5 -16.5t-71.5 -2.5q-23 0 -44.5 1t-37.5 3q-6 0 -15.5 1t-13.5 1l-12 31q-10 31 -19.5 70t-18.5 80t-15 79.5t-10 67.5q-10 0 -19.5 -1t-19.5 -1h-49h-54.5t-46.5 2q-16 -59 -24.5 -128t-16.5 -157v-43l-47 -2q-70 0 -130 3t-122 24zM422 1626 q2 8 4 19q2 8 4 19.5t6 21.5q12 39 33.5 80t50.5 94l129 205q4 0 6 1t6 1q25 0 51.5 -16.5t30.5 -20.5q16 -14 29.5 -24.5t28.5 -14.5q12 -4 24.5 -9t12.5 -7q-33 -53 -59.5 -98.5t-54.5 -87.5t-61.5 -83t-82.5 -86q-41 -23 -59.5 -35t-29.5 -12q-12 10 -33.5 23.5 t-35.5 29.5zM426 582q10 -2 22.5 -2h34.5q21 0 31 2q8 2 16.5 3t20.5 1q-4 27 -9 66.5t-12.5 85.5t-14.5 95.5t-15 94.5l-17 -64q-16 -70 -34.5 -145.5t-22.5 -136.5z" />
<glyph unicode="&#xc2;" horiz-adv-x="1007" d="M51 41l4 57q4 35 9.5 63.5t13.5 53.5v-2q2 8 5 21.5t6 24.5t5 19.5t2 6.5q0 4 2 10t2 10q2 14 3.5 25.5t5.5 17.5q8 43 24.5 112.5t36.5 154.5t43 179.5t45 186.5q53 215 115 459q10 0 55 -1t94 -1h129q12 -37 28.5 -106.5t37 -163t45 -203t49.5 -226.5q37 -178 75 -353 t70 -308l-8 -49q-72 -14 -110.5 -16.5t-71.5 -2.5q-23 0 -44.5 1t-37.5 3q-6 0 -15.5 1t-13.5 1l-12 31q-10 31 -19.5 70t-18.5 80t-15 79.5t-10 67.5q-10 0 -19.5 -1t-19.5 -1h-49h-54.5t-46.5 2q-16 -59 -24.5 -128t-16.5 -157v-43l-47 -2q-70 0 -130 3t-122 24zM125 1667 l33 49q12 6 18 13.5t15.5 18.5t26 25.5t46.5 33.5l191 165q10 14 32.5 32t43.5 18l178 -166q29 -23 48 -45.5t33.5 -43t25 -36t20.5 -21.5l28 -53l-16 -37l-10 -14l-29 -12q-4 -2 -12 -2q-18 0 -64 14h-6q-6 0 -14 2t-12 6q-66 35 -109 75t-84 79q-29 -25 -73 -54.5t-90 -55 t-89 -44t-67 -18.5q-12 0 -15 2l-43 47zM426 582q10 -2 22.5 -2h34.5q21 0 31 2q8 2 16.5 3t20.5 1q-4 27 -9 66.5t-12.5 85.5t-14.5 95.5t-15 94.5l-17 -64q-16 -70 -34.5 -145.5t-22.5 -136.5z" />
<glyph unicode="&#xc3;" horiz-adv-x="1007" d="M51 41l4 57q4 35 9.5 63.5t13.5 53.5v-2q2 8 5 21.5t6 24.5t5 19.5t2 6.5q0 4 2 10t2 10q2 14 3.5 25.5t5.5 17.5q8 43 24.5 112.5t36.5 154.5t43 179.5t45 186.5q53 215 115 459q10 0 55 -1t94 -1h129q12 -37 28.5 -106.5t37 -163t45 -203t49.5 -226.5q37 -178 75 -353 t70 -308l-8 -49q-72 -14 -110.5 -16.5t-71.5 -2.5q-23 0 -44.5 1t-37.5 3q-6 0 -15.5 1t-13.5 1l-12 31q-10 31 -19.5 70t-18.5 80t-15 79.5t-10 67.5q-10 0 -19.5 -1t-19.5 -1h-49h-54.5t-46.5 2q-16 -59 -24.5 -128t-16.5 -157v-43l-47 -2q-70 0 -130 3t-122 24zM73 1692 q0 4 2.5 11t4.5 11q29 43 58.5 90.5t64 85t77.5 62.5t99 25q53 0 89 -30t61.5 -66t47 -65.5t45.5 -29.5q4 2 24.5 11.5t24.5 9.5q31 10 54.5 27.5t40 34.5t29 29.5t18.5 14.5q2 0 9 -5t17 -9q10 -6 23 -13l31 -75q4 -14 8 -24.5t4 -29.5q0 -25 -14.5 -41t-33 -26 t-34.5 -16.5t-20 -10.5q-10 -10 -25 -10q-23 -10 -34 -21.5t-38 -17.5q-35 -6 -71 -6q-47 0 -94.5 18.5t-75.5 75.5l-58 70l-12 12l-9 9t-7 5q-25 0 -46.5 -13t-29.5 -17q-27 -6 -40 -29t-27.5 -47.5t-37 -45t-65.5 -22.5q-12 0 -33.5 23.5t-26.5 44.5zM426 582 q10 -2 22.5 -2h34.5q21 0 31 2q8 2 16.5 3t20.5 1q-4 27 -9 66.5t-12.5 85.5t-14.5 95.5t-15 94.5l-17 -64q-16 -70 -34.5 -145.5t-22.5 -136.5z" />
<glyph unicode="&#xc4;" horiz-adv-x="1036" d="M51 53l12 41q12 31 20.5 67t14.5 72q4 23 9.5 50.5t15.5 62.5q8 43 24.5 111.5t38 152.5t45 177.5t45.5 183.5q53 213 119 454q10 0 54.5 -1t93.5 -1h127q12 -37 29.5 -105.5t38 -160.5t43 -200.5t46.5 -223.5q18 -88 38 -176t38.5 -172t35.5 -162t34 -141l12 -51l-51 -8 q-41 -8 -80 -10.5t-70 -2.5q-20 0 -42.5 1t-36.5 3q-6 0 -16.5 1t-14.5 1l-10 31q-10 31 -21.5 79t-22 100.5t-18.5 101.5t-14 82h-26.5t-24.5 -2h-64q-12 0 -16 -1t-15 1q-20 -76 -26 -162l-6 -78l-15 -150l-80 -2q-10 0 -18 -1t-14 -1h-33q-35 0 -74 3t-80 20 q-8 2 -23.5 8t-21.5 8zM123 1718q-2 45 6 76t26.5 49.5t50.5 29.5t77 19h45t31.5 -4t22.5 -13t21 -28q23 -35 33 -61.5t10 -63.5q4 -70 -46 -118t-136 -52q-20 -4 -43.5 13.5t-38.5 33.5q-8 4 -31.5 33t-27.5 86zM461 682h8q8 0 16.5 1t18.5 3t23.5 3t27.5 1 q-4 47 -11 103.5t-22 160.5q-16 -80 -32.5 -151.5t-28.5 -120.5zM639 1708q-4 72 25.5 114t95.5 76q14 6 21 9.5t18 3.5h8q33 2 63.5 -16.5t53 -46t37 -60.5t14.5 -59q2 -20 -2 -30.5t-10.5 -18t-11.5 -17.5t-7 -33q-25 -41 -65.5 -46t-108.5 -9q-12 2 -33.5 11t-43 25.5 t-37 40t-17.5 56.5z" />
<glyph unicode="&#xc5;" horiz-adv-x="1044" d="M51 8q4 35 10.5 80t13.5 94t14 96.5t13 86.5q10 53 16.5 92t6.5 43l2 43q4 31 8 46t8 36q4 16 8.5 34.5t6.5 34.5q2 20 9 58.5t17.5 86.5t22.5 103t24 113q12 55 23.5 109.5t21 97.5t14.5 72.5t5 37.5l4 47l47 2q33 0 58.5 1t50.5 3t49 2h51q16 0 33.5 -1t32.5 -3 q6 0 15 -1t17 -1l35 -2l10 -33q8 -31 31 -113.5t50.5 -198.5t59 -253t60.5 -276t53.5 -267t36.5 -227l4 -59l-309 4l-12 67v-2l-4 35q-4 18 -8.5 41t-8.5 51q-2 16 -12 52h2q-12 29 -16 59l-7 31h-215q-4 -35 -11 -83t-15 -95l-21 -144h-305zM276 1739q0 84 50 145 q6 8 20 22.5t31.5 28t36 23.5t32.5 10q4 -2 9 -2q4 0 8 1t8 1h21q8 4 36 4l2 -2q4 2 17 2q16 0 49 -10t64.5 -34.5t56 -66.5t24.5 -106q0 -59 -17 -108.5t-48 -86t-75 -57t-95 -20.5q-37 0 -74 12t-72 41q-41 37 -62.5 90t-21.5 113zM406 1755q0 -23 8 -44t19 -37.5 t20.5 -27t13.5 -12.5q10 -10 25 -10q25 0 45 11.5t35.5 27.5t23.5 33.5t8 32.5q0 14 -12 33.5t-30.5 38t-41 30.5t-43.5 12q-4 0 -9 -1t-9 -1q-6 -2 -8 -2l-29 -29q-16 -27 -16 -55zM451 592h52t68 2q-16 94 -34.5 191.5t-34.5 177.5q-8 -41 -14.5 -88.5t-12.5 -94.5 q-6 -57 -11 -99t-13 -89z" />
<glyph unicode="&#xc6;" horiz-adv-x="1482" d="M8 6q0 2 3 12.5t8.5 22.5t9.5 21.5t6 13.5l39 78q35 76 65.5 149.5t59.5 151.5l57 151l299 748q27 6 50.5 6h47.5h96.5t178.5 -2h84q33 0 63.5 -1t63.5 -1h110q14 0 28.5 1t29.5 1h45l41 -2v-41q0 -23 1 -43.5t1 -44.5q2 -23 2 -51.5v-51.5v-41l-39 -2q-25 -2 -56.5 -2 h-60.5h-121q-33 0 -64.5 1t-64.5 1h-43q0 -29 -1 -70.5t-2 -85.5t-1 -86v-73h17h44t46 2q27 2 57.5 3t60.5 1h54.5t48.5 -4q8 0 20.5 -2t16.5 -2l10 -39q2 -8 2 -27q0 -6 -1 -12t-1 -12v-33q0 -18 -2 -33.5t-6 -29.5q0 -6 -2 -16.5t-2 -16.5v-41l-41 -2h-33q-31 0 -59.5 1 t-55.5 3q-25 2 -46 3t-44 1h-18q-16 2 -24.5 2t-24.5 -4q4 -63 10 -122.5t10 -121.5h72t77 -2q47 -2 104.5 -3t104.5 -1h47l11 -102v-176h-45q-61 2 -137 2h-156q-16 0 -30.5 -1t-31.5 -1h-55h-55.5t-52.5 2q-10 -2 -23.5 -2h-28.5h-19t-20 2l-18 4q-6 25 -11 72.5t-8.5 102 t-5.5 104.5t-2 81v76q0 16 -1 44t-9 42q-53 8 -107.5 3t-107.5 -1h-12l-8 -10l-29 -78q-23 -61 -44.5 -123.5t-43.5 -124.5l-25 -63q-12 -35 -21 -59.5t-20 -47.5q-25 -4 -42 -4h-35h-19q-4 0 -9 1t-9 1h-23q-27 0 -51.5 -1t-52.5 1zM549 762q16 -8 33.5 -9t33.5 -1h43l3 2 v8q0 16 1 29.5t1 27.5q2 31 3 60.5t1 58.5v18q0 27 -1.5 60t-9.5 45q-16 -23 -32.5 -60.5t-30.5 -80.5t-26.5 -86t-18.5 -72z" />
<glyph unicode="&#xc7;" horiz-adv-x="1179" d="M86 733q0 66 7 130.5t26 123.5q27 80 86 155t139 131t174 88t193 25q47 0 103 -12t112.5 -37.5t107.5 -64.5t88 -92l-157 -168q-39 53 -111 77.5t-135 14.5q-53 -8 -89 -29.5t-57 -38.5q-33 -25 -63.5 -73t-54 -102t-38 -109.5t-14.5 -94.5q0 -57 9.5 -122.5t37 -122 t78 -95t129.5 -43.5h19q98 2 179 31t120 66l145 -201q-33 -41 -77 -70.5t-93 -48t-102 -30t-103 -15.5q-10 -2 -20 -3t-20 -1q-2 -10 -8.5 -27.5t-12.5 -38t-11 -39t-5 -30.5q33 -27 58.5 -45.5t43.5 -40t28.5 -48t10.5 -67.5q0 -14 -10.5 -40.5t-23.5 -54.5t-29.5 -51.5 t-28.5 -29.5q-6 0 -20.5 -8t-30 -17.5t-29.5 -16.5t-21 -9q-31 -10 -49 -17.5t-33.5 -13.5t-31 -9t-41.5 -3q0 6 -5 22.5t-11.5 35t-11.5 36.5t-5 31q16 2 47 13t60.5 28.5t51 41t21.5 52.5v16q0 33 -11 58.5t-27.5 44t-35 30t-34.5 15.5q23 78 33 120t14 64q-45 4 -86 15.5 t-74 27.5q-63 37 -115.5 93.5t-90.5 120t-60.5 129t-24.5 120.5v2q0 10 -1 20.5t-1 20.5q-4 41 -6 89t-2 91z" />
<glyph unicode="&#xc8;" horiz-adv-x="888" d="M92 991q0 121 1 214t5 141v38h115q23 0 43 1t43 1h82q20 0 40.5 -1t43.5 -1h192q29 0 53.5 1t47.5 1h45l-2 -47q-2 -16 -2 -35.5v-37.5q0 -14 -1 -27.5t-1 -28.5l-2 -100h-50q-55 0 -113.5 -1t-113.5 -3q-39 -2 -79 -2h-72v-162q0 -23 -1 -39t1 -45q16 -4 33.5 -4h33.5 q23 0 44.5 1t45.5 3q29 2 56.5 4t58.5 2h33l41 -2l2 -39q2 -10 2 -24.5v-24.5q0 -12 -1 -23.5t-1 -21.5v-45q0 -23 2 -33l2 -49l-41 -4q-23 -4 -48.5 -4h-54.5h-57.5t-52.5 2q-16 0 -41 1t-41 1h-12q0 -35 1 -79t2 -89t2 -84t1 -63h31h56.5t53.5 2q29 0 55.5 1t53.5 1 q12 0 25.5 -1t25.5 -1h43l43 -2v-41v-50.5t-2 -52.5q0 -16 -1 -43.5t-1 -44.5v-41l-41 -2q-59 -4 -141 -5t-160 -1h-88h-103.5t-83.5 -2l-45 -2v43v175t-2 218q-2 139 -3 283.5t-1 273.5zM258 1950v4q0 2 10 8q4 -2 7 2t7 4t11 7q2 2 19.5 13t41 23.5t47 22.5t37.5 10h6 l144 -258q23 -29 35 -49.5t18 -35.5t9 -26.5t9 -23.5l13 -45l-15 -19l-55 -28q-10 0 -28.5 9t-59.5 32q-57 47 -97 85t-70 76.5t-50.5 83t-38.5 105.5z" />
<glyph unicode="&#xc9;" horiz-adv-x="888" d="M92 991q0 121 1 214t5 141v38h115q23 0 43 1t43 1h82q20 0 40.5 -1t43.5 -1h192q29 0 53.5 1t47.5 1h45l-2 -47q-2 -16 -2 -35.5v-37.5q0 -14 -1 -27.5t-1 -28.5l-2 -100h-50q-55 0 -113.5 -1t-113.5 -3q-39 -2 -79 -2h-72v-162q0 -23 -1 -39t1 -45q16 -4 33.5 -4h33.5 q23 0 44.5 1t45.5 3q29 2 56.5 4t58.5 2h33l41 -2l2 -39q2 -10 2 -24.5v-24.5q0 -12 -1 -23.5t-1 -21.5v-45q0 -23 2 -33l2 -49l-41 -4q-23 -4 -48.5 -4h-54.5h-57.5t-52.5 2q-16 0 -41 1t-41 1h-12q0 -35 1 -79t2 -89t2 -84t1 -63h31h56.5t53.5 2q29 0 55.5 1t53.5 1 q12 0 25.5 -1t25.5 -1h43l43 -2v-41v-50.5t-2 -52.5q0 -16 -1 -43.5t-1 -44.5v-41l-41 -2q-59 -4 -141 -5t-160 -1h-88h-103.5t-83.5 -2l-45 -2v43v175t-2 218q-2 139 -3 283.5t-1 273.5zM256 1626q2 8 4 19q2 8 4 19.5t6 21.5q12 39 33.5 80t50.5 94l129 205q4 0 6 1t6 1 q25 0 51.5 -16.5t30.5 -20.5q16 -14 29.5 -24.5t28.5 -14.5q12 -4 24.5 -9t12.5 -7q-33 -53 -59.5 -98.5t-54.5 -87.5t-61.5 -83t-82.5 -86q-41 -23 -59.5 -35t-29.5 -12q-12 10 -33.5 23.5t-35.5 29.5z" />
<glyph unicode="&#xca;" horiz-adv-x="919" d="M92 991q0 121 1 214t5 141v38h115q23 0 43 1t43 1h82q20 0 40.5 -1t43.5 -1h192q29 0 53.5 1t47.5 1h45l-2 -47q-2 -16 -2 -35.5v-37.5q0 -14 -1 -27.5t-1 -28.5l-2 -100h-50q-55 0 -113.5 -1t-113.5 -3q-39 -2 -79 -2h-72v-162q0 -23 -1 -39t1 -45q16 -4 33.5 -4h33.5 q23 0 44.5 1t45.5 3q29 2 56.5 4t58.5 2h33l41 -2l2 -39q2 -10 2 -24.5v-24.5q0 -12 -1 -23.5t-1 -21.5v-45q0 -23 2 -33l2 -49l-41 -4q-23 -4 -48.5 -4h-54.5h-57.5t-52.5 2q-16 0 -41 1t-41 1h-12q0 -35 1 -79t2 -89t2 -84t1 -63h31h56.5t53.5 2q29 0 55.5 1t53.5 1 q12 0 25.5 -1t25.5 -1h43l43 -2v-41v-50.5t-2 -52.5q0 -16 -1 -43.5t-1 -44.5v-41l-41 -2q-59 -4 -141 -5t-160 -1h-88h-103.5t-83.5 -2l-45 -2v43v175t-2 218q-2 139 -3 283.5t-1 273.5zM94 1667l33 49q12 6 18 13.5t15.5 18.5t26 25.5t46.5 33.5l191 165q10 14 32.5 32 t43.5 18l178 -166q29 -23 48 -45.5t33.5 -43t25 -36t20.5 -21.5l28 -53l-16 -37l-10 -14l-29 -12q-4 -2 -12 -2q-18 0 -64 14h-6q-6 0 -14 2t-12 6q-66 35 -109 75t-84 79q-29 -25 -73 -54.5t-90 -55t-89 -44t-67 -18.5q-12 0 -15 2l-43 47z" />
<glyph unicode="&#xcb;" horiz-adv-x="968" d="M92 1792q0 27 12.5 60.5t34 63.5t51 49.5t64.5 19.5h8q10 0 18.5 -3t22.5 -10q66 -31 94.5 -72.5t28.5 -113.5q0 -33 -14 -57.5t-34.5 -41t-41 -26.5t-35.5 -12q-68 0 -108.5 5t-65.5 46q-4 23 -9 32t-11 16t-10.5 15.5t-4.5 28.5zM115 991q0 121 1 214t5 141v38h115 q23 0 43 1t43 1h82q20 0 40.5 -1t43.5 -1h192q29 0 53.5 1t47.5 1h45l-2 -47q-2 -16 -2 -35.5v-37.5q0 -14 -1 -27.5t-1 -28.5l-2 -100h-50q-55 0 -113.5 -1t-113.5 -3q-39 -2 -79 -2h-72v-162q0 -23 -1 -39t1 -45q16 -4 33.5 -4h33.5q23 0 44.5 1t45.5 3q29 2 56.5 4 t58.5 2h33l41 -2l2 -39q2 -10 2 -24.5v-24.5q0 -12 -1 -23.5t-1 -21.5v-45q0 -23 2 -33l2 -49l-41 -4q-23 -4 -48.5 -4h-54.5h-57.5t-52.5 2q-16 0 -41 1t-41 1h-12q0 -35 1 -79t2 -89t2 -84t1 -63h31h56.5t53.5 2q29 0 55.5 1t53.5 1q12 0 25.5 -1t25.5 -1h43l43 -2v-41 v-50.5t-2 -52.5q0 -16 -1 -43.5t-1 -44.5v-41l-41 -2q-59 -4 -141 -5t-160 -1h-88h-103.5t-83.5 -2l-45 -2v43v175t-2 218q-2 139 -3 283.5t-1 273.5zM559 1764q0 43 8.5 70.5t30.5 66.5q23 37 44.5 43t76.5 6q31 -4 53.5 -5t32.5 -11q23 -16 37 -28.5t23.5 -28t13.5 -38 t4 -55.5q0 -57 -24.5 -88t-30.5 -35q-14 -16 -37 -33.5t-43 -17.5q-78 0 -133.5 44t-55.5 110z" />
<glyph unicode="&#xcc;" d="M16 1950v4q0 2 10 8q4 -2 7 2t7 4t11 7q2 2 19.5 13t41 23.5t47 22.5t37.5 10h6l144 -258q23 -29 35 -49.5t18 -35.5t9 -26.5t9 -23.5l13 -45l-15 -19l-55 -28q-10 0 -28.5 9t-59.5 32q-57 47 -97 85t-70 76.5t-50.5 83t-38.5 105.5zM92 1278v143h94q6 0 13.5 -1t15.5 -1 q23 0 42 1t38 3q16 2 33.5 3t38.5 1q10 0 18 -1t18 -1h43q2 -47 3.5 -105t2.5 -115.5t1 -109v-87.5q0 -53 -2 -103.5t-2 -101.5q-2 -51 -3.5 -102.5t-1.5 -102.5q0 -68 1.5 -135.5t3.5 -128.5q0 4 1 -11.5t3 -33.5q2 -25 5 -56.5t5 -64.5t3 -63.5t1 -51.5q0 -49 -26.5 -55 t-55.5 -2q-4 0 -9 1t-9 1h-146h-33.5t-56.5 2q-4 86 -5 166t-1 129v35q0 59 -4 120.5t-8 114.5q-4 47 -8.5 96.5t-4.5 96.5q0 39 2 71.5t4 61.5t3.5 53.5t1.5 48.5q0 35 -3.5 70t-7.5 70q-4 37 -6 72.5t-2 72.5z" />
<glyph unicode="&#xcd;" d="M92 1278v143h94q6 0 13.5 -1t15.5 -1q23 0 42 1t38 3q16 2 33.5 3t38.5 1q10 0 18 -1t18 -1h43q2 -47 3.5 -105t2.5 -115.5t1 -109v-87.5q0 -53 -2 -103.5t-2 -101.5q-2 -51 -3.5 -102.5t-1.5 -102.5q0 -68 1.5 -135.5t3.5 -128.5q0 4 1 -11.5t3 -33.5q2 -25 5 -56.5 t5 -64.5t3 -63.5t1 -51.5q0 -49 -26.5 -55t-55.5 -2q-4 0 -9 1t-9 1h-146h-33.5t-56.5 2q-4 86 -5 166t-1 129v35q0 59 -4 120.5t-8 114.5q-4 47 -8.5 96.5t-4.5 96.5q0 39 2 71.5t4 61.5t3.5 53.5t1.5 48.5q0 35 -3.5 70t-7.5 70q-4 37 -6 72.5t-2 72.5zM92 1626q2 8 4 19 q2 8 4 19.5t6 21.5q12 39 33.5 80t50.5 94l129 205q4 0 6 1t6 1q25 0 51.5 -16.5t30.5 -20.5q16 -14 29.5 -24.5t28.5 -14.5q12 -4 24.5 -9t12.5 -7q-33 -53 -59.5 -98.5t-54.5 -87.5t-61.5 -83t-82.5 -86q-41 -23 -59.5 -35t-29.5 -12q-12 10 -33.5 23.5t-35.5 29.5z" />
<glyph unicode="&#xce;" d="M-86 1667l33 49q12 6 18 13.5t15.5 18.5t26 25.5t46.5 33.5l191 165q10 14 32.5 32t43.5 18l178 -166q29 -23 48 -45.5t33.5 -43t25 -36t20.5 -21.5l28 -53l-16 -37l-10 -14l-29 -12q-4 -2 -12 -2q-18 0 -64 14h-6q-6 0 -14 2t-12 6q-66 35 -109 75t-84 79 q-29 -25 -73 -54.5t-90 -55t-89 -44t-67 -18.5q-12 0 -15 2l-43 47zM92 1278v143h94q6 0 13.5 -1t15.5 -1q23 0 42 1t38 3q16 2 33.5 3t38.5 1q10 0 18 -1t18 -1h43q2 -47 3.5 -105t2.5 -115.5t1 -109v-87.5q0 -53 -2 -103.5t-2 -101.5q-2 -51 -3.5 -102.5t-1.5 -102.5 q0 -68 1.5 -135.5t3.5 -128.5q0 4 1 -11.5t3 -33.5q2 -25 5 -56.5t5 -64.5t3 -63.5t1 -51.5q0 -49 -26.5 -55t-55.5 -2q-4 0 -9 1t-9 1h-146h-33.5t-56.5 2q-4 86 -5 166t-1 129v35q0 59 -4 120.5t-8 114.5q-4 47 -8.5 96.5t-4.5 96.5q0 39 2 71.5t4 61.5t3.5 53.5t1.5 48.5 q0 35 -3.5 70t-7.5 70q-4 37 -6 72.5t-2 72.5z" />
<glyph unicode="&#xcf;" d="M-113 1792q0 27 12.5 60.5t34 63.5t51 49.5t64.5 19.5h8q10 0 18.5 -3t22.5 -10q66 -31 94.5 -72.5t28.5 -113.5q0 -33 -14 -57.5t-34.5 -41t-41 -26.5t-35.5 -12q-68 0 -108.5 5t-65.5 46q-4 23 -9 32t-11 16t-10.5 15.5t-4.5 28.5zM92 1278v143h94q6 0 13.5 -1t15.5 -1 q23 0 42 1t38 3q16 2 33.5 3t38.5 1q10 0 18 -1t18 -1h43q2 -47 3.5 -105t2.5 -115.5t1 -109v-87.5q0 -53 -2 -103.5t-2 -101.5q-2 -51 -3.5 -102.5t-1.5 -102.5q0 -68 1.5 -135.5t3.5 -128.5q0 4 1 -11.5t3 -33.5q2 -25 5 -56.5t5 -64.5t3 -63.5t1 -51.5q0 -49 -26.5 -55 t-55.5 -2q-4 0 -9 1t-9 1h-146h-33.5t-56.5 2q-4 86 -5 166t-1 129v35q0 59 -4 120.5t-8 114.5q-4 47 -8.5 96.5t-4.5 96.5q0 39 2 71.5t4 61.5t3.5 53.5t1.5 48.5q0 35 -3.5 70t-7.5 70q-4 37 -6 72.5t-2 72.5zM354 1764q0 43 8.5 70.5t30.5 66.5q23 37 44.5 43t76.5 6 q31 -4 53.5 -5t32.5 -11q23 -16 37 -28.5t23.5 -28t13.5 -38t4 -55.5q0 -57 -24.5 -88t-30.5 -35q-14 -16 -37 -33.5t-43 -17.5q-78 0 -133.5 44t-55.5 110z" />
<glyph unicode="&#xd0;" horiz-adv-x="1126" d="M-37 782q14 0 52 1t89 3q0 25 2.5 48.5t4.5 46.5q2 25 3 50t1 48q0 43 -4.5 94t-8.5 98q-4 63 -6 121t4 99h176q45 0 112 -2.5t136.5 -9.5t133 -21.5t104.5 -40.5q59 -41 109.5 -97.5t87 -118t57 -123t24.5 -116.5q0 -14 1 -26.5t1 -24.5q2 -25 3.5 -55.5t1.5 -57.5 q0 -74 -11.5 -149.5t-42.5 -147.5q-20 -43 -60 -105.5t-95.5 -121.5t-124 -106.5t-142.5 -59.5q-47 -8 -83.5 -11t-67.5 -3q-49 0 -92 6l-52 6h-32q-10 0 -20.5 -1t-20.5 -1h-23q-6 0 -20.5 1t-20.5 1q-4 37 -6 77t-3 78t-1 70.5v53.5q0 12 1 23t1 22v41q0 53 -5 104t-9 103 l-4 24q-41 -2 -69 -3t-32 -1t-13 4t-13 4q-4 4 -6.5 31t-3.5 58.5t-4 57t-9 29.5zM426 479q0 -39 2 -78t6 -73q47 2 88 6t60 14q31 18 64.5 59.5t63 92.5t49 104t21.5 94q0 63 -17.5 131t-57 122.5t-106.5 89t-163 34.5v-55q0 -49 -1 -98.5t-3 -98.5q0 -8 -1 -14t-1 -12h45 q18 -4 44 -8.5t48.5 -9.5t39 -13t16.5 -18q0 -23 1 -39.5t1 -28.5q0 -18 -5.5 -34.5t-21.5 -43.5h-78t-92 2v-45q0 -20 -1 -39.5t-1 -40.5z" />
<glyph unicode="&#xd1;" horiz-adv-x="1032" d="M92 -8v1413h309l250 -856v139q0 96 2 212t3 222.5t3.5 190.5t2.5 121h268q0 -27 -1 -103t-1 -181.5t-1 -231t-1 -252.5q-2 -299 -2 -662h-355q-57 180 -104 330q-20 63 -39.5 126.5t-36 116t-28 89t-13.5 49.5q0 -39 2 -90.5t3 -109.5t3 -120.5t4 -120.5q4 -137 7 -284z M110 1692q0 4 2.5 11t4.5 11q29 43 58.5 90.5t64 85t77.5 62.5t99 25q53 0 89 -30t61.5 -66t47 -65.5t45.5 -29.5q4 2 24.5 11.5t24.5 9.5q31 10 54.5 27.5t40 34.5t29 29.5t18.5 14.5q2 0 9 -5t17 -9q10 -6 23 -13l31 -75q4 -14 8 -24.5t4 -29.5q0 -25 -14.5 -41t-33 -26 t-34.5 -16.5t-20 -10.5q-10 -10 -25 -10q-23 -10 -34 -21.5t-38 -17.5q-35 -6 -71 -6q-47 0 -94.5 18.5t-75.5 75.5l-58 70l-12 12l-9 9t-7 5q-25 0 -46.5 -13t-29.5 -17q-27 -6 -40 -29t-27.5 -47.5t-37 -45t-65.5 -22.5q-12 0 -33.5 23.5t-26.5 44.5z" />
<glyph unicode="&#xd2;" horiz-adv-x="1261" d="M82 770q0 82 7 149.5t24 127.5q14 57 55 126.5t106.5 131t154.5 103.5t202 42q109 0 185.5 -34t130.5 -87t91 -120t66 -130q29 -66 52.5 -158t23.5 -186q0 -90 -30 -179t-58 -167l-7 -16q-27 -66 -57.5 -130.5t-87.5 -117.5q-76 -72 -170 -112t-188 -40q-61 0 -107 15 q-106 33 -177 100.5t-115 147t-64.5 161.5t-26.5 148q-4 53 -7 109.5t-3 115.5zM342 774q0 -72 10 -134t24.5 -110.5t30 -80t23.5 -39.5q27 -35 73 -53.5t89 -18.5q66 0 114 38t80.5 92t52 113.5t25.5 102.5q4 20 6 40.5t2 41.5q0 41 -16 110.5t-52 136t-91.5 116 t-132.5 49.5q-63 0 -108.5 -43t-74 -105.5t-42 -132.5t-13.5 -123zM404 1950v4q0 2 10 8q4 -2 7 2t7 4t11 7q2 2 19.5 13t41 23.5t47 22.5t37.5 10h6l144 -258q23 -29 35 -49.5t18 -35.5t9 -26.5t9 -23.5l13 -45l-15 -19l-55 -28q-10 0 -28.5 9t-59.5 32q-57 47 -97 85 t-70 76.5t-50.5 83t-38.5 105.5z" />
<glyph unicode="&#xd3;" horiz-adv-x="1261" d="M82 770q0 82 7 149.5t24 127.5q14 57 55 126.5t106.5 131t154.5 103.5t202 42q109 0 185.5 -34t130.5 -87t91 -120t66 -130q29 -66 52.5 -158t23.5 -186q0 -90 -30 -179t-58 -167l-7 -16q-27 -66 -57.5 -130.5t-87.5 -117.5q-76 -72 -170 -112t-188 -40q-61 0 -107 15 q-106 33 -177 100.5t-115 147t-64.5 161.5t-26.5 148q-4 53 -7 109.5t-3 115.5zM342 774q0 -72 10 -134t24.5 -110.5t30 -80t23.5 -39.5q27 -35 73 -53.5t89 -18.5q66 0 114 38t80.5 92t52 113.5t25.5 102.5q4 20 6 40.5t2 41.5q0 41 -16 110.5t-52 136t-91.5 116 t-132.5 49.5q-63 0 -108.5 -43t-74 -105.5t-42 -132.5t-13.5 -123zM402 1626q2 8 4 19q2 8 4 19.5t6 21.5q12 39 33.5 80t50.5 94l129 205q4 0 6 1t6 1q25 0 51.5 -16.5t30.5 -20.5q16 -14 29.5 -24.5t28.5 -14.5q12 -4 24.5 -9t12.5 -7q-33 -53 -59.5 -98.5t-54.5 -87.5 t-61.5 -83t-82.5 -86q-41 -23 -59.5 -35t-29.5 -12q-12 10 -33.5 23.5t-35.5 29.5z" />
<glyph unicode="&#xd4;" horiz-adv-x="1261" d="M82 770q0 82 7 149.5t24 127.5q14 57 55 126.5t106.5 131t154.5 103.5t202 42q109 0 185.5 -34t130.5 -87t91 -120t66 -130q29 -66 52.5 -158t23.5 -186q0 -90 -30 -179t-58 -167l-7 -16q-27 -66 -57.5 -130.5t-87.5 -117.5q-76 -72 -170 -112t-188 -40q-61 0 -107 15 q-106 33 -177 100.5t-115 147t-64.5 161.5t-26.5 148q-4 53 -7 109.5t-3 115.5zM239 1667l33 49q12 6 18 13.5t15.5 18.5t26 25.5t46.5 33.5l191 165q10 14 32.5 32t43.5 18l178 -166q29 -23 48 -45.5t33.5 -43t25 -36t20.5 -21.5l28 -53l-16 -37l-10 -14l-29 -12 q-4 -2 -12 -2q-18 0 -64 14h-6q-6 0 -14 2t-12 6q-66 35 -109 75t-84 79q-29 -25 -73 -54.5t-90 -55t-89 -44t-67 -18.5q-12 0 -15 2l-43 47zM342 774q0 -72 10 -134t24.5 -110.5t30 -80t23.5 -39.5q27 -35 73 -53.5t89 -18.5q66 0 114 38t80.5 92t52 113.5t25.5 102.5 q4 20 6 40.5t2 41.5q0 41 -16 110.5t-52 136t-91.5 116t-132.5 49.5q-63 0 -108.5 -43t-74 -105.5t-42 -132.5t-13.5 -123z" />
<glyph unicode="&#xd5;" horiz-adv-x="1261" d="M82 770q0 82 7 149.5t24 127.5q14 57 55 126.5t106.5 131t154.5 103.5t202 42q109 0 185.5 -34t130.5 -87t91 -120t66 -130q29 -66 52.5 -158t23.5 -186q0 -90 -30 -179t-58 -167l-7 -16q-27 -66 -57.5 -130.5t-87.5 -117.5q-76 -72 -170 -112t-188 -40q-61 0 -107 15 q-106 33 -177 100.5t-115 147t-64.5 161.5t-26.5 148q-4 53 -7 109.5t-3 115.5zM188 1692q0 4 2.5 11t4.5 11q29 43 58.5 90.5t64 85t77.5 62.5t99 25q53 0 89 -30t61.5 -66t47 -65.5t45.5 -29.5q4 2 24.5 11.5t24.5 9.5q31 10 54.5 27.5t40 34.5t29 29.5t18.5 14.5 q2 0 9 -5t17 -9q10 -6 23 -13l31 -75q4 -14 8 -24.5t4 -29.5q0 -25 -14.5 -41t-33 -26t-34.5 -16.5t-20 -10.5q-10 -10 -25 -10q-23 -10 -34 -21.5t-38 -17.5q-35 -6 -71 -6q-47 0 -94.5 18.5t-75.5 75.5l-58 70l-12 12l-9 9t-7 5q-25 0 -46.5 -13t-29.5 -17q-27 -6 -40 -29 t-27.5 -47.5t-37 -45t-65.5 -22.5q-12 0 -33.5 23.5t-26.5 44.5zM342 774q0 -72 10 -134t24.5 -110.5t30 -80t23.5 -39.5q27 -35 73 -53.5t89 -18.5q66 0 114 38t80.5 92t52 113.5t25.5 102.5q4 20 6 40.5t2 41.5q0 41 -16 110.5t-52 136t-91.5 116t-132.5 49.5 q-63 0 -108.5 -43t-74 -105.5t-42 -132.5t-13.5 -123z" />
<glyph unicode="&#xd6;" horiz-adv-x="1331" d="M82 684q0 145 23.5 279.5t88 237t180 163.5t300.5 61q90 0 172 -28.5t149.5 -76.5t118.5 -111.5t82 -133.5q31 -80 42 -178t11 -199q0 -80 -9 -169t-39 -175t-85 -160.5t-149 -125.5q-84 -59 -167 -78t-136 -19q-23 0 -47.5 1t-45.5 5q-55 12 -100 27.5t-78 32.5 q-36 19 -69 37q-127 94 -184.5 256t-57.5 354zM287 1688q0 57 23.5 92t37.5 43q14 16 39.5 34.5t48.5 18.5q82 0 141.5 -47t59.5 -119q0 -45 -8 -73.5t-33 -69.5q-12 -23 -23.5 -34t-26 -16.5t-34.5 -6.5t-51 -1q-10 2 -18.5 3t-16.5 1q-18 2 -30.5 3.5t-26.5 13.5 q-23 16 -38.5 29.5t-25.5 30t-14 40t-4 58.5zM356 684q0 -111 36 -207t95 -170l64 -43q10 -8 27 -16q12 -6 30.5 -12.5t40.5 -8.5q37 -4 60 -3t39 5q51 23 92 65t68.5 96t43 116.5t15.5 128.5v23.5t-2 23.5l-19 279q-10 45 -41 85.5t-71.5 72.5t-87 50.5t-87.5 18.5 t-69.5 -6t-63.5 -15l2 2l-39 -12q-23 -10 -44 -41t-36.5 -71.5t-24.5 -86t-9 -84.5zM745 1667q0 74 34 120t102 81q20 10 43 10h8q37 0 68.5 -20.5t56 -51t38 -65.5t13.5 -66q0 -27 -5 -37t-13 -20q-4 -4 -8.5 -12.5t-6.5 -28.5q-31 -47 -76 -54t-116 -7q-14 2 -37 13 t-45.5 29.5t-39 45t-16.5 63.5z" />
<glyph unicode="&#xd7;" horiz-adv-x="901" d="M41 838q39 41 64.5 68.5t70.5 58.5l172 -156l90 -88l54 53q57 59 108 109.5t92 91.5h21l65.5 -65.5t59.5 -71.5l-215 -228l-33 -32q49 -47 95 -89.5t81 -76.5q41 -39 78 -74l16 -16l-16 -17l-52.5 -52.5t-50.5 -53.5l-16 -17l-18 15q-33 25 -74 62.5t-80 72.5l-107 100 l-245 -252l-19 -14l-16 16q-25 23 -52.5 52.5t-50.5 52.5l-16 16l14 19q25 29 63 71.5t75 79.5l96 100l-109 103q-41 41 -77.5 79t-65.5 62z" />
<glyph unicode="&#xd8;" horiz-adv-x="1261" d="M82 12q12 31 19.5 46.5t15.5 25.5v-2l28 47l33 64l12 28q-47 84 -69.5 170t-28.5 154q-4 53 -7 109.5t-3 115.5q0 82 7 149.5t24 127.5q14 57 55 126.5t106.5 131t154.5 103.5t202 42q53 0 98 -8t84 -25q6 10 11 22.5t12 24.5q10 31 25.5 58.5t21.5 42.5l30 8l113 -62 l72 -38l-68 -138l-29 -69q33 -43 56.5 -91.5t46.5 -95.5q29 -66 52.5 -158t23.5 -186q0 -90 -30 -179t-58 -167l-7 -16q-27 -66 -57.5 -130.5t-87.5 -117.5q-76 -72 -170 -112t-188 -40q-61 0 -107 15q-37 10 -68.5 26.5t-60.5 34.5q-23 -45 -44 -78.5t-46 -64.5 q-14 8 -29 16q-12 8 -24.5 15.5l-22.5 13.5q-23 12 -46 25.5t-34 23.5zM342 774q0 -70 9 -129t24 -106q39 70 69.5 135t71.5 139q47 86 88 160t76 151l10 21q-53 33 -110 33q-63 0 -108.5 -43t-74 -105.5t-42 -132.5t-13.5 -123zM502 356q43 -18 90 -18q66 0 114 38t80.5 92 t52 113.5t25.5 102.5q4 20 6 40.5t2 41.5q0 29 -8 73t-26 93l-27 -55q-41 -74 -83 -144.5t-83 -138.5z" />
<glyph unicode="&#xd9;" horiz-adv-x="1148" d="M92 754v67v61.5t1 111t1 135t1 135t3 110.5t4 62h35q16 0 32.5 1t33.5 1q18 0 59 -3t76 -5q6 0 9 -1.5t8 -2.5t14.5 -1h25.5v-231q0 -90 1 -193.5t3 -194.5t4.5 -157.5t4.5 -83.5v2q12 -92 28.5 -141t32.5 -71.5t33.5 -25.5t32.5 -3q37 0 68.5 17t58 46t46 66t33.5 75 q8 20 10.5 44t4.5 53l6 57q0 6 1 35t2 73t2 99t1 115q0 66 2 132t3 125.5t3 105.5t4 69l269 12q2 -23 4 -85t2 -130q0 -197 -4 -334t-13.5 -236.5t-25 -170t-35.5 -134.5q-59 -184 -167 -276t-237 -92q-10 0 -35.5 1t-53 4t-52 7t-37.5 8q-90 31 -145 93.5t-87 137 t-45.5 154.5t-17.5 146q-4 49 -6 103t-2 108zM371 1950v4q0 2 10 8q4 -2 7 2t7 4t11 7q2 2 19.5 13t41 23.5t47 22.5t37.5 10h6l144 -258q23 -29 35 -49.5t18 -35.5t9 -26.5t9 -23.5l13 -45l-15 -19l-55 -28q-10 0 -28.5 9t-59.5 32q-57 47 -97 85t-70 76.5t-50.5 83 t-38.5 105.5z" />
<glyph unicode="&#xda;" horiz-adv-x="1148" d="M92 754v67v61.5t1 111t1 135t1 135t3 110.5t4 62h35q16 0 32.5 1t33.5 1q18 0 59 -3t76 -5q6 0 9 -1.5t8 -2.5t14.5 -1h25.5v-231q0 -90 1 -193.5t3 -194.5t4.5 -157.5t4.5 -83.5v2q12 -92 28.5 -141t32.5 -71.5t33.5 -25.5t32.5 -3q37 0 68.5 17t58 46t46 66t33.5 75 q8 20 10.5 44t4.5 53l6 57q0 6 1 35t2 73t2 99t1 115q0 66 2 132t3 125.5t3 105.5t4 69l269 12q2 -23 4 -85t2 -130q0 -197 -4 -334t-13.5 -236.5t-25 -170t-35.5 -134.5q-59 -184 -167 -276t-237 -92q-10 0 -35.5 1t-53 4t-52 7t-37.5 8q-90 31 -145 93.5t-87 137 t-45.5 154.5t-17.5 146q-4 49 -6 103t-2 108zM369 1626q2 8 4 19q2 8 4 19.5t6 21.5q12 39 33.5 80t50.5 94l129 205q4 0 6 1t6 1q25 0 51.5 -16.5t30.5 -20.5q16 -14 29.5 -24.5t28.5 -14.5q12 -4 24.5 -9t12.5 -7q-33 -53 -59.5 -98.5t-54.5 -87.5t-61.5 -83t-82.5 -86 q-41 -23 -59.5 -35t-29.5 -12q-12 10 -33.5 23.5t-35.5 29.5z" />
<glyph unicode="&#xdb;" horiz-adv-x="1148" d="M92 754v67v61.5t1 111t1 135t1 135t3 110.5t4 62h35q16 0 32.5 1t33.5 1q18 0 59 -3t76 -5q6 0 9 -1.5t8 -2.5t14.5 -1h25.5v-231q0 -90 1 -193.5t3 -194.5t4.5 -157.5t4.5 -83.5v2q12 -92 28.5 -141t32.5 -71.5t33.5 -25.5t32.5 -3q37 0 68.5 17t58 46t46 66t33.5 75 q8 20 10.5 44t4.5 53l6 57q0 6 1 35t2 73t2 99t1 115q0 66 2 132t3 125.5t3 105.5t4 69l269 12q2 -23 4 -85t2 -130q0 -197 -4 -334t-13.5 -236.5t-25 -170t-35.5 -134.5q-59 -184 -167 -276t-237 -92q-10 0 -35.5 1t-53 4t-52 7t-37.5 8q-90 31 -145 93.5t-87 137 t-45.5 154.5t-17.5 146q-4 49 -6 103t-2 108zM207 1667l33 49q12 6 18 13.5t15.5 18.5t26 25.5t46.5 33.5l191 165q10 14 32.5 32t43.5 18l178 -166q29 -23 48 -45.5t33.5 -43t25 -36t20.5 -21.5l28 -53l-16 -37l-10 -14l-29 -12q-4 -2 -12 -2q-18 0 -64 14h-6q-6 0 -14 2 t-12 6q-66 35 -109 75t-84 79q-29 -25 -73 -54.5t-90 -55t-89 -44t-67 -18.5q-12 0 -15 2l-43 47z" />
<glyph unicode="&#xdc;" horiz-adv-x="1148" d="M92 754v67v61.5t1 111t1 135t1 135t3 110.5t4 62h35q16 0 32.5 1t33.5 1q18 0 59 -3t76 -5q6 0 9 -1.5t8 -2.5t14.5 -1h25.5v-231q0 -90 1 -193.5t3 -194.5t4.5 -157.5t4.5 -83.5v2q12 -92 28.5 -141t32.5 -71.5t33.5 -25.5t32.5 -3q37 0 68.5 17t58 46t46 66t33.5 75 q8 20 10.5 44t4.5 53l6 57q0 6 1 35t2 73t2 99t1 115q0 66 2 132t3 125.5t3 105.5t4 69l269 12q2 -23 4 -85t2 -130q0 -197 -4 -334t-13.5 -236.5t-25 -170t-35.5 -134.5q-59 -184 -167 -276t-237 -92q-10 0 -35.5 1t-53 4t-52 7t-37.5 8q-90 31 -145 93.5t-87 137 t-45.5 154.5t-17.5 146q-4 49 -6 103t-2 108zM182 1792q0 27 12.5 60.5t34 63.5t51 49.5t64.5 19.5h8q10 0 18.5 -3t22.5 -10q66 -31 94.5 -72.5t28.5 -113.5q0 -33 -14 -57.5t-34.5 -41t-41 -26.5t-35.5 -12q-68 0 -108.5 5t-65.5 46q-4 23 -9 32t-11 16t-10.5 15.5 t-4.5 28.5zM649 1764q0 43 8.5 70.5t30.5 66.5q23 37 44.5 43t76.5 6q31 -4 53.5 -5t32.5 -11q23 -16 37 -28.5t23.5 -28t13.5 -38t4 -55.5q0 -57 -24.5 -88t-30.5 -35q-14 -16 -37 -33.5t-43 -17.5q-78 0 -133.5 44t-55.5 110z" />
<glyph unicode="&#xdd;" horiz-adv-x="1193" d="M10 1405q41 18 71 24.5t69 12.5q20 4 49.5 9t58.5 11q23 -35 47.5 -86t44.5 -100l39 -82q6 -14 16.5 -33.5t16.5 -34.5v2q29 -55 58.5 -111t62.5 -104q41 80 78.5 150t75.5 134.5t77 126.5t84 128q41 0 78 -2t47 -2q45 0 66.5 1t27.5 1l107 2q-49 -76 -102.5 -164 t-102.5 -175t-93 -170t-77 -148q-12 -27 -26.5 -53.5t-26.5 -55.5l-45 -78q2 -135 2 -258v-205v-139l-47 -4q-41 -6 -88 -6h-82q-10 2 -18.5 2h-16.5l-53 2v166q0 37 -1 78t-1 82v157.5t2 163.5q-43 59 -83 121.5t-75 124.5q-10 16 -23.5 45t-30 63.5t-35 74.5t-34.5 79 q-16 35 -32.5 72t-33 71.5t-30 62.5t-21.5 44zM387 1626q2 8 4 19q2 8 4 19.5t6 21.5q12 39 33.5 80t50.5 94l129 205q4 0 6 1t6 1q25 0 51.5 -16.5t30.5 -20.5q16 -14 29.5 -24.5t28.5 -14.5q12 -4 24.5 -9t12.5 -7q-33 -53 -59.5 -98.5t-54.5 -87.5t-61.5 -83t-82.5 -86 q-41 -23 -59.5 -35t-29.5 -12q-12 10 -33.5 23.5t-35.5 29.5z" />
<glyph unicode="&#xde;" horiz-adv-x="1099" d="M92 90v47v269q0 141 1 284.5t3 262t2 195.5v85v12q0 4 1 6t1 6q0 16 -1 42t-3 53q2 16 2 30.5v28.5v74l146 4h23.5t25.5 2q8 -2 21.5 -2h25.5h25.5t21.5 2q10 0 18.5 -20.5t8.5 -53.5v-76.5t-4 -78.5h112q55 -4 117.5 -18.5t125 -41t118 -69t94.5 -99.5 q37 -57 54.5 -119.5t17.5 -123.5q0 -76 -24 -142.5t-67 -122t-102 -100.5t-129 -78q-35 -14 -80 -24.5t-91 -16.5t-88 -10t-73 -6q0 -68 1 -143.5t1 -141.5l-47 -4q-18 -4 -42.5 -4h-47.5h-47q-6 0 -13 -1t-14 -1h-16t-18 -2h-56l-2 51q-2 18 -2 45zM410 631q113 4 193.5 38 t105.5 93q4 12 7 31.5t3 37.5q0 47 -27.5 75t-68.5 42.5t-86 18.5t-80 4q-4 0 -8.5 -1t-8.5 -1h-16h-8v-23v-80t-2 -80t-3 -75.5t-1 -79.5z" />
<glyph unicode="&#xe4;" horiz-adv-x="1044" d="M51 -8l4 59q12 100 36 229.5t52.5 267.5t60.5 275.5t59.5 253t48 198.5t30.5 111l12 33l37 2q8 0 14.5 1t16.5 1q16 2 33.5 3t33.5 1h45.5t45.5 -2q25 -2 46 -3t50 -1l41 -2l18 -37l2 -8q0 2 3 -10t8 -25q10 -29 21 -77t24 -109q25 -121 43 -210t34 -155 q16 -78 28.5 -138t16.5 -105l5 -45q0 -4 6 -43t14 -92q6 -39 13.5 -86.5t14.5 -96.5t14 -94t11 -80h-307q-4 29 -11 74t-16 102q-10 53 -18 99.5t-14 91.5q-53 0 -99.5 1t-101.5 1q-2 -6 -4 -15.5t-2 -15.5q-10 -78 -20.5 -143.5t-24.5 -124.5q-4 -8 -4 -15l-13 -67z M156 1720q0 29 5 38t11 18q4 4 8 12t8 31q29 43 71 50t110 7q12 -2 33.5 -12.5t43 -28.5t38 -45t16.5 -59q0 -70 -32 -113t-97 -76q-8 -4 -19.5 -8t-21.5 -4h-8q-35 0 -65 19.5t-52.5 48t-35.5 61.5t-13 61zM471 596q41 -2 70.5 -3t50.5 -1q-6 41 -13.5 94.5t-13.5 106.5 l-12 106t-14 100q-10 -45 -17.5 -101t-17.5 -114zM584 1702q0 72 52 122t138 50q23 0 46.5 -17.5t39.5 -33.5q10 -6 34 -40t24 -89q0 -49 -9.5 -79t-29 -47.5t-51 -26.5t-76.5 -15q-31 0 -49.5 1t-32 6t-24.5 15.5t-23 30.5q-16 29 -27.5 58.5t-11.5 64.5z" />
<glyph unicode="&#xe5;" horiz-adv-x="1007" d="M51 41l4 57q4 35 9.5 63.5t13.5 53.5v-2q2 8 5 21.5t6 24.5t5 19.5t2 6.5q0 4 2 10t2 10q2 14 3.5 25.5t5.5 17.5q8 43 24.5 112.5t36.5 154.5t43 179.5t45 186.5q53 215 115 459q10 0 55 -1t94 -1h129q12 -37 28.5 -106.5t37 -163t45 -203t49.5 -226.5q37 -178 75 -353 t70 -308l-8 -49q-72 -14 -110.5 -16.5t-71.5 -2.5q-23 0 -44.5 1t-37.5 3q-6 0 -15.5 1t-13.5 1l-12 31q-10 31 -19.5 70t-18.5 80t-15 79.5t-10 67.5q-10 0 -19.5 -1t-19.5 -1h-49h-54.5t-46.5 2q-16 -59 -24.5 -128t-16.5 -157v-43l-47 -2q-70 0 -130 3t-122 24zM260 1770 q0 45 19.5 88t51 76.5t73.5 54t87 20.5q61 0 104.5 -21.5t77.5 -68.5v-10q16 0 27.5 -22.5t15.5 -51.5q6 -33 6 -71q0 -10 -2 -21.5t-10 -28.5q0 -4 -8 -17t-19.5 -28.5t-20.5 -28t-11 -12.5q-27 -23 -74 -49t-86 -26q-45 0 -87 13t-73.5 41t-51 69t-19.5 94zM374 1751 q0 -18 11.5 -32.5t29 -23.5t38 -14t36.5 -5q49 0 75.5 26.5t26.5 87.5q0 66 -18 87.5t-35 31.5l-43 4q-41 -4 -65.5 -26.5t-37 -51t-15.5 -53.5t-3 -31zM426 582q10 -2 22.5 -2h34.5q21 0 31 2q8 2 16.5 3t20.5 1q-4 27 -9 66.5t-12.5 85.5t-14.5 95.5t-15 94.5l-17 -64 q-16 -70 -34.5 -145.5t-22.5 -136.5z" />
<glyph unicode="&#xf6;" horiz-adv-x="1343" d="M82 696q0 92 28.5 181.5t57.5 164.5l8 17q27 72 59.5 134t90.5 116q78 72 174 110.5t192 38.5q43 0 88 -3t82 -9q113 -31 185.5 -97.5t116.5 -146.5t62.5 -164t24.5 -149q4 -55 7.5 -111.5t3.5 -115.5q0 -88 -8.5 -168t-35 -153t-76.5 -138.5t-136 -122.5 q-57 -37 -130 -61.5t-126 -30.5q-29 -4 -53.5 -4h-55.5q-111 0 -188.5 33.5t-133 87t-92.5 119t-67 130.5q-31 66 -54.5 158t-23.5 184zM297 1731q0 27 12.5 60.5t34 63t51 49t64.5 19.5h8q10 0 18.5 -3t22.5 -9q66 -31 94.5 -73t28.5 -114q0 -33 -14.5 -57.5t-35 -40.5 t-41 -26.5t-34.5 -12.5q-68 0 -109 5t-65 46q-4 23 -9.5 32t-11.5 16.5t-10 15.5t-4 29zM354 717q0 -86 12.5 -159t29 -129t32.5 -92t27 -46q29 -39 87 -63.5t128 -24.5q70 8 114.5 38.5t89.5 63.5q140 125 158 301q2 16 2 30.5v31.5q0 16 -1 33.5t-1 33.5v64 q-12 57 -44 123.5t-83 123t-119.5 94.5t-152.5 38h-19q-68 -10 -116.5 -60.5t-80.5 -119t-47.5 -144.5t-15.5 -137zM764 1702q0 43 8 70.5t31 66.5q23 37 44 43t77 6q31 -4 53 -5t33 -11q23 -16 37 -28.5t23 -28t13 -38t4 -55.5q0 -57 -24.5 -87.5t-30.5 -35.5 q-14 -16 -37 -33.5t-43 -17.5q-78 0 -133 44t-55 110z" />
<glyph unicode="&#xf7;" horiz-adv-x="968" d="M74 573q0 -29 2 -56.5t10 -61.5l231 -4q74 2 175.5 3t194.5 2t159.5 1h73.5l22 2v22q0 35 -2 74t-2 74v22l-23 2q-41 4 -96 5t-108 1h-420q-53 0 -100.5 -3t-84.5 -3h-18l-14 -14v-66zM338 176q0 -16 8 -35.5t18.5 -38t20.5 -33t14 -18.5q16 -10 36 -19t32 -9 q80 0 117 40.5t39 108.5q0 10 -0.5 17.5t-4.5 11.5q-23 45 -58.5 69.5t-76.5 24.5q-25 0 -51 -12.5t-46.5 -31t-34 -38.5t-13.5 -37zM356 961q0 53 42 82.5t89 29.5q23 0 48 -6q47 -12 74.5 -49t27.5 -78q0 -53 -40 -94t-97 -41q-16 0 -40 10t-47.5 30.5t-40 49.5t-16.5 66z " />
<glyph unicode="&#x152;" horiz-adv-x="1654" d="M82 713q0 66 8 130t25 124q20 61 66 129.5t108.5 129t136.5 105.5t152 60q35 0 95 -1t115 -10h23l31 2h20q4 0 7 -1t8 1q4 0 7 1t5 1h37.5t38.5 -2q47 16 95 19.5t91 3.5q55 0 108.5 1t102.5 3q43 2 84 3t78 1h45l-2 -47v-76q0 -12 -1 -25.5t-1 -27.5v-102h-49 q-61 0 -128 -3.5t-131 -7.5q-61 -4 -107 -5t-91 -1q2 -31 1 -56.5t-1 -53.5v-79t4 -95q23 -6 57.5 -10.5t63.5 -4.5q12 0 25.5 1t27.5 3q16 2 32.5 3t39.5 1l39 -2l2 -37q2 -23 3 -49t1 -49v-86l-27 -39q-31 -4 -57.5 -6t-52.5 -2h-146q0 -31 1 -69.5t2 -77.5t3 -73t4 -54 q45 0 86 1t88 3q51 2 99.5 2h93.5h121v-273l-39 -4q-39 -2 -88 -4t-102.5 -3t-107.5 -2t-104 -1l-114 -2q-8 0 -16.5 -1t-16.5 -1h-92l-62 2q-43 -10 -95 -15t-103 -5q-66 0 -132.5 11t-113.5 38q-63 35 -115.5 91t-91.5 120.5t-60.5 130.5t-23.5 121q0 10 -1 20t-1 20 q-4 41 -6 90.5t-2 90.5zM358 637q0 -61 11.5 -128t42 -123t87 -93t146.5 -37q35 0 67.5 3t65.5 7v94q0 55 -4 109.5t-8 105.5q-4 45 -8 91.5t-4 91.5v30q0 39 1 75t5 65q2 16 3 30.5t1 30.5q0 53 -6 113q-76 -6 -137.5 -22.5t-92.5 -35.5q-33 -29 -63.5 -81t-54 -111 t-38 -116.5t-14.5 -98.5z" />
<glyph unicode="&#x178;" horiz-adv-x="1193" d="M10 1405q41 18 71 24.5t69 12.5q20 4 49.5 9t58.5 11q23 -35 47.5 -86t44.5 -100l39 -82q6 -14 16.5 -33.5t16.5 -34.5v2q29 -55 58.5 -111t62.5 -104q41 80 78.5 150t75.5 134.5t77 126.5t84 128q41 0 78 -2t47 -2q45 0 66.5 1t27.5 1l107 2q-49 -76 -102.5 -164 t-102.5 -175t-93 -170t-77 -148q-12 -27 -26.5 -53.5t-26.5 -55.5l-45 -78q2 -135 2 -258v-205v-139l-47 -4q-41 -6 -88 -6h-82q-10 2 -18.5 2h-16.5l-53 2v166q0 37 -1 78t-1 82v157.5t2 163.5q-43 59 -83 121.5t-75 124.5q-10 16 -23.5 45t-30 63.5t-35 74.5t-34.5 79 q-16 35 -32.5 72t-33 71.5t-30 62.5t-21.5 44zM200 1792q0 27 12.5 60.5t34 63.5t51 49.5t64.5 19.5h8q10 0 18.5 -3t22.5 -10q66 -31 94.5 -72.5t28.5 -113.5q0 -33 -14 -57.5t-34.5 -41t-41 -26.5t-35.5 -12q-68 0 -108.5 5t-65.5 46q-4 23 -9 32t-11 16t-10.5 15.5 t-4.5 28.5zM667 1764q0 43 8.5 70.5t30.5 66.5q23 37 44.5 43t76.5 6q31 -4 53.5 -5t32.5 -11q23 -16 37 -28.5t23.5 -28t13.5 -38t4 -55.5q0 -57 -24.5 -88t-30.5 -35q-14 -16 -37 -33.5t-43 -17.5q-78 0 -133.5 44t-55.5 110z" />
<glyph unicode="&#x2c6;" horiz-adv-x="849" d="M49 1208l33 49q12 6 18 13.5t15.5 18.5t26 25.5t46.5 33.5l191 165q10 14 32.5 32t43.5 18l178 -166q29 -23 48 -45.5t33.5 -43t25 -36t20.5 -21.5l28 -53l-16 -37l-10 -14l-29 -12q-4 -2 -12 -2q-18 0 -64 14h-6q-6 0 -14 2t-12 6q-66 35 -109 75t-84 79 q-29 -25 -73 -54.5t-90 -55t-89 -44t-67 -18.5q-12 0 -15 2l-43 47z" />
<glyph unicode="&#x2dc;" horiz-adv-x="876" d="M18 1233q0 4 2.5 11t4.5 11q29 43 58.5 90.5t64 85t77.5 62.5t99 25q53 0 89 -30t61.5 -66t47 -65.5t45.5 -29.5q4 2 24.5 11.5t24.5 9.5q31 10 54.5 27.5t40 34.5t29 29.5t18.5 14.5q2 0 9 -5t17 -9q10 -6 23 -13l31 -75q4 -14 8 -24.5t4 -29.5q0 -25 -14.5 -41t-33 -26 t-34.5 -16.5t-20 -10.5q-10 -10 -25 -10q-23 -10 -34 -21.5t-38 -17.5q-35 -6 -71 -6q-47 0 -94.5 18.5t-75.5 75.5l-58 70l-12 12l-9 9t-7 5q-25 0 -46.5 -13t-29.5 -17q-27 -6 -40 -29t-27.5 -47.5t-37 -45t-65.5 -22.5q-12 0 -33.5 23.5t-26.5 44.5z" />
<glyph unicode="&#x2000;" horiz-adv-x="1033" />
<glyph unicode="&#x2001;" horiz-adv-x="2067" />
<glyph unicode="&#x2002;" horiz-adv-x="1033" />
<glyph unicode="&#x2003;" horiz-adv-x="2067" />
<glyph unicode="&#x2004;" horiz-adv-x="689" />
<glyph unicode="&#x2005;" horiz-adv-x="516" />
<glyph unicode="&#x2006;" horiz-adv-x="344" />
<glyph unicode="&#x2007;" horiz-adv-x="344" />
<glyph unicode="&#x2008;" horiz-adv-x="258" />
<glyph unicode="&#x2009;" horiz-adv-x="413" />
<glyph unicode="&#x200a;" horiz-adv-x="114" />
<glyph unicode="&#x2010;" horiz-adv-x="679" d="M92 453v77q0 35 2 69t10 79l232 4q14 0 26.5 -1t26.5 -1q37 0 74 2t74 2q8 0 16 -1t14 -1l23 -2v-23q0 -49 -2 -99t-2 -95v-23l-23 -2q-31 -4 -76 -5t-88 -1h-90h-106t-86 -2z" />
<glyph unicode="&#x2011;" horiz-adv-x="679" d="M92 453v77q0 35 2 69t10 79l232 4q14 0 26.5 -1t26.5 -1q37 0 74 2t74 2q8 0 16 -1t14 -1l23 -2v-23q0 -49 -2 -99t-2 -95v-23l-23 -2q-31 -4 -76 -5t-88 -1h-90h-106t-86 -2z" />
<glyph unicode="&#x2012;" horiz-adv-x="679" d="M92 453v77q0 35 2 69t10 79l232 4q14 0 26.5 -1t26.5 -1q37 0 74 2t74 2q8 0 16 -1t14 -1l23 -2v-23q0 -49 -2 -99t-2 -95v-23l-23 -2q-31 -4 -76 -5t-88 -1h-90h-106t-86 -2z" />
<glyph unicode="&#x2013;" horiz-adv-x="1071" d="M92 582v80l14 14h19q37 0 84 3t100 3h420q57 0 118.5 -1t106.5 -5l23 -2v-23q0 -43 2 -92t2 -96v-23l-23 -2q-14 -2 -28.5 -2h-30.5h-32.5t-35.5 2q-37 0 -105.5 -1t-143 -2t-142 -2t-104.5 -1l-232 4q-8 45 -10 78t-2 68z" />
<glyph unicode="&#x2014;" horiz-adv-x="1484" d="M92 494.5v46.5q0 29 2 58.5t8 68.5l232 8h94.5h163.5t198.5 -1t198.5 -1h165h95q23 2 42.5 3t35.5 1q14 0 25.5 -1t23.5 -1h23v-23q0 -33 -1 -62.5t-1 -64.5q0 -16 1 -31.5t1 -29.5v-23l-23 -4q-45 -4 -106.5 -6t-118.5 -2l-840 -4q-51 0 -97 2t-83 2h-22l-15 12 q-2 29 -2 52.5z" />
<glyph unicode="&#x2018;" horiz-adv-x="538" d="M92 1163q2 31 7 58.5t17.5 55.5t34 58.5t58.5 67.5l49 49q20 18 38.5 34.5t29.5 16.5l20 -16l49 -62l4 -14l-67 -82q-16 -18 -27.5 -50t-11.5 -79h31q41 0 59 -13t41 -54l12 -15q10 -27 16.5 -45t6.5 -31q0 -37 -7.5 -69.5t-25.5 -57t-48 -39t-75 -14.5 q-72 0 -109.5 14.5t-54.5 41.5q-12 18 -21 49.5t-14.5 67.5t-8.5 69.5t-3 58.5z" />
<glyph unicode="&#x2019;" horiz-adv-x="540" d="M82 1323q0 37 7 69.5t25.5 57.5t48.5 39t75 14q72 0 109.5 -14t53.5 -41q12 -18 21.5 -50t14.5 -68t8.5 -69.5t3.5 -58.5q-4 -31 -8.5 -58.5t-16.5 -55t-33.5 -58.5t-58.5 -67q-27 -29 -49 -52q-20 -18 -40 -33.5t-28 -15.5l-20 17l-50 61l-4 14l68 82q16 18 27.5 50 t11.5 79h-31q-41 0 -59.5 13.5t-40.5 54.5l-13 14q-10 27 -16 45.5t-6 30.5z" />
<glyph unicode="&#x201a;" horiz-adv-x="471" d="M55 135q0 49 18.5 86t49.5 53q2 2 13 9.5t26.5 14.5t32 12t26.5 5q51 0 95 -14t61 -41q12 -20 20.5 -52t14.5 -67t9 -68.5t3 -58.5q-4 -31 -8 -58.5t-16.5 -55t-34 -58t-58.5 -67.5l-15 -17q-16 -16 -36 -34.5t-38.5 -34t-27.5 -15.5l-20 17l-49 61l-4 15l67 81 q16 18 27.5 50t11.5 79h-30q-41 0 -59.5 13.5t-41.5 54.5l-12 14q-10 25 -17.5 43.5t-7.5 32.5z" />
<glyph unicode="&#x201c;" horiz-adv-x="987" d="M92 1163q2 31 7 58.5t17.5 55.5t34 58.5t58.5 67.5l49 49q20 18 38.5 34.5t29.5 16.5l20 -16l49 -62l4 -14l-67 -82q-16 -18 -27.5 -50t-11.5 -79h31q41 0 59 -13t41 -54l12 -15q10 -27 16.5 -45t6.5 -31q0 -37 -7.5 -69.5t-25.5 -57t-48 -39t-75 -14.5 q-72 0 -109.5 14.5t-54.5 41.5q-12 18 -21 49.5t-14.5 67.5t-8.5 69.5t-3 58.5zM541 1143v26.5t2 24.5q4 29 10 55.5t18.5 54t35 58.5t61.5 65q29 27 51 50q20 18 39.5 32.5t29.5 14.5l21 -19l45 -61l4 -14l-72 -80q-16 -16 -27 -48t-16 -79h31q41 0 60.5 -18.5t48.5 -67.5 q10 -27 16 -47.5t6 -32.5q-4 -72 -36.5 -122t-116.5 -50q-37 0 -68 10t-53.5 25.5t-37.5 33t-24 31.5q-16 29 -22 73t-6 85z" />
<glyph unicode="&#x201d;" horiz-adv-x="980" d="M80 1356q6 35 16 64.5t27.5 52t44.5 36t68 13.5q76 0 117.5 -27t61 -64.5t23.5 -78.5t4 -70q0 -23 -2 -45.5t-6 -42.5q-8 -27 -15 -51.5t-21.5 -51t-39 -55t-65.5 -61.5q-29 -25 -53 -45q-23 -16 -43.5 -29.5t-30.5 -13.5h-2l-21 20l-37 62l-4 14l80 76q33 29 51 123h-30 q-20 4 -34.5 10t-26 15.5t-20.5 25.5t-20 43q-23 51 -22 80zM526 1346q8 66 41 115.5t111 49.5q84 0 123 -21.5t53 -43.5q16 -31 24.5 -82t8.5 -102v-34t-2 -28q-6 -31 -12.5 -58.5t-19.5 -55t-37.5 -56.5t-63.5 -61q-29 -27 -52 -47q-20 -16 -40.5 -30.5t-30.5 -14.5h-2 l-21 16l-41 61l-4 15l76 82q14 16 28.5 44.5t18.5 75.5l-31 9q-41 0 -59.5 13t-38.5 54l-6 15q-10 33 -16.5 52t-6.5 32z" />
<glyph unicode="&#x201e;" horiz-adv-x="983" d="M80 131q6 35 16 64.5t27.5 52t44.5 36t68 13.5q76 0 117.5 -26.5t61 -64.5t23.5 -79t4 -70q0 -23 -2 -45.5t-6 -42.5q-8 -27 -15 -51t-21.5 -51t-39 -55.5t-65.5 -61.5q-29 -25 -53 -45q-23 -16 -43.5 -29.5t-30.5 -13.5h-2l-21 21l-37 61l-4 14l80 76q33 29 51 123h-30 q-20 4 -34.5 10t-26 15.5t-20.5 26t-20 42.5q-23 51 -22 80zM526 121q8 66 41 116t111 50q84 0 123 -21.5t53 -44.5q16 -31 24.5 -82t8.5 -102v-34t-2 -28q-6 -31 -12.5 -58.5t-19.5 -55t-37.5 -56t-63.5 -61.5q-29 -27 -52 -47q-20 -16 -40.5 -30.5t-30.5 -14.5h-2l-21 16 l-41 62l-4 14l76 82q14 16 28.5 45t18.5 76l-31 8q-41 0 -59.5 13.5t-38.5 54.5l-6 14q-10 33 -16.5 52.5t-6.5 31.5z" />
<glyph unicode="&#x2022;" horiz-adv-x="798" d="M92 780q0 27 17.5 73t46.5 81q8 10 38.5 32.5t71.5 46t85 42t81 18.5t85 -28.5t90 -74.5t71 -105.5t29 -121.5q0 -90 -54.5 -171t-152.5 -128q-27 -10 -66 -10q-154 0 -246 83t-96 263z" />
<glyph unicode="&#x2026;" horiz-adv-x="1746" d="M47 139q0 63 16 86q23 39 65 55.5t89 16.5q33 0 66.5 -11.5t61.5 -32t44.5 -49t16.5 -65.5q0 -18 -11.5 -51t-35 -63.5t-58.5 -53t-80 -22.5q-20 0 -39 6h-4q-8 -2 -45 22q-47 29 -66.5 68t-19.5 94zM694 150q0 16 10.5 42.5t26.5 45.5q4 6 22.5 19t42 27.5t49 24.5 t46.5 10q23 0 50.5 -16t52 -44t41 -61.5t16.5 -70.5q0 -51 -32 -98t-89 -74q-12 -6 -37 -6q-90 0 -143.5 48t-55.5 153zM1346 121q0 20 14 52t42 61.5t65.5 51t84.5 21.5q33 0 59.5 -14t46 -39t30 -55.5t10.5 -61.5q0 -32 -8 -59q-16 -63 -64.5 -100t-103.5 -37 q-35 0 -67 15t-56.5 39.5t-38.5 57.5t-14 68z" />
<glyph unicode="&#x202f;" horiz-adv-x="413" />
<glyph unicode="&#x2039;" horiz-adv-x="561" d="M98 539l164 301l84 149h23q29 0 47 -2t47 -2h20l-10 -22q-16 -45 -49 -106.5t-62 -119.5l-104 -198q35 -59 61.5 -112.5t42.5 -82.5l121 -231q-20 -8 -39.5 -10.5t-42.5 -2.5h-49l-18 15q-18 39 -52 91t-63 111z" />
<glyph unicode="&#x203a;" horiz-adv-x="561" d="M78 100l10 23q16 45 48 106.5t63 118.5l104 199q-35 59 -61.5 112.5t-42.5 81.5l-121 232q20 8 39.5 10t42.5 2h49l18 -14q18 -39 52 -91.5t63 -111.5l121 -221l-164 -301l-84 -150h-22q-29 0 -47.5 2t-47.5 2h-20z" />
<glyph unicode="&#x205f;" horiz-adv-x="516" />
<glyph unicode="&#x20ac;" horiz-adv-x="989" d="M-119 539q8 27 14.5 54.5t18.5 55.5l94 2v25q0 29 1 59.5t3 59.5h-4q-23 -2 -37 -3t-28 -1h-19.5t-19.5 2h-23v22q0 18 10.5 41t16.5 51l22 4q23 2 46.5 4.5t46.5 2.5q8 55 31.5 117.5t60.5 123t86 111.5t106 84q45 23 103.5 30t119.5 2q25 -2 49.5 -4t51.5 -6 q74 -14 148.5 -51t127.5 -113q-12 -16 -22 -32q-20 -31 -43 -54q-14 -12 -23.5 -23t-17.5 -22q-8 -10 -15 -20l-26 -39q-35 35 -90.5 58.5t-130.5 31.5q-45 0 -80 -15.5t-61.5 -42t-45 -62.5t-30.5 -74l235 6h60.5t60.5 -1t52.5 -3t35.5 -5l2 -8q-8 -27 -14 -54.5t-19 -55.5 l-231 -9h-34.5t-38 1.5t-52.5 1.5h-74h-10q-6 -35 -6 -66q-2 -16 -1 -33.5t3 -36.5h4q100 -2 197.5 -3t148.5 -1q23 2 37 3t27 1q10 0 19 -1t21 -1h23l2 -12q-4 -20 -13 -47t-16 -55l-22 -4q-45 -4 -92 -6.5t-105 -2.5l-211 -2q14 -66 35 -122t43 -85q16 -18 48 -41.5 t79 -35.5q31 -6 68 -4t72.5 14t67.5 34.5t52 53.5l25 -33l22 -31q10 -16 12.5 -22t8.5 -21q10 -16 20 -31.5t23 -31.5q4 -6 6 -12.5t6 -10.5q-39 -47 -88 -79.5t-101.5 -53t-102.5 -29t-93 -6.5q-84 0 -161 37t-138 98.5t-104 140.5t-62 161q-8 25 -15 52.5t-11 55.5h-7 q-27 2 -51 3t-47 1h-22z" />
<glyph unicode="&#x2122;" horiz-adv-x="1654" d="M39 1298v140q41 0 82 2q35 2 76 2t75 2q43 -4 83 -2t71 0l41 -2q41 4 72.5 4t85.5 4h20v-18q0 -16 1 -30t1 -28v-37l2 -20h-20q-16 -2 -29.5 -2h-28.5h-26.5t-24.5 2q-29 -6 -55.5 -4t-48.5 0q0 -31 1 -98.5t1 -149.5t1 -167t1 -151q0 -45 -1 -75.5t-1 -40.5v-17l-17 -2 q-16 -2 -35.5 -3t-35.5 -1t-30.5 1t-25.5 1h-20v19q0 27 -1 56.5t-1 64.5v157.5t1 160.5t1 141.5v99.5h-56t-72 -1t-61.5 -3.5t-25.5 -4.5zM719 1427q16 12 41.5 9.5t50.5 1.5q10 0 21.5 -1t21.5 -1q4 0 10 1t10 1l15 -2q55 -78 100 -198t119 -277l14 -31l13 41 q35 131 78.5 243.5t91.5 233.5q27 10 56.5 12t57.5 2q20 0 42 -5t40 -11q2 -20 3 -41t1 -41q2 -37 4 -77t3 -80t2.5 -76.5t1.5 -65.5q0 -23 -2.5 -43.5t-2.5 -40.5q0 -59 1 -124.5t6 -125.5l6 -108h-152l-14 6q-6 59 -10.5 129.5t-6.5 144.5t-3 144.5t-1 132.5 q-49 -119 -86 -238t-94 -235q-10 -18 -26.5 -20.5t-45.5 -6.5q-10 0 -15 7t-9 13q-53 123 -99.5 247t-99.5 247h-2q0 -129 8.5 -256t12.5 -254v-59q-29 -10 -90 -11q-23 0 -39.5 2t-16.5 39q0 16 2 30.5t2 31.5q0 29 -1 56.5t-3 55.5l-4 101q-4 127 -6 250t-6 247z" />
<glyph unicode="&#xe000;" horiz-adv-x="1361" d="M0 0v1362h1362v-1362h-1362z" />
<glyph unicode="&#xfb01;" horiz-adv-x="1476" d="M98 786q0 223 7.5 360.5t11.5 182.5q0 4 1 13.5t1 17.5v18h123q23 0 47 1t51 1t51.5 -1t46.5 -1h271q27 0 51 1t47 1h51l-6 -61v-227h-57q-68 0 -137.5 5t-131.5 11q-16 0 -41.5 -1t-44.5 -1h-43v-182q0 -23 -1 -35t1 -41h19q25 0 48 1t48 3q29 0 59.5 2t63.5 2h49l49 -2 l2 -47l2 -27q4 -14 6 -30.5t2 -36.5v-25q0 -4 1.5 -9t1.5 -9v-9.5t-5 -15.5l2 2l-10 -45l-43 -4q-20 -2 -47 -2h-53h-56.5t-52.5 2h-80h-2q-2 -53 -2 -96t2 -85t4.5 -87t4.5 -105q0 -10 -1 -19t-1 -20v-36q0 -29 1 -45.5t1 -26.5v-78h-115h-91t-77 -2l-8 35q0 53 -2 130 t-6 159q-4 104 -8.5 226t-4.5 238zM1053 39l2 1352h50t46 -2q23 -2 52.5 -3.5t58.5 -1.5q8 0 15.5 1t13.5 1h65l29 -38v-113q0 -31 -1 -61.5t-3 -63.5t-4 -66.5t-2 -66.5v-96q0 -29 1 -67t1 -75q0 -70 -4 -143.5t-11 -151.5q0 -8 -1 -19t-1 -17q-4 -33 -4 -75t-2 -93 t-3 -119t-3 -131l-145 -2h-49q-4 0 -9.5 -1t-11.5 -1q-29 -4 -54.5 3t-25.5 50z" />
<glyph unicode="&#xfb02;" horiz-adv-x="1812" d="M98 786q0 223 7.5 360.5t11.5 182.5q0 4 1 13.5t1 17.5v18h123q23 0 47 1t51 1t51.5 -1t46.5 -1h271q27 0 51 1t47 1h51l-6 -61v-227h-57q-68 0 -137.5 5t-131.5 11q-16 0 -41.5 -1t-44.5 -1h-43v-182q0 -23 -1 -35t1 -41h19q25 0 48 1t48 3q29 0 59.5 2t63.5 2h49l49 -2 l2 -47l2 -27q4 -14 6 -30.5t2 -36.5v-25q0 -4 1.5 -9t1.5 -9v-9.5t-5 -15.5l2 2l-10 -45l-43 -4q-20 -2 -47 -2h-53h-56.5t-52.5 2h-80h-2q-2 -53 -2 -96t2 -85t4.5 -87t4.5 -105q0 -10 -1 -19t-1 -20v-36q0 -29 1 -45.5t1 -26.5v-78h-115h-91t-77 -2l-8 35q0 53 -2 130 t-6 159q-4 104 -8.5 226t-4.5 238zM1038 39v40.5v77t1 144.5t2 242.5t3 372t6 532.5q29 0 66 1t49 1h8q29 0 70 -2t63 -4q12 2 20.5 2h12.5q8 0 15.5 -1t19.5 -1q0 -104 -5 -201.5t-10 -191t-10.5 -187.5t-5.5 -192q0 -68 2 -147t2 -146v-74q43 2 95.5 3t103.5 1 q27 0 49.5 -1t38.5 -1h32.5t45.5 2q26 0 59 2q0 -49 -5 -92t-5 -123q0 -16 1 -30.5t1 -40.5q-23 0 -60.5 1t-66.5 1q-14 0 -40.5 -3.5t-63.5 -3.5q-8 0 -46 1.5t-81 3.5t-79 3t-42 1q-10 0 -20.5 -1t-20.5 -1q-45 6 -70.5 8t-45 2h-38t-51.5 2z" />
</font>
</defs>
</svg>
