<svg xmlns="http://www.w3.org/2000/svg" style="display: none;">
  <symbol id="arrow-down" viewBox="0 0 120 64">
    <polygon points="59.964,63 1,7.828 7.317,1 59.964,50.272 112.701,1 119,7.828  "/>
  </symbol>

  <symbol id="arrow-up" viewBox="0 0 120 64">
    <polygon points="60.036,1 119,56.172 112.683,63 60.036,13.728 7.299,63 1,56.172   "/>
  </symbol>

  <symbol id="arrow-left" viewBox="0 0 34 64">
    <polygon points="0.5,31.981 29.866,1 33.5,4.319 7.274,31.981 33.5,59.69 29.866,63   "/>
  </symbol>

  <symbol id="arrow-right" viewBox="0 0 34 64">
    <polygon points="33.5,32.019 4.134,63 0.5,59.681 26.726,32.019 0.5,4.31 4.134,1   "/>
  </symbol>

  <symbol id="bubble" viewBox="0 0 62 64">
    <path d="M41.338,51.096c-3.471,1.058-8.46,0.858-12.459,0.642C5.768,50.482-1.648,35.768,1.804,21.711
    C5.238,7.717,17.286-0.285,35.716,1.169c18.213,1.44,26.774,16.132,25.072,30.552C59.193,45.237,37.092,63,37.092,63
    S39.489,58.251,41.338,51.096"/>
  </symbol>

  <symbol id="check" viewBox="0 0 64 64">
    <g>
      <path d="M28.448,46.206c0.489,0.7,1.293,0.648,2.153,0.648c0.018,0,0.037,0,0.055,0c0.878,0,1.691-0.005,2.158-0.741l16.482-25.472
        c0.768-1.206,0.4-2.805-0.82-3.565c-1.228-0.757-2.835-0.403-3.603,0.806L30.504,40.481l-9.283-13.374
        c-0.815-1.173-2.44-1.532-3.634-0.721c-1.189,0.809-1.489,2.299-0.671,3.475L28.448,46.206z"/>
      <path d="M1,1v62h62V1H1z M57.772,57.833H6.223V6.167h51.549V57.833z"/>
    </g>
  </symbol>

  <symbol id="checkRound" viewBox="0 0 64 64">
    <g>
      <path d="M43.275,20.698H20.723v22.604h22.553V20.698z M39.567,27.03l-7.211,11.144c-0.205,0.322-0.56,0.324-0.944,0.324
        c-0.008,0-0.016,0-0.024,0c-0.376,0-0.728,0.023-0.942-0.284L25.4,31.064c-0.358-0.514-0.226-1.166,0.294-1.52
        c0.522-0.355,1.233-0.198,1.59,0.315l4.061,5.851l6.286-9.887c0.336-0.529,1.039-0.684,1.576-0.353
        C39.742,25.803,39.903,26.503,39.567,27.03z"/>
      <path d="M32,1C14.879,1,1,14.879,1,32s13.879,31,31,31c17.121,0,31-13.879,31-31S49.121,1,32,1z M45.562,45.562H18.438V18.438
        h27.125V45.562z"/>
    </g>
  </symbol>

  <symbol id="close" viewBox="0 0 64 64">
    <path d="M34.864,32L62.407,4.457c0.791-0.791,0.791-2.073,0-2.864c-0.791-0.791-2.073-0.791-2.864,0L32,29.136L4.457,1.593
    c-0.791-0.791-2.073-0.791-2.864,0s-0.791,2.073,0,2.864L29.136,32L1.593,59.543c-0.791,0.791-0.791,2.073,0,2.864
    C1.989,62.802,2.506,63,3.025,63s1.036-0.198,1.432-0.593L32,34.864l27.543,27.543C59.938,62.802,60.455,63,60.975,63
    s1.036-0.198,1.432-0.593c0.791-0.791,0.791-2.073,0-2.864L34.864,32z"/>
  </symbol>

  <symbol id="facebookRound" viewBox="0 0 64 64">
    <path d="M32,1C14.879,1,1,14.879,1,32s13.879,31,31,31c17.121,0,31-13.879,31-31S49.121,1,32,1z M39.401,26.325l-0.386,5.015h-5.141
      V48.76h-6.496V31.339h-3.465v-5.015h3.465v-3.368c0-1.485,0.037-3.775,1.116-5.194c1.136-1.502,2.696-2.523,5.379-2.523
      c4.372,0,6.213,0.624,6.213,0.624l-0.866,5.134c0,0-1.444-0.418-2.792-0.418c-1.348,0-2.555,0.483-2.555,1.83v3.915H39.401z"/>
  </symbol>

  <symbol id="googleRound" viewBox="0 0 64 64">
    <g>
      <path d="M29.73,36.565c-0.786-0.254-1.653-0.403-2.583-0.414c-3.985-0.043-7.555,2.429-7.555,5.399c0,3.03,2.877,5.552,6.863,5.552
        c5.603,0,7.554-2.366,7.554-5.398c0-0.366-0.045-0.722-0.128-1.07C33.444,38.919,31.892,38.07,29.73,36.565z"/>
      <path d="M31.509,23.119c-0.461-3.513-3.004-6.329-5.678-6.41c-2.673-0.079-4.468,2.609-4.006,6.121
        c0.461,3.511,3.004,6.423,5.678,6.503C30.177,29.414,31.97,26.631,31.509,23.119z"/>
      <path d="M32,1C14.879,1,1,14.879,1,32s13.879,31,31,31c17.121,0,31-13.879,31-31S49.121,1,32,1z M26.476,48.76
        c-5.763,0-10.628-2.345-10.628-6.094c0-3.808,4.437-7.478,10.203-7.478c0.625,0,1.202-0.017,1.798-0.017
        c-0.789-0.768-1.413-1.709-1.413-2.87c0-0.686,0.221-1.35,0.528-1.937c-0.314,0.022-0.632,0.029-0.962,0.029
        c-4.735,0-7.907-3.369-7.907-7.543c0-4.083,4.381-7.609,9.033-7.609h10.382l-2.323,1.678h-3.291
        c2.183,0.841,3.346,3.385,3.346,5.997c0,2.192-1.215,4.078-2.932,5.421c-1.674,1.309-1.992,1.855-1.992,2.97
        c0,0.95,1.793,2.565,2.731,3.229c2.744,1.939,3.631,3.74,3.631,6.747C36.678,45.032,33.047,48.76,26.476,48.76z M48.152,32.892
        H44.11v4.042h-3.253v-4.042h-4.041v-3.253h4.041v-4.041h3.253v4.041h4.042V32.892z"/>
    </g>
  </symbol>

  <symbol id="list" viewBox="0 0 64 64">
    <g>
      <path d="M1,29.182h28.182V1H1V29.182z M6.636,6.636h16.909v16.909H6.636V6.636z"/>
      <path d="M34.818,1v28.182H63V1H34.818z M57.364,23.545H40.455V6.636h16.909V23.545z"/>
      <path d="M1,63h28.182V34.818H1V63z M6.636,40.455h16.909v16.909H6.636V40.455z"/>
      <path d="M34.818,63H63V34.818H34.818V63z M40.455,40.455h16.909v16.909H40.455V40.455z"/>
    </g>
  </symbol>

  <symbol id="listRound" viewBox="0 0 64 64">
    <g>
      <rect x="35.699" y="35.699" width="7.398" height="7.398"/>
      <rect x="20.903" y="20.903" width="7.398" height="7.398"/>
      <path d="M32,1C14.879,1,1,14.879,1,32s13.879,31,31,31c17.121,0,31-13.879,31-31S49.121,1,32,1z M30.767,45.563h-12.33v-12.33
        h12.33V45.563z M30.767,30.767h-12.33v-12.33h12.33V30.767z M45.563,45.563h-12.33v-12.33h12.33V45.563z M45.563,30.767h-12.33
        v-12.33h12.33V30.767z"/>
      <rect x="20.903" y="35.699" width="7.398" height="7.398"/>
      <rect x="35.699" y="20.903" width="7.398" height="7.398"/>
    </g>
  </symbol>

  <symbol id="menu" viewBox="0 0 81 64">
    <g>
      <g>
        <rect x="1" y="25.8" width="79" height="12.4"/>
      </g>
      <g>
        <rect x="1" y="1" width="79" height="12.4"/>
      </g>
      <g>
        <rect x="1" y="50.6" width="79" height="12.4"/>
      </g>
    </g>
  </symbol>

  <symbol id="moveRound" viewBox="0 0 64 64">
    <path d="M32,1C14.879,1,1,14.879,1,32s13.879,31,31,31c17.121,0,31-13.879,31-31S49.121,1,32,1z M46.046,32.016l-3.71,3.579
      c-0.16,0.154-0.365,0.231-0.571,0.231c-0.216,0-0.431-0.084-0.592-0.252c-0.316-0.327-0.307-0.849,0.021-1.165l2.238-2.159H32.827
      v11.185l2.16-2.243c0.315-0.328,0.836-0.338,1.165-0.022c0.327,0.316,0.337,0.837,0.022,1.164l-3.572,3.71
      c-0.155,0.161-0.369,0.253-0.593,0.253c-0.223,0-0.437-0.091-0.592-0.252l-3.579-3.71c-0.316-0.327-0.307-0.849,0.021-1.165
      c0.327-0.315,0.85-0.307,1.164,0.021l2.16,2.239v-11.18H20.565l2.243,2.158c0.327,0.316,0.337,0.837,0.022,1.164
      c-0.162,0.168-0.377,0.253-0.593,0.253c-0.205,0-0.412-0.077-0.571-0.23l-3.71-3.571c-0.161-0.155-0.252-0.369-0.252-0.593
      c-0.001-0.224,0.091-0.438,0.252-0.593l3.71-3.579c0.327-0.315,0.85-0.306,1.164,0.021c0.316,0.327,0.307,0.849-0.021,1.165
      l-2.238,2.159H31.18V20.565l-2.159,2.242c-0.316,0.327-0.837,0.337-1.165,0.022c-0.327-0.316-0.337-0.837-0.022-1.164l3.572-3.71
      c0.155-0.161,0.369-0.253,0.593-0.253c0.223,0,0.437,0.091,0.592,0.252l3.579,3.71c0.316,0.327,0.307,0.849-0.021,1.165
      c-0.16,0.154-0.365,0.231-0.571,0.231c-0.216,0-0.431-0.084-0.592-0.252l-2.161-2.24v10.036h10.609l-2.243-2.158
      c-0.327-0.316-0.337-0.837-0.022-1.164c0.315-0.328,0.836-0.338,1.165-0.022l3.71,3.571c0.161,0.155,0.252,0.369,0.252,0.593
      C46.298,31.647,46.207,31.861,46.046,32.016z"/>
  </symbol>

  <symbol id="openNew" viewBox="0 0 70 64">
    <g>
      <g>
        <polygon points="17.238,1 17.238,11.92 22.65,11.92 22.65,6.46 63.588,6.46 63.588,39.222 58.175,39.222 58.175,44.682 69,44.682
          69,1    "/>
      </g>
      <path d="M1,19.318V63h51.762V41.159V19.318H1z M47.35,57.54H6.413V24.778H47.35v21.841v5.46V57.54z"/>
    </g>
  </symbol>

  <symbol id="round" viewBox="0 0 64 64">
    <circle cx="32" cy="32" r="31"/>
  </symbol>

  <symbol id="search" viewBox="0 0 66 64">
    <path d="M63.981,57.338L46.922,41.106c2.909-4.148,4.637-9.193,4.637-14.647C51.56,12.423,40.219,1,26.28,1S1,12.423,1,26.459
      s11.341,25.456,25.28,25.456c6.182,0,11.844-2.253,16.242-5.975l16.987,16.164C60.136,62.702,60.941,63,61.743,63
      c0.864,0,1.725-0.346,2.365-1.028C65.345,60.655,65.289,58.581,63.981,57.338z M7.511,26.459c0-10.424,8.42-18.902,18.769-18.902
      s18.769,8.478,18.769,18.902c0,10.421-8.42,18.897-18.769,18.897S7.511,36.88,7.511,26.459z"/>
  </symbol>

  <symbol id="searchRound" viewBox="0 0 64 64">
    <g>
      <path d="M32,1C14.879,1,1,14.879,1,32s13.879,31,31,31c17.121,0,31-13.879,31-31S49.121,1,32,1z M44.243,43.708
        c-0.252,0.267-0.591,0.402-0.931,0.402c-0.316,0-0.632-0.116-0.879-0.35l-6.685-6.314c-1.731,1.454-3.959,2.334-6.392,2.334
        c-5.486,0-9.949-4.461-9.949-9.944s4.463-9.945,9.949-9.945c5.486,0,9.949,4.462,9.949,9.945c0,2.13-0.68,4.101-1.825,5.722
        l6.713,6.341C44.707,42.383,44.73,43.193,44.243,43.708z"/>
      <path d="M29.355,22.452c-4.073,0-7.387,3.312-7.387,7.384c0,4.071,3.314,7.381,7.387,7.381s7.387-3.311,7.387-7.381
        C36.742,25.763,33.428,22.452,29.355,22.452z"/>
    </g>
  </symbol>

  <symbol id="textList" viewBox="0 0 80 64">
    <g>
      <rect x="44.054" y="1" width="34.946" height="9.875"/>
      <rect x="1" y="1" width="35.319" height="9.875"/>
      <rect x="1" y="27.063" width="35.319" height="9.875"/>
      <rect x="44.054" y="27.063" width="34.946" height="9.875"/>
      <rect x="44.054" y="53.125" width="34.946" height="9.875"/>
      <rect x="1" y="53.125" width="35.319" height="9.875"/>
    </g>
  </symbol>

  <symbol id="twitterRound" viewBox="0 0 64 64">
    <path d="M32,1C14.879,1,1,14.879,1,32s13.879,31,31,31c17.121,0,31-13.879,31-31S49.121,1,32,1z M45.352,25.153
      c0.012,0.294,0.018,0.592,0.018,0.891c0,9.105-6.927,19.6-19.6,19.6c-3.89,0-7.511-1.141-10.56-3.094
      c0.538,0.064,1.087,0.095,1.644,0.095c3.227,0,6.197-1.101,8.555-2.95c-3.015-0.053-5.558-2.046-6.434-4.782
      c0.419,0.081,0.852,0.122,1.295,0.122c0.629,0,1.237-0.081,1.816-0.243c-3.154-0.631-5.528-3.415-5.528-6.754v-0.085
      c0.93,0.513,1.993,0.826,3.122,0.86c-1.849-1.236-3.065-3.346-3.065-5.733c0-1.263,0.34-2.445,0.933-3.466
      c3.4,4.171,8.474,6.91,14.199,7.198c-0.118-0.503-0.177-1.028-0.177-1.569c0-3.803,3.084-6.888,6.886-6.888
      c1.982,0,3.774,0.836,5.028,2.175c1.572-0.308,3.044-0.881,4.376-1.67c-0.513,1.608-1.605,2.957-3.028,3.81
      c1.393-0.166,2.722-0.537,3.956-1.084C47.868,22.968,46.699,24.181,45.352,25.153z"/>
  </symbol>

  <symbol id="video" viewBox="0 0 115 64">
    <path d="M80.061,27.509c0-4.035,0.02-7.764-0.004-11.492C80,7.338,73.727,1.042,65.036,1.025
      C48.694,0.994,32.351,0.988,16.009,1.028C7.245,1.049,1.006,7.392,1.003,16.157C0.999,26.683,1,37.209,1.002,47.735
      c0.002,9.008,6.261,15.263,15.277,15.264C32.442,63.001,48.605,63,64.767,62.998c0.54,0,1.081-0.007,1.619-0.037
      c7.151-0.392,13.132-6.191,13.548-13.339c0.211-3.632,0.093-7.282,0.129-10.924c0.005-0.463,0.04-0.925,0.071-1.601
      c11.397,6.57,22.572,13.012,33.866,19.522c0-16.337,0-32.407,0-48.68C102.673,14.47,91.513,20.905,80.061,27.509z"/>
  </symbol>

  <symbol id="play" viewBox="0 0 64 64">
    <path d="M32.044,1.871c-17.121,0-31,13.879-31,31c0,17.121,13.879,31,31,31c17.121,0,31-13.879,31-31
        C63.044,15.75,49.165,1.871,32.044,1.871z M47.198,33.66L23.444,48.146c-0.135,0.082-0.287,0.124-0.44,0.124
        c-0.143,0-0.285-0.036-0.414-0.108c-0.266-0.15-0.431-0.431-0.431-0.737V18.452c0-0.306,0.165-0.587,0.431-0.737
        c0.267-0.149,0.593-0.144,0.854,0.015l23.754,14.486c0.252,0.154,0.405,0.427,0.405,0.722S47.45,33.506,47.198,33.66z"/>
  </symbol>

</svg>
